<svg width="199" height="198" viewBox="0 0 199 198" xmlns="http://www.w3.org/2000/svg" xmlns:xlink="http://www.w3.org/1999/xlink"><defs><path id="path-1" d="M0 .992h198.216V199H0V.992z"/></defs><g id="Page-1" fill="none" fill-rule="evenodd"><g id="cert-3" transform="translate(0 -1)"><path d="M23.76 169.552l1.584 1.296c-.936 1.08-2.016 1.728-3.24 1.873-1.224.216-2.45-.07-3.6-.864-1.44-.864-2.23-2.088-2.52-3.6-.288-1.512.144-3.096 1.296-4.895.72-1.08 1.584-1.944 2.52-2.592.864-.575 1.872-.864 2.88-.79 1.08.07 2.016.43 2.952 1.007 1.152.72 1.872 1.656 2.232 2.664.36 1.08.288 2.16-.216 3.31l-1.872-.792c.288-.863.288-1.584.144-2.16-.216-.647-.576-1.152-1.152-1.512-.936-.576-1.87-.72-2.808-.43-1.008.215-1.943 1.08-2.808 2.446-.936 1.44-1.295 2.592-1.152 3.6.07 1.008.576 1.728 1.44 2.304.72.432 1.44.65 2.16.504.72-.143 1.44-.576 2.16-1.368" id="Fill-1" fill="#221F20"/><path d="M35.063 179.632c-1.08.144-2.23-.07-3.455-.647-1.584-.792-2.664-1.945-3.097-3.385-.503-1.512-.287-3.168.577-4.968.937-1.872 2.16-3.096 3.6-3.672.792-.288 1.585-.432 2.376-.36v1.8c-.432 0-.79.073-1.224.216-.865.288-1.585.936-2.088 1.872l3.31 1.584v1.944L30.888 172c-.504 1.225-.648 2.376-.36 3.313.36.935.936 1.656 1.873 2.088.72.36 1.367.432 2.087.36.144-.072.36-.144.576-.216v2.088zm0-13.032c.72.072 1.44.29 2.16.648 1.512.72 2.448 1.8 2.952 3.313.433 1.44.216 3.17-.72 4.968 0 .144-.143.29-.216.504l-4.177-2.016v-1.944l2.953 1.44c.36-1.008.43-1.8.287-2.447-.216-1.08-.863-1.8-1.8-2.233-.503-.288-.936-.36-1.44-.43V166.6zm1.44 9.936l1.8 1.224c-.863 1.008-1.87 1.584-3.024 1.8-.072.072-.145.072-.217.072v-2.088c.433-.216.937-.504 1.44-1.008z" id="Fill-3" fill="#221F20"/><path d="M39.96 187.48l6.19-16.057 1.802.65-.576 1.51c.504-.287.937-.503 1.44-.648v1.584c-.288.07-.577.216-.864.432-.935.504-1.728 1.512-2.305 3.024-.576 1.512-.647 2.736-.36 3.672.36.936.937 1.584 1.8 1.87.577.218 1.152.29 1.73.146v1.872c-.793.07-1.513-.073-2.233-.288-.647-.288-1.15-.65-1.584-1.153-.433-.43-.72-.935-.864-1.51l-2.16 5.615-2.016-.72zm8.856-14.545c.144-.07.36-.07.503-.07.648-.145 1.296 0 2.088.287 1.008.36 1.728.935 2.304 1.728.576.79.864 1.728.936 2.807 0 1.08-.215 2.232-.648 3.313-.433 1.224-1.08 2.16-1.872 2.952-.792.792-1.656 1.296-2.664 1.51-.216 0-.432.074-.648.074v-1.872c.36-.073.648-.216.936-.36.936-.505 1.656-1.512 2.23-3.096.578-1.44.722-2.664.434-3.672-.36-.937-.937-1.584-1.8-1.945-.576-.214-1.152-.214-1.8-.07v-1.585z" id="Fill-5" fill="#221F20"/><path d="M58.392 175.816l9.72 2.664-.432 1.656-3.888-1.008-2.736 10.295-2.016-.503 2.736-10.37-3.888-1.006.504-1.728z" id="Fill-7" fill="#221F20"/><path d="M71.64 178.912l2.016.36-1.584 9.288 7.344-8.28 2.233.36-2.162 12.24-2.016-.36 1.584-9.288-7.344 8.28-2.232-.36 2.16-12.24z" id="Fill-9" fill="#221F20"/><path d="M90.288 194.176h-.576c-1.296-.072-2.448-.72-3.312-1.943-.936-1.225-1.296-2.88-1.152-5.04.144-1.8.72-3.24 1.656-4.393.936-1.08 2.016-1.655 3.384-1.584v1.73c-.72.07-1.296.43-1.8 1.078-.648.72-.936 1.873-1.08 3.312-.144 1.73.07 3.024.648 3.817.503.792 1.223 1.296 2.088 1.296h.144v1.726zm3.672-17.207l2.088.142-.432 5.976c.504-.504 1.008-.863 1.512-1.08.36-.072.72-.143 1.08-.216v1.657c-.864.07-1.512.36-1.944 1.08-.576.79-.864 1.943-1.008 3.598-.144 1.872.072 3.097.504 3.817.504.647 1.08 1.007 1.872 1.08h.576v1.727h-.288c-.504 0-.937-.144-1.368-.288-.504-.216-1.008-.575-1.656-1.296l-.36 5.832-2.09-.144.363-5.832c-.434.432-.938.72-1.442.936-.36.144-.72.216-1.08.216v-1.727c.863.07 1.512-.29 2.016-1.01.505-.72.792-1.87.864-3.383.145-1.656 0-2.88-.433-3.744-.43-.864-1.08-1.297-2.087-1.368h-.36v-1.73h.288c.648.073 1.224.217 1.656.506.503.288.936.648 1.296 1.152l.432-5.903zm4.248 4.822h.648c1.512.073 2.59.792 3.383 2.088.792 1.296 1.08 2.88.936 4.752-.144 1.872-.648 3.456-1.73 4.536-.934 1.08-2.013 1.584-3.238 1.584v-1.728c.576-.072 1.225-.432 1.73-1.008.646-.79 1.006-2.016 1.15-3.672.072-1.584-.07-2.736-.576-3.527-.504-.865-1.224-1.297-2.088-1.368h-.216v-1.658z" id="Fill-11" fill="#221F20"/><path d="M107.063 181.935l2.088-.07.505 9.43 5.328-9.79 2.305-.073.648 12.385-2.16.142-.433-9.431-5.4 9.718-2.23.145-.65-12.458z" id="Fill-13" fill="#221F20"/><path d="M122.04 180.928l2.088-.287.72 5.33c.648-.073 1.08-.29 1.368-.577.217-.29.504-1.08.864-2.377.216-1.008.504-1.728.72-2.088.217-.287.432-.576.792-.72.288-.143.792-.288 1.584-.432h.432l.215 1.728-.575.072c-.576.073-.935.216-1.01.36-.142.217-.358.72-.574 1.656-.217.792-.432 1.44-.647 1.8-.217.288-.577.648-1.08 1.01.935.07 1.943.79 3.023 2.087l2.808 3.526-2.304.29-2.737-3.458c-.576-.72-1.08-1.15-1.44-1.367-.36-.216-.79-.288-1.224-.216l.793 5.688-2.088.36-1.728-12.384z" id="Fill-15" fill="#221F20"/><path d="M140.904 179.128v-1.944c-.504.072-1.08.144-1.73.36-1.006.216-1.87.648-2.59 1.152-.72.504-1.225 1.008-1.513 1.656-.214.648-.358 1.44-.286 2.304l2.015-.217c0-.936.216-1.656.576-2.088.36-.432 1.007-.79 1.943-1.08.647-.144 1.15-.215 1.584-.144zm0 11.376c-1.368.36-2.448.288-3.313-.145-.863-.432-1.44-1.152-1.727-2.16-.144-.576-.144-1.152 0-1.727.073-.577.36-1.08.72-1.44.36-.433.793-.793 1.296-1.08.36-.217.936-.505 1.728-.793.432-.216.936-.36 1.296-.576v1.872c-.145.144-.36.216-.576.288-.792.36-1.368.65-1.656.863-.29.29-.504.577-.648.866-.072.36-.072.718 0 1.08.144.504.432.935 1.008 1.15.504.29 1.08.29 1.872.072v1.73zm3.96-2.95c-.576.862-1.225 1.51-1.8 1.942-.648.504-1.368.792-2.16 1.008v-1.73h.07c.722-.213 1.442-.574 1.946-1.078.504-.505.792-1.08.936-1.727.144-.506.07-1.226-.217-2.16l-.216-.722c-.504.432-1.37.864-2.52 1.368v-1.872c.936-.432 1.655-.792 2.088-1.08 0-.288-.072-.504-.072-.576-.216-.79-.577-1.367-1.08-1.584-.29-.144-.577-.216-.936-.216v-1.944h.863c.72.072 1.296.29 1.657.576.432.288.72.648 1.008 1.224.144.287.36.936.648 1.8l.72 2.736c.503 1.873.864 3.096 1.08 3.528.215.505.503.936.864 1.368l-2.09.576c-.358-.43-.574-.864-.79-1.44z" id="Fill-17" fill="#221F20"/><path d="M148.896 175.24l1.943-.72 3.528 10.152 5.47-1.944-3.455-10.08 2.017-.72 3.456 10.152 1.295-.432 1.73 4.968-1.657.504-1.152-3.312-9.143 3.168-4.03-11.736z" id="Fill-19" fill="#221F20"/><path d="M162.792 170.128l1.943-.936 4.105 8.496 1.08-11.088 2.088-1.008 5.472 11.232-1.944.864-4.103-8.424-1.154 11.016-2.016 1.008-5.472-11.16z" id="Fill-21" fill="#221F20"/><path d="M182.16 168.328v-1.872c-.505.216-1.01.36-1.368.36-.65 0-1.152-.288-1.584-.935-.288-.432-.36-.937-.288-1.44.143-.505.72-1.152 1.727-1.8l1.513-1.008v-2.088l-3.024 2.016c-1.224.72-1.945 1.656-2.233 2.592-.215 1.008-.07 1.944.505 2.88.504.72 1.15 1.224 2.016 1.512.864.288 1.727.143 2.736-.216zm0 6.048l-.648.432.072-4.032c.07-1.01.216-1.8.576-2.303v5.903zm1.8-15.984l6.84 10.44-1.8 1.152-2.664-4.103-1.008.648c-.576.432-1.01.792-1.224 1.152-.216.36-.288 1.152-.288 2.448l-.072 3.24-1.584 1.008v-5.903c.072-.073.144-.217.216-.29-.072.073-.144.073-.216.145v-1.872c.36-.216.792-.433 1.296-.72l1.944-1.297-2.232-3.456-1.008.648v-2.088l1.8-1.152z" id="Fill-23" fill="#221F20"/><g id="Group-27"><mask id="mask-2" fill="#fff"><use xlink:href="#path-1"/></mask><path d="M156.24 78.544h41.976v14.832h-9.504v17.64h-21.6v-17.64H156.24V78.544z" id="Fill-25" fill="#221F20" mask="url(#mask-2)"/></g><path d="M58.032 107.416c-2.736 0-4.104 0-6.77-1.296V90.352c.578.36 1.297.864 6.77.864 5.4 0 12.168-4.104 12.168-12.24 0-8.064-6.552-12.168-12.168-12.168s-12.24 5.4-12.24 12.168l.36 62.497c-7.128-.29-15.048-4.61-16.417-12.24V76.96c.073-13.824 12.528-26.352 27.65-26.352 15.263 0 29.086 12.168 29.086 28.656 0 16.56-14.903 28.152-28.438 28.152m117.864-38.304V40.384C102.816-.728 0 27.784 0 95.968 0 172 102.816 191.008 175.896 154v-30.096c-27.073 9.576-73.08 6.84-73.08-27.36 0-34.272 40.176-39.024 73.08-27.432" id="Fill-28" fill="#221F20"/><path d="M10.224 24.544l8.64-5.832.432.648v4.032l-1.152-1.728-4.968 3.312.504.792c.792 1.152 1.8 2.88 3.024 5.184 1.153 2.232 1.944 4.248 2.233 6.048l.36-.288v2.448l-.65.432.65.936v3.456l-.073.072-3.384-5.04 1.152-.72c-.072-2.52-1.8-6.408-5.4-11.664l-1.368-2.088zm9.072 15.984l1.657 2.376-1.657 1.08v-3.456zm0-21.168l8.064 11.88 1.296-.864 3.384 5.04-1.727 1.152-2.233-3.312-8.784 5.904v-2.448l6.192-4.176-6.192-9.144V19.36z" id="Fill-30" fill="#221F20"/><path d="M30.672 24.616c-1.008-2.088-1.15-3.888-.433-5.4.577-1.296 1.583-2.304 2.952-2.952.936-.432 1.8-.648 2.736-.576v1.872c-.65-.072-1.368 0-2.016.288-.936.432-1.584 1.224-1.872 2.232-.288 1.008-.072 2.232.576 3.672.648 1.44 1.512 2.376 2.448 2.808.288.072.576.216.864.216v1.944c-.576 0-1.224-.144-1.8-.36-1.44-.576-2.592-1.8-3.456-3.744zm5.256-8.928c.576 0 1.152.144 1.8.36 1.44.576 2.592 1.728 3.385 3.528.72 1.44 1.007 2.664.935 3.744 0 1.008-.36 1.944-.935 2.808-.65.864-1.44 1.512-2.45 1.944-.935.432-1.87.648-2.735.648v-1.944c.648.144 1.368.072 2.017-.288.935-.432 1.584-1.152 1.872-2.16.288-1.008.07-2.304-.578-3.744-.648-1.44-1.512-2.304-2.448-2.736-.288-.144-.576-.216-.864-.288v-1.872z" id="Fill-32" fill="#221F20"/><path d="M50.904 3.88v2.592c-.433.216-.937.36-1.585.576-1.656.503-2.736 1.08-3.24 1.584-.504.503-.72 1.152-.792 1.944 0 .792.144 1.728.43 2.88.29-.936.722-1.656 1.226-2.304.576-.576 1.295-1.008 2.16-1.296.575-.216 1.224-.288 1.8-.288v1.8c-.433-.072-.864 0-1.368.144-1.08.36-1.8 1.08-2.16 2.088-.288 1.08-.216 2.232.215 3.672.434 1.368 1.082 2.304 2.018 2.808.432.216.863.36 1.296.432v1.87c-.576 0-1.08-.07-1.585-.286-.937-.36-1.8-1.008-2.593-1.872-.72-.864-1.51-2.592-2.303-5.04-1.008-3.168-1.152-5.4-.504-6.84.72-1.44 2.16-2.52 4.392-3.24 1.367-.432 2.16-.72 2.304-.792.143-.144.288-.288.288-.432zm0 5.688c.863 0 1.728.216 2.52.648 1.368.72 2.376 2.016 2.952 3.816.432 1.368.576 2.592.36 3.672-.216 1.008-.648 1.944-1.152 2.664-.576.648-1.44 1.223-2.664 1.656-.72.216-1.37.288-2.016.36V20.51c.504.072 1.008 0 1.512-.144 1.008-.288 1.655-1.008 2.016-2.016.36-1.08.287-2.304-.144-3.672-.432-1.224-1.01-2.16-1.872-2.736-.504-.36-.937-.504-1.512-.576v-1.8zm0-5.688l1.728-.576c.216.864.216 1.44 0 1.87-.145.362-.432.722-.792.938-.216.072-.504.216-.936.36V3.88z" id="Fill-34" fill="#221F20"/><path d="M63.72 23.176L59.832 6.4l1.872-.432.36 1.584c.288-.72.648-1.295 1.152-1.728.504-.432 1.152-.792 1.944-.936.432-.144.792-.144 1.224-.144v1.728c-.36-.07-.72 0-1.08.072-.863.144-1.512.792-2.016 1.728-.504 1.008-.576 2.232-.216 3.817.36 1.583.936 2.662 1.8 3.238.432.36.937.576 1.512.648v1.656c-.144 0-.288-.072-.432-.072-.576-.144-1.152-.432-1.584-.792l1.368 5.905-2.016.503zm2.664-18.432c.576 0 1.152.072 1.656.288.936.36 1.728.936 2.304 1.872.648.864 1.08 1.873 1.368 3.024.288 1.225.36 2.376.145 3.528-.217 1.08-.72 1.945-1.44 2.737-.72.72-1.585 1.15-2.52 1.367-.505.144-1.01.144-1.513.072v-1.656c.288.072.65 0 1.008-.072.936-.216 1.584-.792 2.088-1.656.432-.936.504-2.232.144-3.816-.36-1.584-.936-2.664-1.727-3.312-.505-.36-1.01-.576-1.513-.648V4.744z" id="Fill-36" fill="#221F20"/><path d="M76.104 9.208c-.288-2.232.144-4.032 1.296-5.328.936-1.008 2.23-1.656 3.743-1.8.216-.072.505-.072.793-.072v1.728c-.217 0-.432.072-.577.072-1.08.144-1.873.648-2.448 1.512-.65.864-.865 2.088-.65 3.672.217 1.584.72 2.664 1.513 3.384.576.576 1.296.864 2.16.936v1.728c-1.44 0-2.592-.36-3.6-1.224-1.223-.936-1.944-2.52-2.23-4.608zm5.832-7.2c1.367 0 2.52.36 3.527 1.224 1.224 1.008 1.945 2.448 2.233 4.392.143 1.584.07 2.88-.288 3.816-.36 1.008-.937 1.8-1.8 2.376-.864.648-1.8 1.008-2.88 1.152-.288.072-.577.072-.792.072v-1.728c.144 0 .36 0 .575-.072 1.01-.144 1.873-.648 2.45-1.512.576-.864.792-2.088.576-3.744-.217-1.512-.65-2.592-1.44-3.312-.65-.576-1.37-.864-2.16-.936V2.008z" id="Fill-38" fill="#221F20"/><path d="M92.52 1.144L97.344 1v1.8H94.61l.07 3.528 2.232-.072h.43l.002 1.728h-.072l-2.52.072.072 3.744 2.52-.072v1.728l-4.608.072-.216-12.384zM97.344 1c1.224 0 2.09.072 2.663.288.576.216 1.08.504 1.513 1.08.433.504.648 1.152.648 1.872.072.576-.073 1.152-.29 1.584-.287.432-.645.792-1.08 1.08.578.216 1.08.576 1.442 1.08.43.576.577 1.152.648 1.944-.072 1.152-.505 2.016-1.225 2.592-.79.576-1.87.936-3.31.936h-1.01v-1.728h.216c1.224 0 2.016-.144 2.447-.432.433-.288.648-.792.72-1.44-.072-.432-.144-.792-.43-1.152-.29-.288-.578-.504-1.01-.576-.43-.072-1.08-.144-1.944-.144V6.256c.72 0 1.153-.072 1.44-.144.36-.144.65-.288.865-.576.288-.288.43-.648.43-1.08 0-.648-.287-1.08-.72-1.296-.43-.288-1.08-.36-2.014-.36V1z" id="Fill-40" fill="#221F20"/><path d="M106.632 7.192c.143-2.304.864-3.96 2.16-5.04 1.08-.792 2.304-1.225 3.672-1.152v1.728c-.936 0-1.728.36-2.447 1.007-.72.793-1.154 1.945-1.225 3.53-.072 1.583.216 2.807.863 3.67.65.793 1.513 1.225 2.593 1.297h.216v1.728h-.36c-1.728-.072-3.096-.72-4.104-1.872-1.008-1.152-1.44-2.808-1.368-4.896zM112.464 1h.36c1.656.072 3.025.72 4.104 1.872 1.01 1.152 1.44 2.736 1.368 4.752-.072 1.584-.433 2.808-.937 3.744-.503.864-1.224 1.512-2.232 2.015-.792.36-1.728.577-2.664.577v-1.728c.936 0 1.728-.36 2.448-1.08.72-.72 1.152-1.944 1.224-3.528.072-1.584-.216-2.736-.863-3.6-.65-.792-1.513-1.225-2.593-1.296h-.216V1z" id="Fill-42" fill="#221F20"/><path d="M124.775 2.44l9.648 1.512-1.944 12.312-2.017-.36L132.12 5.32l-5.544-.864-.937 6.12c-.217 1.44-.432 2.376-.577 2.808-.215.432-.504.792-1.008 1.08-.43.288-1.08.36-1.872.216-.504-.07-1.008-.216-1.655-.36l.288-1.728.936.144c.43.072.72.072.935 0 .145-.072.288-.144.433-.36.07-.144.216-.792.36-1.872l1.295-8.064z" id="Fill-44" fill="#221F20"/><path d="M140.256 5.392l2.017.504-1.08 4.752 1.8.36v1.8l-2.16-.504-.936 4.032 2.16.504c.36.072.647.144.935.144v1.8c-.143 0-.288 0-.432-.072l-5.113-1.152 2.81-12.168zm2.736 5.616l.792.216c1.728.36 2.95 1.008 3.672 1.872.792.864 1.08 1.872.792 3.024-.216 1.08-.864 1.8-1.727 2.376-.865.504-2.016.576-3.528.288v-1.8c.865.144 1.512.144 1.945 0 .647-.216 1.007-.648 1.15-1.296.146-.504.073-1.08-.287-1.584-.288-.504-1.15-.864-2.592-1.224l-.216-.072v-1.8z" id="Fill-46" fill="#221F20"/><path d="M155.592 9.64l2.017.72-1.8 4.896 5.543 1.944 1.727-4.824 2.016.72-4.247 11.664-2.018-.72 1.872-5.184-5.47-2.016-1.874 5.184-2.016-.72 4.248-11.664z" id="Fill-48" fill="#221F20"/><path d="M171.792 19.36c-.288.144-.576.432-.864.792l-1.728-1.225c.575-.72 1.153-1.15 1.8-1.44.216-.144.504-.215.792-.287v2.16zm0 10.224h-1.008c-.792-.072-1.512-.36-2.305-.72-1.224-.576-1.944-1.368-2.304-2.304-.36-.936-.288-1.872.143-2.808.288-.504.648-.936 1.152-1.296.43-.288.936-.504 1.51-.576.505-.072 1.08 0 1.658.072.288.072.648.216 1.152.36v1.8c-.792-.216-1.296-.36-1.656-.36-.432 0-.72.072-1.08.216-.288.216-.504.432-.72.79-.216.506-.288 1.01-.072 1.514.215.504.72 1.008 1.44 1.368.72.36 1.367.504 2.088.504v1.44zm1.584-.216c-.576.072-1.08.216-1.584.216v-1.44h.07c.722 0 1.37-.288 1.946-.648.36-.36.793-.936 1.224-1.728l.36-.72c-.79-.072-1.944-.36-3.455-.864l-.145-.073v-1.798c.216.07.432.144.648.216 1.656.576 2.88.936 3.672 1.08.144-.29.288-.433.288-.504.36-.792.503-1.37.288-1.872-.288-.72-.865-1.296-1.8-1.728-.864-.432-1.656-.648-2.233-.577-.287.073-.575.217-.863.433V17.2c.432-.072.936-.072 1.44 0 .864.072 1.728.36 2.736.864.935.504 1.656 1.008 2.088 1.512.504.504.793 1.008.864 1.512.143.503.143 1.008 0 1.584-.145.36-.433.936-.792 1.8l-1.296 2.448c-.936 1.8-1.44 2.88-1.584 3.384-.143.504-.216 1.08-.216 1.584l-1.944-1.008c0-.504.144-1.008.288-1.512z" id="Fill-50" fill="#221F20"/><path d="M187.85 38.368l-1.01 1.512-1.727-1.224 2.736-3.96-1.01-.72c-.648-.432-1.15-.648-1.584-.648-.36-.072-1.15.144-2.303.648l-3.096 1.224-2.16-1.512 3.744-1.512c1.152-.432 2.09-.504 2.736-.288-.936-.792-1.44-1.656-1.512-2.52-.072-.936.144-1.728.648-2.52.576-.864 1.368-1.44 2.377-1.512.72-.144 1.438 0 2.16.36v2.016c-.65-.36-1.226-.504-1.586-.432-.504.144-.936.36-1.224.792-.43.648-.504 1.224-.288 1.8.288.648 1.008 1.296 2.088 2.088l1.01.648v5.76zm5.974-8.784l-5.975 8.784v-5.76l.934.648 2.304-3.456-2.52-1.656c-.215-.144-.504-.36-.72-.432v-2.016c.36.144.792.36 1.152.648l4.824 3.24z" id="Fill-52" fill="#221F20"/></g></g></svg>