<svg width="22" height="30" viewBox="0 0 22 30" xmlns="http://www.w3.org/2000/svg"><g id="Page-1" fill="none" fill-rule="evenodd"><g id="file" fill="#000"><path d="M16.5 17.5h-11c-.674 0-1.222.56-1.222 1.25S4.826 20 5.5 20h11c.674 0 1.222-.56 1.222-1.25s-.548-1.25-1.222-1.25" id="Fill-1"/><path d="M16.5 22.5h-11c-.674 0-1.222.56-1.222 1.25S4.826 25 5.5 25h11c.674 0 1.222-.56 1.222-1.25s-.548-1.25-1.222-1.25" id="Fill-3"/><path d="M4.278 13.75c0 .69.548 1.25 1.222 1.25h11c.674 0 1.222-.56 1.222-1.25s-.548-1.25-1.222-1.25h-11c-.674 0-1.222.56-1.222 1.25" id="Fill-5"/><path d="M14.667 8.75h4.89v18.125c0 .345-.275.625-.613.625H3.056c-.337 0-.612-.28-.612-.625V3.125c0-.344.275-.625.612-.625h10.388v5c0 .69.55 1.25 1.223 1.25m6.89-2.2L15.598.452C15.358.164 15.02 0 14.65 0H3.056C1.37 0 0 1.402 0 3.125v23.75C0 28.598 1.37 30 3.056 30h15.888C20.63 30 22 28.598 22 26.875V7.5c0-.365-.16-.71-.442-.95" id="Fill-7"/></g></g></svg>