<svg width="22" height="28" viewBox="0 0 22 28" xmlns="http://www.w3.org/2000/svg"><g id="Page-1" fill="none" fill-rule="evenodd"><g id="pdf" fill="#1A1918"><path d="M1.728 0C.775 0 0 .775 0 1.728v24.585C0 27.266.775 28.04 1.728 28h18.236c.952.04 1.728-.734 2.036-1.687V7.13L14.562 0H1.728zM15 2l6 5h-6V2zm5.437 25H1.562c-.292 0-.53-.24-.53-.532V1.532c0-.293.238-.532.53-.532H13.97v6.975h7v18.493c0 .293-.24.532-.533.532z" id="Imported-Layers"/><path d="M15.19 19.382h1.707v-.922H15.19v-1.538h1.787V16h-2.99v6h1.203v-2.618zM11.173 16h-2.01v6h1.962c2.057 0 1.922-2.11 1.922-3.033 0-1.87-.295-2.967-1.874-2.967zm-.224 5.077h-.583v-4.155h.622c.837 0 .837.973.837 2.078 0 1.504-.144 2.077-.878 2.077zM6.884 16h-2.17v6H5.92v-2.443h.892c1.41 0 1.603-1.08 1.603-1.762 0-1.097-.43-1.795-1.53-1.795zm-.295 2.634h-.67v-1.712h.605c.542 0 .67.416.67.906 0 .4-.248.806-.606.806z" id="Path"/></g></g></svg>