<svg width="152" height="71" viewBox="0 0 152 71" xmlns="http://www.w3.org/2000/svg"><g fill="#575C65" fill-rule="evenodd"><path d="M151.792 61.364h-20.84v-1.09h19.75V9.823h-19.75v-1.09h20.84v52.63M90.42 61.364H.21V8.734H90.42v1.09H1.3v50.45h89.12v1.09"/><path d="M6.505 18.298H7.85v6.432H6.506v-6.432zM10.728 24.837c-1.666 0-1.978-.98-1.907-2.093h1.347c0 .614.026 1.13.766 1.13.454 0 .677-.293.677-.73 0-1.158-2.71-1.23-2.71-3.144 0-1.007.483-1.81 2.122-1.81 1.31 0 1.96.59 1.87 1.934h-1.31c0-.48-.08-.97-.622-.97-.437 0-.696.24-.696.685 0 1.22 2.71 1.113 2.71 3.135 0 1.666-1.222 1.862-2.246 1.862M13.873 21.514c0-1.702 0-3.323 2.218-3.323 2.22 0 2.22 1.622 2.22 3.324 0 1.684 0 3.323-2.22 3.323-2.217 0-2.217-1.64-2.217-3.323zm3.073 0c0-1.648-.098-2.36-.855-2.36-.756 0-.854.712-.854 2.36s.098 2.36.855 2.36c.758 0 .856-.712.856-2.36zM22.3 23.27c0 .16.02.32.09.436.07.115.187.196.374.196.623 0 .552-.508.552-1.987-.285.285-.632.41-1.033.41-.954 0-1.32-.855-1.32-1.684 0-1.22.376-2.208 1.774-2.208 1.844 0 1.835 1.47 1.835 3.216 0 1.532-.026 3.163-1.844 3.163-1.078 0-1.7-.365-1.675-1.54H22.3zm.455-1.8c.534 0 .56-.722.56-1.105 0-.392-.016-1.078-.55-1.078-.545 0-.545.72-.545 1.105 0 .383 0 1.078.535 1.078zM28.528 21.603c0 1.95-.125 3.208-1.8 3.208s-1.8-1.256-1.8-3.207c0-2.38.268-3.17 1.8-3.17 1.533 0 1.8.79 1.8 3.17zm-2.343.018c0 1.88.044 2.282.543 2.282.5 0 .544-.4.544-2.28 0-1.917-.01-2.282-.544-2.282s-.543.365-.543 2.28zM32.484 21.603c0 1.95-.125 3.208-1.8 3.208s-1.8-1.256-1.8-3.207c0-2.38.268-3.17 1.8-3.17s1.8.79 1.8 3.17zm-2.344.018c0 1.88.045 2.282.544 2.282.5 0 .543-.4.543-2.28 0-1.917-.008-2.282-.543-2.282s-.544.365-.544 2.28zM33.098 19.474c.446-.25.882-.543 1.203-.962h1.195v6.218H34.15v-4.784c-.322.267-.687.5-1.052.695v-1.166M6.582 42.185v-7.09h2.63c1.13 0 2.063.325 2.063 1.837 0 .815-.403 1.404-1.208 1.56v.02c1.05.148 1.326.825 1.326 1.797 0 1.797-1.56 1.875-2.19 1.875h-2.62zm1.482-4.193h.992c.324 0 .776-.216.776-.903 0-.52-.354-.904-.855-.904h-.913v1.806zm0 3.103h.825c.313 0 1.02-.01 1.02-1.002 0-.628-.235-1.01-.982-1.01h-.864v2.012zM17.352 35.096v5.027c0 1.06-.6 2.18-2.405 2.18-1.63 0-2.415-.845-2.415-2.18v-5.027h1.482v4.93c0 .873.373 1.217.913 1.217.648 0 .943-.433.943-1.218v-4.93h1.482M20.013 42.185H18.53v-7.09h2.74c1.01 0 1.66.65 1.66 1.857 0 .903-.354 1.58-1.317 1.738v.02c.324.038 1.287.117 1.287 1.393 0 .452.03 1.787.167 2.082h-1.454c-.196-.432-.157-.913-.157-1.375 0-.844.08-1.56-1.06-1.56h-.383v2.935zm0-4.025h.658c.59 0 .757-.59.757-1.04 0-.68-.285-.934-.756-.934h-.657v1.974zM24.02 42.185v-7.09h3.867v1.09H25.5v1.748h2.2v1.09h-2.2v2.072h2.466v1.09H24.02M28.388 42.185l1.964-7.09h1.953l1.925 7.09h-1.56l-.394-1.57h-2.023l-.402 1.57H28.39zm2.857-5.724h-.02l-.677 3.064h1.414l-.717-3.063zM39.718 35.096v5.027c0 1.06-.6 2.18-2.406 2.18-1.63 0-2.415-.845-2.415-2.18v-5.027h1.483v4.93c0 .873.373 1.217.913 1.217.648 0 .942-.433.942-1.218v-4.93h1.483M42.536 35.096h1.54l1.1 5.155h.02l1.237-5.154h1.463l-1.875 7.09h-1.737l-1.747-7.09M48.564 42.185v-7.09h3.868v1.09h-2.385v1.748h2.2v1.09h-2.2v2.072h2.464v1.09h-3.946M54.926 42.185h-1.482v-7.09h2.74c1.01 0 1.658.65 1.658 1.857 0 .903-.353 1.58-1.315 1.738v.02c.324.038 1.286.117 1.286 1.393 0 .452.03 1.787.167 2.082h-1.453c-.197-.432-.158-.913-.158-1.375 0-.844.078-1.56-1.06-1.56h-.384v2.935zm0-4.025h.658c.59 0 .756-.59.756-1.04 0-.68-.285-.934-.756-.934h-.658v1.974zM58.932 35.096h1.483v7.09h-1.483v-7.09zM65.883 35.096v1.178h-1.65v5.91h-1.482v-5.91h-1.648v-1.178h4.78M65.443 42.185l1.964-7.09h1.954l1.925 7.09h-1.56l-.394-1.57h-2.02l-.404 1.57h-1.463zM68.3 36.46h-.02l-.677 3.064h1.414L68.3 36.46zM73.907 42.303c-1.836 0-2.18-1.08-2.102-2.308h1.483c0 .678.03 1.248.844 1.248.5 0 .747-.325.747-.806 0-1.276-2.986-1.355-2.986-3.466 0-1.108.53-1.992 2.337-1.992 1.444 0 2.16.648 2.062 2.13H74.85c0-.53-.09-1.07-.688-1.07-.48 0-.766.266-.766.757 0 1.345 2.985 1.227 2.985 3.456 0 1.837-1.344 2.053-2.473 2.053M6.432 48.852c0-1.667 0-3.255 2.173-3.255 1.344 0 1.886.742 1.833 2.095h-1.29c0-.838-.15-1.152-.543-1.152-.74 0-.837.698-.837 2.312 0 1.615.096 2.313.837 2.313.61 0 .585-.785.603-1.283h1.3c0 1.685-.672 2.226-1.903 2.226-2.173 0-2.173-1.606-2.173-3.256M12.42 49.996c0 .524.017 1.31.558 1.31.436 0 .523-.42.523-.786h1.25c-.018.48-.175.872-.472 1.143-.288.27-.724.427-1.3.427-1.59 0-1.798-.97-1.798-2.347 0-1.204.175-2.235 1.798-2.235 1.658 0 1.84 1.074 1.798 2.488H12.42zm1.125-.69c0-.427.018-1.038-.567-1.038-.567 0-.56.663-.56 1.038h1.127zM16.818 47.596v.567h.017c.227-.506.646-.655 1.144-.655v1.1c-1.084-.07-1.1.56-1.1.995v2.4h-1.232v-4.407h1.17M18.057 47.596h.498v-.7l1.23-.548v1.248h.637v.76h-.637v2.355c0 .333-.01.55.393.55.078 0 .157 0 .218-.016v.76c-.166.017-.34.043-.637.043-1.066 0-1.205-.707-1.205-.978v-2.715h-.498v-.76M21.085 45.702h1.23v.97h-1.23v-.97zm0 1.894h1.23v4.407h-1.23v-4.407zM25.3 46.46c-.497-.034-.6.158-.6.603v.533h.575v.76H24.7v3.647h-1.232v-3.648h-.55v-.76h.56c-.01-1.265-.115-1.937 1.386-1.937.15 0 .288.01.437.018v.785M25.938 45.702h1.23v.97h-1.23v-.97zm0 1.894h1.23v4.407h-1.23v-4.407zM30.502 49.167c0-.655-.166-.873-.55-.873-.523 0-.567.462-.567 1.38 0 1.343.114 1.63.567 1.63.384 0 .568-.348.568-.924h1.23c0 1.195-.646 1.71-1.798 1.71-1.588 0-1.797-.97-1.797-2.347 0-1.204.174-2.235 1.797-2.235 1.135 0 1.78.507 1.78 1.66h-1.23M35.965 51.183c0 .27.035.55.062.82h-1.144l-.052-.585h-.017c-.26.454-.62.672-1.152.672-.854 0-1.168-.637-1.168-1.405 0-1.457 1.126-1.518 2.27-1.5v-.34c0-.377-.053-.647-.498-.647-.428 0-.463.323-.463.672h-1.203c0-.533.166-.873.454-1.074.28-.21.68-.288 1.153-.288 1.562 0 1.762.672 1.762 1.475v2.2zm-2.27-.55c0 .314.054.698.455.698.725 0 .61-.976.61-1.457-.61.027-1.064-.026-1.064.76zM36.49 47.596h.497v-.7l1.23-.548v1.248h.637v.76h-.637v2.355c0 .333-.01.55.393.55.078 0 .157 0 .218-.016v.76c-.166.017-.34.043-.637.043-1.064 0-1.203-.707-1.203-.978v-2.715h-.498v-.76M39.517 45.702h1.23v.97h-1.23v-.97zm0 1.894h1.23v4.407h-1.23v-4.407zM41.734 49.743c0-1.204.175-2.235 1.798-2.235s1.798 1.03 1.798 2.235c0 1.378-.21 2.347-1.798 2.347s-1.798-.97-1.798-2.347zm2.365-.07c0-.917-.044-1.38-.568-1.38-.524 0-.567.463-.567 1.38 0 1.344.113 1.632.567 1.632.454 0 .567-.288.567-1.632zM47.433 48.04h.018c.123-.2.27-.33.437-.41.174-.087.375-.122.602-.122.584 0 1.1.35 1.1.96v3.535h-1.232v-3.037c0-.393-.07-.698-.462-.698-.393 0-.463.305-.463.698v3.037h-1.23v-4.407h1.23v.445M131.515 9.2c-2.202-3.34-5.766-6.02-9.608-7.36C118.333.765 114.47.19 110.544.19c-3.923 0-7.788.574-11.36 1.65-3.843 1.34-7.406 4.02-9.61 7.36-3.635 5.317-6.934 15.597-7.078 25.835v.028c.144 10.237 3.443 20.518 7.08 25.835 2.202 3.338 5.765 6.01 9.608 7.347a38.927 38.927 0 0 0 11.278 1.665h.166c3.924 0 7.623-.574 11.195-1.654 3.844-1.34 7.49-4.02 9.692-7.358 3.635-5.317 6.934-15.598 7.078-25.835v-.028c-.144-10.238-3.443-20.518-7.078-25.836zm.42 47.898c-2.504 5.69-6.334 9.153-11.96 10.69a38.097 38.097 0 0 1-9.476 1.176c-3.27 0-6.465-.4-9.495-1.176-5.627-1.537-9.458-5-11.964-10.69-2.265-4.982-4.612-14.34-4.487-22.05-.125-7.71 2.222-17.067 4.488-22.048 2.507-5.69 6.338-9.153 11.965-10.692a38.31 38.31 0 0 1 9.494-1.176c3.265 0 6.444.4 9.475 1.176C125.6 3.848 129.43 7.31 131.935 13c2.27 4.98 4.617 14.34 4.492 22.048.125 7.71-2.222 17.068-4.49 22.05zM114.4 19.18c-.376-.634-.07-.068-.46-.803"/><path d="M124.295 16.8c-1.09-2.48-3.26-4.3-5.9-5.055a30.44 30.44 0 0 0-7.862-1.046h-.088c-2.692 0-5.38.375-7.86 1.045-2.64.754-4.812 2.574-5.902 5.055-2.367 5.08-3.923 12.392-3.923 19.58 0 7.187 1.556 14.497 3.923 19.578 1.09 2.48 3.26 4.3 5.9 5.055 2.48.67 5.17 1.046 7.862 1.046h.088c2.692 0 5.382-.377 7.862-1.047 2.64-.755 4.81-2.574 5.9-5.055 2.367-5.08 3.924-12.39 3.924-19.58 0-7.186-1.558-14.497-3.925-19.578zm-4.563 14.563c.073.003.42-.07.43-.29v-4.537c.625-.145 1.25-.357 1.843-.48v2.736c.355-.04.534-.088.97-.153l.003 3.606-1.13.167-.345 1.453H117.5l-.596-1.297c-.968-.09-1.04-.09-2.012-.157.918-1.184 1.855-2.358 2.493-3.653v-1.845l1.803-.232v4.372c0 .154.224.308.448.308h.096zm-2.35-16.684c.45-.126 1.06-.067 1.44.268.514.368.66.994.537 1.575-.356 1.257-1.757 1.493-2.897 1.795l-.63-.853c.236-1.084.356-2.332 1.548-2.786zm-3.497 5.027l.458.803-1.143 1.25c-.306-.292-.334-.325-.642-.647.586-.615.645-.682 1.327-1.406zm-14.162-1.71l.004-.007c.202.6.58 1.026 1.174 1.306-.066-.314-.345-.604-.435-.94-.257-.647-.235-1.575.19-2.145.302-.446.733-.63 1.208-.78-.18.535-.235 1.18-.015 1.726.31-.242.326-.258.566-.487.092-.09.133-.12.21-.175.44.938.94 2.236.65 3.33l-.183.476c-.066-.775-.193-1.145-.713-1.43-.066.453.22.774.29 1.363.21.912.042 1.808-.52 2.336h-1.453c-1.103-1.185-1.184-2.965-.97-4.574zm3.34 5.99h-.77l-.336 2.77a3.1 3.1 0 0 0-1.127-.647 39.667 39.667 0 0 1-.324-2.122h-.75v-.827c1.295-.003 2.01.003 3.306.003v.825zm-5.62 11.017l8.892-.002v2.584l-8.89.003v-2.586zm3.442-5.187c.368-.1.726.134 1.016.347-.046 1.5-.046 1.485-.077 3.053h-.827l-.007-.25c-.028-1.193-.08-1.974-.105-3.15zm.945 17.863c-.517.363-.998.397-1.504.394a2.79 2.79 0 0 1-.63-.076c-.384-.095-.93-.304-1.25-.82l-.07-.127-.056-.153-.07-.168-.03-.256.005-4.834c-.04-.608-.272-.62-.767-.985l.18-.065 1.954-.637c.28.302.347.693.37 1.095v3.777c-.004.243.205.382.484.397.336 0 .476-.126.504-.39.028-1.692-.028-2.166 0-3.705.042-.514.503-1.03.94-1.152.54-.257 1.197-.158 1.686.08.865.418.824 2.12.816 3.504-.342-.224-.397-.252-.74-.344a1.06 1.06 0 0 0-.86.167c-.278.257-.308.51-.314.96-.02 1.605.157 2.708-.648 3.337zm1.1 5.627c-.427-.28-.524-.554-.67-.938-.36-1.643 1.62-2.235 2.09-3.6.367-2.278.48-4.68 2.065-6.457.157-3.353 1.24-6.314 3.62-8.75-.11-.748-.424-1.407-.646-2.11-.314-.014-.526-.07-.807-.325a1.758 1.758 0 0 1-.345-.86c-.828 1.028-1.857 2.18-2.985 2.87-.208.117-.473-.127-.85-.48-1.384-1.094-1.62-3.575-3.73-3.463-.962-.324-.916-1.453-1.073-2.302.357-.257.933-.245 1.363-.078 1.318.704 2.196 2.19 3.44 3.184.335.266.635.615.942.742.817-.703 1.475-1.307 2.025-2.396.386-.615 1.023-.883 1.727-.894l.502-.592-.27-1.476a10.972 10.972 0 0 1-1.283-2.088c.18-.85.29-1.833 1.15-2.302.56-.346 1.02.446 1.476-.057a.987.987 0 0 1 .857.213c.347.603.762 1.206.785 1.91-.215.683-.537 1.32-.86 1.957-.076.145-.272.19-.403.29.078.29.144.614.346.837.256.056.495.1.805.046.245-.75 1.05-1.083 1.72-1.286l1.474-.96c-.233-1.118.48-2.1.08-3.22-.84-.39-1.08-1.345-1.262-2.088.132-.47.362-.96.697-1.352l.05.056c.805.94 1.542 1.9 1.798 3.06.146 1.487.292 3.008.19 4.56-.792.793-1.753 1.263-2.66 1.855l-.67 1.285c-.077 1.33-.468 2.525-.67 3.81.57 1.553 1.25 3.62.75 5.062-.38.858-1.19 1.325-1.79 1.8l-1.506 1.205c1.512 1.67 1.147 3.564 1.214 5.984-.015.585 1.03 1.073.472 1.74-.466.743-1.195 1.35-1.072 2.334-.463.778-1.574.946-2.096.94a.19.19 0 0 1-.204-.192c.113-.402.424-.714.592-1.094.536-.826.29-1.967.96-2.738-.553-1.797-1.386-3.464-1.61-5.385l-.02-.117c-.445.88-.2 1.744.035 2.438-1.487 1.877-3.098 3.678-3.098 6.148-.637 1.128-1.54 2.157-2.01 3.353-.162.198-.456.023-.638-.08zm9.865-5.932c.872.033 1.754.76 2.088 1.575.347.827.212 1.91-.323 2.603-.67.816-1.598 1.24-2.683 1.05-.68-.155-1.35-.57-1.742-1.207.56-.185 1.35-.507 1.508-1.05-.04-.84.537-1.518.972-2.187.215-.296.244-.47.18-.785zm.826-.75l.01-7.628c1.09-.017 1.44.013 2.574-.007v7.634h-2.583zm-5.542 11.642c-.704.514-1.877.626-2.66.19-.446-.213-.847-.65-1.094-1.073-.19-.41-.26-.556-.28-.974h5.084c-.01.706-.412 1.398-1.05 1.857zm3.486.19h-1.753v-3.14l-2.726.003v-1.264l2.736-.002.862-1.017c.42.49.45.524.885 1.017h2.733v1.266l-2.736-.004v3.14zm5.48-1.073c-.246.424-.648.86-1.094 1.073-.782.436-1.956.324-2.66-.19-.637-.46-1.04-1.15-1.052-1.856h5.086c-.02.418-.09.565-.28.974zm3.847-6.696c-.272.302-.37.413-.693.725l-.647-.78v-2.17c-.917.446-.693 1.745-.693 2.872-.544-.443-.82-.694-1.34-1.183-.293-1.3.487-2.04 1.072-2.95l2.3 2.2v1.286zm-3.433-10.633c.413-.326.755-.607 1.253-.996-.037.988-.177 1.993.3 2.58a461.072 461.072 0 0 0 3.275 3.24c.39.425.703 1.028.446 1.588a4.96 4.96 0 0 1-.467.815c0-.545-.238-.856-.548-1.163-1.428-1.405-3.9-3.36-4.1-4.19-.213-.558-.146-1.228-.158-1.875zm5.38 10.284c-.412.323-.754.605-1.25.993.034-.988.175-1.994-.303-2.58a544.516 544.516 0 0 0-3.273-3.24c-.39-.425-.704-1.03-.446-1.588.123-.268.29-.57.47-.816 0 .544.235.855.547 1.162 1.43 1.404 3.9 3.36 4.1 4.19.213.56.147 1.23.157 1.877zm-1.13-7.15l-2.303-2.2v-1.285c.275-.302.372-.414.693-.727l.65.782v2.17c.915-.446.69-1.745.69-2.873.546.444.82.694 1.342 1.184.292 1.3-.49 2.04-1.073 2.95zm2.023-5.587l-8.892-.014v-2.586l8.892-.002v2.6z"/><path d="M111.44 67.146c-.023-1.41 1.356-2.124 2.225-3.06.236-.226.325-.673.154-1.044-.103-.233-.257-.345-.443-.392-.305-.07-.564-.024-.756.144-.27.25-.344.576-.332.928l-.962.057a1.83 1.83 0 0 1 .372-1.458c.45-.482 1.128-.618 1.787-.573.526.083 1.14.404 1.358.955.278.596.185 1.36-.258 1.864-.57.607-1.315.937-1.787 1.622l2.44-.144.05.87-3.847.228M102.784 61.05l-.014.046-1.59 4.87-1.014-.332 1.09-3.337.018-.056c-.403-.14-.892-.28-1.287-.42l.207-.63c.514.134 1.043.22 1.49-.15.16-.126.19-.16.277-.26l.824.27M122.09 63.748c-.128-.48-.394-.865-.93-1.02l-.31-.067c.317-.223.61-.675.503-1.115-.073-.502-.437-.823-.89-.997-.4-.12-.867-.1-1.31.017-.446.102-.87.302-1.165.594-.32.365-.495.817-.326 1.296.11.44.58.702.964.754l-.24.204c-.407.386-.46.85-.35 1.335.12.538.553.96 1.08 1.114.396.103.878.1 1.342-.015.462-.116.892-.336 1.194-.61.394-.385.58-.957.437-1.492zm-3.354-1.39c-.12-.212-.122-.568.094-.78.126-.132.31-.228.506-.275.196-.05.404-.05.576.008.288.09.453.405.445.647a.627.627 0 0 1-.21.455c-.125.11-.297.19-.48.23a1.11 1.11 0 0 1-.535.02.634.634 0 0 1-.396-.304zm2.132 2.347c-.132.15-.363.267-.612.328-.25.064-.508.068-.693-.005a.783.783 0 0 1-.487-.515c-.097-.333 0-.686.287-.886.12-.085.298-.17.492-.22.194-.045.392-.053.537-.034.348.043.6.31.667.65a.787.787 0 0 1-.192.682zM108.92 65.58c.02-.497-.117-.944-.584-1.252l-.275-.156c.37-.12.783-.465.814-.916.08-.5-.173-.915-.554-1.217-.345-.234-.797-.355-1.254-.375-.457-.035-.92.03-1.29.22-.416.254-.717.634-.698 1.14-.025.453.345.846.697 1.01l-.293.12c-.5.25-.69.677-.73 1.17-.045.554.242 1.083.698 1.388.348.217.81.355 1.286.384.476.028.952-.052 1.325-.226.49-.25.837-.737.86-1.29zm-2.788-2.328c-.052-.24.053-.577.323-.716.158-.09.364-.125.565-.112.2.01.4.072.546.18.25.17.314.52.233.75a.63.63 0 0 1-.336.37 1.11 1.11 0 0 1-.528.08 1.118 1.118 0 0 1-.516-.143.628.628 0 0 1-.288-.408zm1.336 2.876c-.17.105-.424.148-.68.13-.258-.012-.507-.086-.66-.21a.783.783 0 0 1-.312-.638c.006-.344.203-.654.536-.76.142-.044.336-.07.536-.062.2.015.39.065.524.127.32.145.477.476.443.82a.786.786 0 0 1-.387.593zM131.86 16.137l-4.742 2.045-.427-.99 4.743-2.044.427.99M113.992 7.937l-1.22-5.313 1.125.113c.226 1.315.457 2.81.723 3.915.48-1.03 1.01-2.447 1.495-3.69l1.106.112-2.245 4.963-.983-.1M93.82 10.983l-1.153 2.06-.97-.543 1.318-2.366-.746-.42-1.85 3.314 4.51 2.517 1.848-3.312-.75-.416-1.322 2.37-1.26-.707 1.155-2.065-.78-.432M91.084 32.924c-.243-.555-.84-.775-1.458-.744-.523.06-.918.413-1.137.953-.08-.317-.373-.713-.87-.77-.517-.064-1.01.075-1.26.514-.343.438-.196 2.358-.23 3.465l5.128-.005.002-.375c-.027-2.04.09-2.283-.176-3.038zm-2.91 2.34h-1.267c.036-1.186-.16-1.817.566-1.897.428-.03.547.066.644.323.082.267.057.545.056 1.573zm2.227-.004l-1.44.003h-.01c.026-1.15-.152-1.823.53-1.955.24-.064.534-.042.71.14.29.28.2.75.21 1.812zM131.903 19.01l.822-.213 1.038 4.04-.82.21-.384-1.494-4.148 1.067-.268-1.04 4.145-1.07-.387-1.5M105.834 8.237c-.574.096-1.165.04-1.64-.252-.41-.238-.557-.545-.633-.923l-.592-3.69 1.05-.168.596 3.69c.06.302.326.488.606.544.155.04.327.037.494.006"/><path d="M105.847 8.234c.574-.09 1.12-.326 1.48-.75.313-.356.358-.695.312-1.077l-.593-3.688-1.052.166.59 3.69c.04.28-.157.566-.404.708a1.15 1.15 0 0 1-.466.16M134.287 26.325l-5.362-1.078.146 1.048 1.17.214.257 1.847-1.064.525.146 1.047 4.86-2.506-.153-1.1zm-2.982 1.626l-.18-1.273 2.23.336h.008l-.005.002h.005-.01l-2.048.936zM133.51 35.196l.098-.017.117-.032.086-.03c.34-.184.42-.638.403-1.008-.013-.374-.128-.753-.48-.887-.18-.05-.412-.066-.53.12-.582.863-.18 2.692-1.68 3.013-.656.108-1.23-.176-1.57-.7-.467-.832-.504-2.133.03-2.938.32-.42.758-.678 1.28-.68l.063.987c-.322.042-.64.207-.787.523-.22.518-.166 1.34.213 1.645.14.156.46.138.636.044.594-.43.475-1.496.772-2.212.103-.304.38-.614.666-.766.528-.227 1.208-.147 1.632.275.686.647.72 1.918.4 2.69-.18.535-.76.927-1.363.964l-.062-.993h.076M91.957 27.41c-.085.573-.32 1.12-.747 1.482-.353.314-.69.36-1.073.316l-3.69-.58.164-1.052 3.692.576c.308.037.565-.16.706-.407.085-.136.137-.298.16-.467M91.96 27.396c.094-.574.036-1.165-.257-1.64-.24-.41-.548-.555-.926-.63l-3.69-.58-.166 1.053 3.692.58c.277.048.49.324.547.604.04.155.036.327.007.494M97.686 5.33l-.95.577 1.136 5.35.904-.548-.265-1.157 1.595-.97.904.77.902-.55-4.226-3.472zm.627 3.34l-.572-2.178-.003-.008.003.003v-.005l.004.01L99.414 8l-1.1.67zM122.744 7.01l-2.178-.912.43-1.025 2.5 1.043.33-.79-3.5-1.46-1.992 4.763 3.5 1.462.33-.79-2.505-1.047.558-1.333 2.184.915.342-.827M91.312 18.452c-.003-.354-.023-.65-.317-.933-.284-.294-.734-.43-1.178-.397-1.15.178-1.302 1.498-1.937 3.585l4.945 1.474.307-1.03-1.953-.583-.082-.026c.134-.475.325-1.078.42-1.208.355-.82 1.666-.014 2.184-.093l.304-1.023c-.885.05-2.068-.74-2.694.232zm-1.03 1.848l-1.293-.385c.28-.882.406-1.77 1.028-1.716.25.04.422.106.567.286.242.3-.07.96-.303 1.814zM127.39 8.175l-4.098 3.13.65.855 1.62-1.236.07-.05c.304.387.68.896.728 1.05.455.767-.968 1.355-1.208 1.82l.647.848c.48-.745 1.815-1.236 1.397-2.316.288.206.54.365.94.293.404-.058.78-.34 1.015-.72.532-1.034-.447-1.933-1.76-3.675zm.772 3.204c-.18.176-.335.277-.565.29-.387.017-.737-.623-1.29-1.314l1.074-.82c.548.748 1.193 1.373.782 1.843zM6.96 69.813v-5.126h.84l1.653 3.385v-3.385h.808v5.126h-.876L7.77 66.52v3.293h-.81zm4.72-1.34c-.347 0-.626-.13-.837-.396-.21-.264-.316-.61-.316-1.037 0-.433.105-.78.318-1.04.212-.26.483-.39.814-.39.326 0 .597.137.812.41.216.272.324.62.324 1.045 0 .412-.103.75-.308 1.014a.974.974 0 0 1-.808.394zm-1.052.337h2.053v.773H10.63v-.773zm1.066-2.528c-.254 0-.38.282-.38.846 0 .443.115.664.345.664.246 0 .37-.274.37-.82 0-.46-.112-.69-.336-.69zM15.104 69.813v-5.126h1.787c.457 0 .784.046.98.138.195.092.356.252.482.48.126.227.19.5.19.816 0 .4-.097.725-.29.97-.192.244-.465.398-.82.46.183.132.333.274.452.43.12.155.28.432.486.833l.51 1h-1.012l-.615-1.115c-.22-.403-.37-.656-.45-.757a.672.672 0 0 0-.252-.21c-.087-.037-.23-.057-.425-.057h-.175v2.14h-.846zm.846-2.958h.63c.384 0 .63-.017.734-.05a.47.47 0 0 0 .255-.205.757.757 0 0 0 .097-.41.707.707 0 0 0-.098-.393.5.5 0 0 0-.267-.204c-.08-.026-.31-.04-.69-.04h-.663v1.302zM19.33 64.687h.847v2.777c0 .43.01.712.032.842.037.226.126.4.267.525.142.125.328.186.56.186a.814.814 0 0 0 .48-.13.657.657 0 0 0 .253-.365c.046-.154.07-.487.07-.997v-2.836h.845v2.693c0 .687-.037 1.185-.11 1.49-.074.307-.24.556-.497.746-.258.19-.598.285-1.02.285-.438 0-.78-.078-1.026-.235a1.34 1.34 0 0 1-.535-.665c-.11-.285-.166-.81-.166-1.58v-2.733M26.122 68.9v.913h-2.825c.03-.345.123-.672.278-.983.154-.31.456-.72.904-1.225.353-.403.57-.675.652-.817a1.23 1.23 0 0 0 .182-.626c0-.223-.05-.392-.15-.506a.5.5 0 0 0-.395-.172c-.358 0-.55.267-.578.8l-.8-.097c.048-.522.193-.906.435-1.15.24-.245.562-.368.963-.368.44 0 .773.143.997.43.223.286.335.614.335.984 0 .21-.03.413-.086.61a2.542 2.542 0 0 1-.264.594c-.12.2-.317.454-.594.764-.26.29-.423.483-.49.576a1.7 1.7 0 0 0-.168.273h1.602M29.388 68.9v.913h-2.825a2.71 2.71 0 0 1 .278-.983c.156-.31.457-.72.905-1.225.354-.403.572-.675.654-.817a1.23 1.23 0 0 0 .18-.626c0-.223-.05-.392-.15-.506a.5.5 0 0 0-.395-.172c-.357 0-.55.267-.577.8l-.8-.097c.048-.522.193-.906.434-1.15.242-.245.563-.368.964-.368.44 0 .773.143.996.43.224.286.336.614.336.984 0 .21-.03.413-.086.61a2.556 2.556 0 0 1-.263.594c-.12.2-.32.454-.596.764-.26.29-.423.483-.49.576-.07.093-.126.184-.167.273h1.6M30.623 67.046a1.054 1.054 0 0 1-.446-.42 1.28 1.28 0 0 1-.15-.638c0-.402.115-.722.344-.96.23-.24.537-.36.924-.36.41 0 .722.13.937.384.215.255.323.564.323.93 0 .25-.052.464-.156.647a1.047 1.047 0 0 1-.425.416c.24.116.42.28.54.49.117.212.177.47.177.778a1.9 1.9 0 0 1-.178.84c-.117.24-.28.426-.487.554-.208.128-.44.193-.7.193-.405 0-.74-.14-1.005-.42-.265-.28-.397-.66-.397-1.135 0-.307.06-.57.18-.793.122-.22.295-.39.52-.506zm.09 1.206c0 .275.06.486.176.635a.52.52 0 0 0 .42.224c.163 0 .3-.07.412-.212.11-.142.166-.355.166-.64 0-.243-.057-.436-.17-.578a.514.514 0 0 0-.835.002c-.113.143-.17.333-.17.57zm.077-2.194c0 .2.047.352.142.46.094.106.213.16.358.16a.466.466 0 0 0 .364-.16c.095-.108.143-.26.143-.46 0-.193-.047-.342-.14-.45a.453.453 0 0 0-.356-.16.47.47 0 0 0-.367.163c-.095.11-.143.258-.143.448zM33.168 68.457l.78-.116c.02.243.088.427.2.555a.513.513 0 0 0 .396.19.513.513 0 0 0 .42-.226c.116-.153.173-.363.173-.63 0-.25-.055-.446-.165-.588a.492.492 0 0 0-.4-.213 1.16 1.16 0 0 0-.37.072l.09-.8c.207.004.372-.052.494-.168.12-.117.18-.28.18-.492 0-.177-.044-.315-.13-.415a.42.42 0 0 0-.334-.15.453.453 0 0 0-.353.174c-.1.116-.16.287-.178.513l-.744-.154c.076-.47.227-.81.45-1.022.225-.212.508-.32.85-.32.38 0 .685.138.91.41.226.273.34.574.34.905 0 .223-.052.425-.154.604-.1.18-.253.336-.456.47.236.064.427.202.575.417.148.215.222.483.222.804 0 .47-.14.857-.418 1.163-.28.307-.61.46-.996.46-.368 0-.68-.128-.936-.387-.255-.257-.404-.61-.446-1.056M38.525 69.813h-.804V66.11a2.77 2.77 0 0 1-1.04.745v-.892c.223-.09.455-.252.695-.486.24-.234.406-.503.5-.808h.65v5.143M39.728 65.67v-.913h2.756v.714c-.227.273-.456.66-.688 1.163a7.9 7.9 0 0 0-.538 1.616 7.292 7.292 0 0 0-.19 1.563h-.777a8.06 8.06 0 0 1 .365-2.178c.224-.725.525-1.38.905-1.965h-1.832M46.557 69.163c.208.18.434.324.68.434l-.313.73a1.846 1.846 0 0 1-.37-.188 14.58 14.58 0 0 1-.57-.46 2 2 0 0 1-.95.22c-.608 0-1.098-.226-1.472-.68-.374-.453-.56-1.11-.56-1.97 0-.862.187-1.52.564-1.972.377-.452.87-.678 1.482-.678.605 0 1.094.227 1.47.68.373.453.56 1.11.56 1.97 0 .418-.042.777-.125 1.077-.083.3-.215.58-.396.836zm-.682-.584c.22-.304.33-.746.33-1.326 0-.602-.11-1.047-.326-1.336-.22-.29-.498-.434-.84-.434-.34 0-.62.145-.837.434-.22.29-.328.733-.328 1.332 0 .61.11 1.06.327 1.352.218.292.49.44.813.44.12 0 .237-.026.346-.075a2.396 2.396 0 0 0-.523-.322l.238-.59c.28.116.546.29.8.524zM47.5 67.464h1.585v.982H47.5v-.982zM53.49 69.813h-.92l-.367-1.16H50.52l-.347 1.16h-.902l1.638-5.126h.898l1.685 5.126zm-1.56-2.028l-.58-1.902-.57 1.902h1.15z"/></g></svg>