<svg width="19" height="19" viewBox="0 0 19 19" xmlns="http://www.w3.org/2000/svg"><g id="Page-1" fill="none" fill-rule="evenodd"><g id="zoom" fill="#FFF"><path d="M4.964 9.253h2.714v2.714c0 .43.347.776.776.776.428 0 .775-.347.775-.776V9.253h2.714c.428 0 .775-.347.775-.776 0-.428-.348-.775-.776-.775H9.23V4.988c0-.428-.348-.776-.776-.776-.43 0-.776.348-.776.776v2.714H4.964c-.428 0-.775.347-.775.775 0 .43.346.776.774.776" id="Fill-1"/><path d="M18.97 17.897l-4.24-4.238c1.166-1.41 1.867-3.216 1.867-5.183 0-4.49-3.653-8.142-8.143-8.142S.31 3.987.31 8.477c0 4.49 3.654 8.143 8.144 8.143 1.966 0 3.772-.7 5.18-1.865l4.24 4.24 1.096-1.098zM8.454 15.07c-3.635 0-6.592-2.958-6.592-6.593 0-3.634 2.957-6.59 6.592-6.59s6.592 2.956 6.592 6.59c0 3.635-2.957 6.592-6.592 6.592z" id="Fill-2"/></g></g></svg>