<?xml version="1.0" encoding="UTF-8" standalone="no"?>
<svg width="128px" height="128px" viewBox="0 0 128 128" version="1.1" xmlns="http://www.w3.org/2000/svg" xmlns:xlink="http://www.w3.org/1999/xlink" xmlns:sketch="http://www.bohemiancoding.com/sketch/ns">
    <!-- Generator: Sketch 3.5.1 (25234) - http://www.bohemiancoding.com/sketch -->
    <title>cert-4</title>
    <desc>Created with Sketch.</desc>
    <defs></defs>
    <g id="Page-1" stroke="none" stroke-width="1" fill="none" fill-rule="evenodd" sketch:type="MSPage">
        <path d="M99.212,0 L99.212,14.174 L99.212,28.346 L99.212,42.521 L99.212,56.694 L99.212,70.866 L99.212,85.04 L99.212,99.213 L99.212,113.386 L99.212,127.56 L113.385,127.56 L127.558,127.56 L127.558,113.386 L113.385,113.386 L113.385,99.213 L113.385,85.04 L113.385,70.866 L113.385,56.694 L113.385,42.521 L113.385,28.346 L113.385,14.174 L127.558,14.174 L127.558,0 L99.212,0 Z M42.519,0 L42.519,14.174 L42.519,28.346 L42.519,42.521 L42.519,56.694 L42.519,70.866 L42.519,85.04 L42.519,99.213 L42.519,113.386 L42.519,127.56 L56.692,127.56 L56.692,113.386 L56.692,99.213 L56.692,85.04 L56.692,70.866 L70.866,70.866 L70.866,85.04 L70.866,99.213 L70.866,113.386 L70.866,127.56 L85.039,127.56 L85.039,113.386 L85.039,99.213 L85.039,85.04 L85.039,70.866 L85.039,56.694 L85.039,42.521 L85.039,28.346 L85.039,14.174 L85.039,0 L42.519,0 Z M56.692,42.521 L56.692,28.346 L56.692,14.174 L70.866,14.174 L70.866,28.346 L70.866,42.521 L70.866,56.694 L56.692,56.694 L56.692,42.521 Z M0,0 L0,14.174 L0,28.346 L0,42.521 L0,56.694 L0,70.866 L0,85.04 L0,99.213 L0,113.386 L0,127.56 L14.173,127.56 L28.346,127.56 L28.346,113.386 L14.173,113.386 L14.173,99.213 L14.173,85.04 L14.173,70.866 L28.346,70.866 L28.346,56.694 L14.173,56.694 L14.173,42.521 L14.173,28.346 L14.173,14.174 L28.346,14.174 L28.346,0 L0,0 Z" id="cert-4" fill="#221F20" sketch:type="MSShapeGroup"></path>
    </g>
</svg>