<?xml version="1.0" encoding="UTF-8" standalone="no"?>
<svg width="158px" height="74px" viewBox="0 0 158 74" version="1.1" xmlns="http://www.w3.org/2000/svg" xmlns:xlink="http://www.w3.org/1999/xlink" xmlns:sketch="http://www.bohemiancoding.com/sketch/ns">
    <!-- Generator: Sketch 3.5.1 (25234) - http://www.bohemiancoding.com/sketch -->
    <title>cert-1</title>
    <desc>Created with Sketch.</desc>
    <defs>
        <path id="path-1" d="M0,0.965 L157.715,0.965 L157.715,74 L0,74 L0,0.965 Z"></path>
    </defs>
    <g id="Page-1" stroke="none" stroke-width="1" fill="none" fill-rule="evenodd" sketch:type="MSPage">
        <g id="cert-1" sketch:type="MSLayerGroup">
            <path d="M24.7428,1.0946 L-0.0002,37.6616 L24.7428,73.9996 L48.8368,37.6616 L24.7428,1.0926 L24.7428,1.0946 Z M1.5698,37.6606 L24.7298,3.4346 L47.2798,37.6606 L24.7298,71.6706 L1.5698,37.6606 Z" id="Fill-1" fill="#000000" sketch:type="MSShapeGroup"></path>
            <g id="Group-59">
                <path d="M24.369,53.557 C25.727,53.557 26.699,55.189 26.699,57.203 C26.699,59.217 25.727,60.85 24.369,60.85 C23.009,60.85 22.036,59.217 22.036,57.203 C22.036,55.189 23.008,53.556 24.368,53.556 L24.369,53.557 Z M26.527,62.627 C26.227,62.459 25.587,61.785 25.319,61.495 C25.289,61.465 25.304,61.418 25.343,61.407 C27.087,60.905 28.303,59.173 28.303,57.114 C28.303,54.66 26.58,52.672 24.295,52.672 C22.01,52.672 20.287,54.66 20.287,57.112 C20.287,58.948 21.252,60.522 22.697,61.2 C22.813,61.255 22.914,61.337 22.997,61.436 C23.313,61.806 24.007,62.596 24.75,63.091 C25.855,63.828 28.563,63.741 28.563,63.741 L28.563,63.221 C28.563,63.221 27.556,63.201 26.527,62.626 L26.527,62.627 Z" id="Fill-2" fill="#000000" sketch:type="MSShapeGroup"></path>
                <path d="M25.935,16.822 C25.935,15.602 26.909,14.612 28.13,14.612 L30.224,14.612 L30.224,13.832 L18.656,13.832 L18.656,14.612 L20.721,14.612 C21.943,14.612 22.946,15.602 22.946,16.822 L22.946,47.447 C22.946,49.053 21.63,50.355 20.024,50.355 L18.657,50.355 L18.657,51.135 L30.225,51.135 L30.225,50.355 L28.829,50.355 C27.223,50.355 25.936,49.053 25.936,47.447 L25.936,16.822" id="Fill-4" fill="#000000" sketch:type="MSShapeGroup"></path>
                <path d="M31.744,19.86 C29.407,18.333 27.064,18.218 26.804,18.21 L26.714,18.207 L26.714,21.089 C26.714,21.089 33.646,21.295 33.646,29.917 C33.646,38.047 27.481,38.274 26.779,38.274 C26.736,38.274 26.714,38.266 26.714,38.266 L26.714,41.126 L26.778,41.126 C27.443,41.126 29.79,41.011 32.048,39.522 C34.081,38.182 36.504,35.425 36.504,29.905 C36.504,24.173 33.914,21.278 31.742,19.86" id="Fill-6" fill="#000000" sketch:type="MSShapeGroup"></path>
                <path d="M16.155,21.179 C17.73,19.416 19.6,18.365 21.985,18.174 L21.985,21.062 C20.685,21.108 20.225,21.952 20.045,23.132 C19.475,26.892 18.865,30.646 18.275,34.402 C18.26,34.486 18.249,34.592 18.272,34.739 L22.134,34.739 L22.134,37.277 L18.48,37.277 C17.9,37.277 17.713,37.437 17.713,37.999 L17.713,38.519 C17.7,39.949 18.117,40.406 19.533,40.444 C19.833,40.452 20.133,40.472 20.475,40.489 L20.475,41.127 L11.215,41.127 C11.215,41.127 11.219,40.561 11.219,40.489 C13.466,40.489 14.185,39.306 14.463,37.753 C15.269,33.239 16.109,28.73 16.981,24.229 C17.209,23.054 17.133,22.026 16.154,21.177" id="Fill-8" fill="#000000" sketch:type="MSShapeGroup"></path>
                <path d="M30.706,71.405 L31.246,71.405 C31.401,71.405 31.518,71.372 31.594,71.305 C31.671,71.241 31.709,71.15 31.709,71.035 C31.709,70.929 31.669,70.845 31.595,70.778 C31.52,70.713 31.415,70.68 31.28,70.68 L30.706,70.68 L30.706,71.405 Z M32.148,72.742 L31.69,72.742 L31.316,71.752 L30.706,71.752 L30.706,72.742 L30.272,72.742 L30.272,70.335 L31.316,70.335 C31.606,70.335 31.819,70.4 31.956,70.531 C32.092,70.661 32.16,70.831 32.16,71.041 C32.16,71.349 32.016,71.561 31.727,71.679 L32.147,72.742 L32.148,72.742 Z" id="Fill-10" fill="#000000" sketch:type="MSShapeGroup"></path>
                <path d="M31.144,69.049 C29.784,69.049 28.674,70.157 28.674,71.519 C28.674,72.881 29.784,73.989 31.144,73.989 C32.506,73.989 33.614,72.881 33.614,71.519 C33.614,70.157 32.506,69.049 31.144,69.049 M31.144,69.439 C32.294,69.439 33.224,70.369 33.224,71.519 C33.224,72.667 32.294,73.599 31.144,73.599 C29.996,73.599 29.064,72.667 29.064,71.519 C29.064,70.369 29.996,69.439 31.144,69.439" id="Fill-12" fill="#000000" sketch:type="MSShapeGroup"></path>
                <path d="M76.5406,3.4925 L74.5436,8.8335 L78.5046,8.8335 L76.5406,3.4925 Z M81.9466,13.5905 L80.2416,13.5905 L78.9596,10.0515 L74.1046,10.0515 L72.7896,13.5905 L71.1666,13.5905 L75.7126,2.0315 L77.4336,2.0315 L81.9466,13.5905 Z" id="Fill-14" fill="#000000" sketch:type="MSShapeGroup"></path>
                <path d="M84.1529,6.431 C84.8679,5.473 85.6469,5.002 86.8809,5.002 C88.0009,5.002 88.7799,5.441 89.2019,6.447 C89.9169,5.489 90.7279,4.986 91.9779,4.986 C93.7479,4.986 94.6249,6.025 94.6249,7.73 L94.6249,13.591 L93.2449,13.591 L93.2449,8.314 C93.2449,7.129 93.0659,6.22 91.5729,6.22 C89.9979,6.22 89.4289,7.291 89.4289,8.834 L89.4289,13.591 L88.0489,13.591 L88.0489,8.217 C88.0489,7.113 87.8389,6.236 86.5069,6.236 C84.6559,6.236 84.2339,7.583 84.2339,9.159 L84.2339,13.591 L82.8539,13.591 L82.8539,5.213 L84.1529,5.213 L84.1529,6.431 Z" id="Fill-16" fill="#000000" sketch:type="MSShapeGroup"></path>
                <path d="M100.1255,6.1062 C98.7775,6.1062 97.8365,7.0802 97.6575,8.6552 L102.5275,8.6552 C102.3975,7.0642 101.5055,6.1062 100.1255,6.1062 M100.2065,13.8662 C97.7385,13.8662 96.2615,12.2432 96.2615,9.5152 C96.2615,6.8042 97.8365,4.9692 100.1575,4.9692 C102.9175,4.9692 103.9565,7.1612 103.9565,9.5802 L103.9565,9.7752 L97.6575,9.7752 L97.6415,9.8732 C97.6415,11.6582 98.6315,12.7302 100.2555,12.7302 C101.4565,12.7302 102.1225,12.2102 102.5125,10.9442 L103.8595,10.9442 C103.4375,12.8762 102.1875,13.8662 100.2065,13.8662" id="Fill-18" fill="#000000" sketch:type="MSShapeGroup"></path>
                <path d="M109.7838,6.4471 C109.6378,6.4311 109.5728,6.4311 109.4268,6.4311 C107.1538,6.4311 106.7478,8.1681 106.7478,10.0511 L106.7478,13.5911 L105.3678,13.5911 L105.3678,5.2131 L106.6828,5.2131 L106.6828,7.0151 C107.2668,5.6031 108.2908,5.0181 109.7838,5.0181 L109.7838,6.4471 Z" id="Fill-20" fill="#000000" sketch:type="MSShapeGroup"></path>
                <mask id="mask-2" sketch:name="Clip 23" fill="white">
                    <use xlink:href="#path-1"></use>
                </mask>
                <g id="Clip-23"></g>
                <path d="M112.282,13.591 L110.886,13.591 L110.886,5.214 L112.282,5.214 L112.282,13.591 Z M112.282,3.72 L110.886,3.72 L110.886,2.032 L112.282,2.032 L112.282,3.72 Z" id="Fill-22" fill="#000000" sketch:type="MSShapeGroup" mask="url(#mask-2)"></path>
                <path d="M117.98,13.8343 C115.382,13.8343 114.002,12.0643 114.002,9.5153 C114.002,6.7233 115.561,4.9693 118.029,4.9693 C120.075,4.9693 121.357,6.0413 121.584,7.9403 L120.156,7.9403 C119.912,6.7553 119.181,6.1223 118.044,6.1223 C116.454,6.1223 115.447,7.3893 115.447,9.4013 C115.447,11.4473 116.389,12.6813 117.948,12.6813 C119.198,12.6813 120.026,11.9183 120.237,10.5383 L121.633,10.5383 C121.389,12.5353 120.058,13.8343 117.98,13.8343" id="Fill-24" fill="#000000" sketch:type="MSShapeGroup" mask="url(#mask-2)"></path>
                <path d="M126.4859,9.743 C125.4789,9.873 124.1159,9.987 124.1159,11.334 C124.1159,12.195 124.7489,12.73 125.7879,12.73 C127.0869,12.73 128.3369,11.837 128.3369,10.766 L128.3369,9.24 C127.8169,9.629 127.1019,9.661 126.4859,9.743 L126.4859,9.743 Z M130.5609,13.558 C130.2679,13.672 129.9269,13.721 129.6189,13.721 C128.8399,13.721 128.4179,13.282 128.4009,12.487 C127.5739,13.412 126.6649,13.818 125.3659,13.818 C123.7099,13.818 122.6859,12.909 122.6859,11.448 C122.6859,9.954 123.6769,9.077 125.6579,8.834 C127.6549,8.59 128.3369,8.639 128.3369,7.502 C128.3369,6.61 127.6709,6.122 126.4369,6.122 C125.1549,6.122 124.4889,6.593 124.3589,7.827 L123.0109,7.827 C123.0599,6.041 124.3589,4.986 126.5179,4.986 C127.6379,4.986 128.5959,5.278 129.1479,5.798 C129.7329,6.366 129.7159,7.226 129.7159,7.973 C129.7159,9.223 129.6519,10.457 129.6519,11.707 C129.6519,12.325 129.7979,12.535 130.2189,12.535 C130.3499,12.535 130.4149,12.519 130.5609,12.487 L130.5609,13.558 Z" id="Fill-25" fill="#000000" sketch:type="MSShapeGroup" mask="url(#mask-2)"></path>
                <path d="M133.1558,6.512 C133.8538,5.489 134.7308,4.986 136.0128,4.986 C138.0588,4.986 138.8048,6.106 138.8048,8.022 L138.8048,13.591 L137.4258,13.591 L137.4258,8.655 C137.4258,7.324 137.3608,6.187 135.6238,6.187 C133.8218,6.187 133.2368,7.551 133.2368,9.207 L133.2368,13.591 L131.8568,13.591 L131.8568,5.213 L133.1558,5.213 L133.1558,6.512 Z" id="Fill-26" fill="#000000" sketch:type="MSShapeGroup" mask="url(#mask-2)"></path>
                <path d="M74.1705,27.0457 L77.1085,27.0457 C78.5865,27.0457 79.7225,26.6397 79.7225,24.9357 C79.7225,23.0847 78.4075,22.8247 76.8985,22.8247 L74.1705,22.8247 L74.1705,27.0457 Z M77.4005,21.5097 C79.6085,21.5097 81.2485,22.4347 81.2485,24.8377 C81.2485,27.4517 79.5605,28.3287 77.3035,28.3287 L74.1705,28.3287 L74.1705,33.0687 L72.6445,33.0687 L72.6445,21.5097 L77.4005,21.5097 Z" id="Fill-27" fill="#000000" sketch:type="MSShapeGroup" mask="url(#mask-2)"></path>
                <path d="M86.2798,25.5848 C84.9318,25.5848 83.9908,26.5588 83.8118,28.1338 L88.6818,28.1338 C88.5518,26.5428 87.6598,25.5848 86.2798,25.5848 M86.3608,33.3448 C83.8928,33.3448 82.4158,31.7218 82.4158,28.9938 C82.4158,26.2828 83.9908,24.4478 86.3118,24.4478 C89.0718,24.4478 90.1108,26.6398 90.1108,29.0588 L90.1108,29.2538 L83.8118,29.2538 L83.7958,29.3518 C83.7958,31.1368 84.7858,32.2088 86.4098,32.2088 C87.6108,32.2088 88.2768,31.6888 88.6668,30.4228 L90.0138,30.4228 C89.5918,32.3548 88.3418,33.3448 86.3608,33.3448" id="Fill-28" fill="#000000" sketch:type="MSShapeGroup" mask="url(#mask-2)"></path>
                <path d="M95.1578,25.8284 L93.4858,25.8284 L93.4858,30.7154 C93.4858,31.4774 93.4368,31.9494 94.4108,31.9494 C94.6868,31.9494 94.8658,31.9324 95.1578,31.9004 L95.1578,33.0854 C94.7198,33.1344 94.5408,33.1504 94.1018,33.1504 C92.0088,33.1504 92.1058,32.1114 92.1058,30.2764 L92.1058,25.8284 L90.6928,25.8284 L90.6928,24.6914 L92.1058,24.6914 L92.1058,22.2074 L93.4858,22.2074 L93.4858,24.6914 L95.1578,24.6914 L95.1578,25.8284 Z" id="Fill-29" fill="#000000" sketch:type="MSShapeGroup" mask="url(#mask-2)"></path>
                <path d="M101.0504,25.9256 C100.9044,25.9096 100.8394,25.9096 100.6934,25.9096 C98.4204,25.9096 98.0144,27.6466 98.0144,29.5296 L98.0144,33.0696 L96.6344,33.0696 L96.6344,24.6916 L97.9494,24.6916 L97.9494,26.4936 C98.5334,25.0816 99.5574,24.4966 101.0504,24.4966 L101.0504,25.9256 Z" id="Fill-30" fill="#000000" sketch:type="MSShapeGroup" mask="url(#mask-2)"></path>
                <path d="M102.7867,28.8802 C102.7867,30.9422 103.7767,32.1602 105.4657,32.1602 C107.0897,32.1602 108.0627,30.9262 108.0627,28.8642 C108.0627,26.8672 107.0577,25.6012 105.4327,25.6012 C103.8087,25.6012 102.7867,26.8832 102.7867,28.8802 M109.4757,28.8322 C109.4757,31.6732 107.9987,33.3292 105.4497,33.3292 C102.8847,33.3292 101.3577,31.6732 101.3577,28.9132 C101.3577,26.1522 102.9327,24.4482 105.4657,24.4482 C107.9987,24.4482 109.4757,26.0552 109.4757,28.8322" id="Fill-31" fill="#000000" sketch:type="MSShapeGroup" mask="url(#mask-2)"></path>
                <path d="M112.574,33.069 L111.178,33.069 L111.178,21.509 L112.574,21.509 L112.574,33.069 Z" id="Fill-32" fill="#000000" sketch:type="MSShapeGroup" mask="url(#mask-2)"></path>
                <path d="M118.1422,25.5848 C116.7942,25.5848 115.8532,26.5588 115.6742,28.1338 L120.5442,28.1338 C120.4142,26.5428 119.5222,25.5848 118.1422,25.5848 M118.2232,33.3448 C115.7552,33.3448 114.2782,31.7218 114.2782,28.9938 C114.2782,26.2828 115.8532,24.4478 118.1742,24.4478 C120.9342,24.4478 121.9732,26.6398 121.9732,29.0588 L121.9732,29.2538 L115.6742,29.2538 L115.6582,29.3518 C115.6582,31.1368 116.6482,32.2088 118.2722,32.2088 C119.4732,32.2088 120.1392,31.6888 120.5292,30.4228 L121.8762,30.4228 C121.4542,32.3548 120.2042,33.3448 118.2232,33.3448" id="Fill-33" fill="#000000" sketch:type="MSShapeGroup" mask="url(#mask-2)"></path>
                <path d="M130.3814,33.0691 L129.0994,33.0691 L129.0994,31.7541 C128.3684,32.8091 127.4434,33.2961 126.2094,33.2961 C124.4554,33.2961 123.4164,32.3061 123.4164,30.4551 L123.4164,24.6921 L124.7974,24.6921 L124.7974,30.0821 C124.7974,31.2831 125.1384,32.0951 126.5504,32.0951 C128.3684,32.0951 129.0014,30.7961 129.0014,29.0751 L129.0014,24.6921 L130.3814,24.6921 L130.3814,33.0691 Z" id="Fill-34" fill="#000000" sketch:type="MSShapeGroup" mask="url(#mask-2)"></path>
                <path d="M133.7564,25.9095 C134.4714,24.9515 135.2504,24.4805 136.4844,24.4805 C137.6044,24.4805 138.3834,24.9195 138.8054,25.9255 C139.5204,24.9675 140.3314,24.4645 141.5814,24.4645 C143.3514,24.4645 144.2284,25.5035 144.2284,27.2085 L144.2284,33.0695 L142.8484,33.0695 L142.8484,27.7925 C142.8484,26.6075 142.6694,25.6985 141.1764,25.6985 C139.6014,25.6985 139.0324,26.7695 139.0324,28.3125 L139.0324,33.0695 L137.6524,33.0695 L137.6524,27.6955 C137.6524,26.5915 137.4424,25.7145 136.1104,25.7145 C134.2594,25.7145 133.8374,27.0615 133.8374,28.6375 L133.8374,33.0695 L132.4574,33.0695 L132.4574,24.6915 L133.7564,24.6915 L133.7564,25.9095 Z" id="Fill-35" fill="#000000" sketch:type="MSShapeGroup" mask="url(#mask-2)"></path>
                <path d="M74.17,52.547 L72.644,52.547 L72.644,40.987 L74.17,40.987 L74.17,52.547 Z" id="Fill-36" fill="#000000" sketch:type="MSShapeGroup" mask="url(#mask-2)"></path>
                <path d="M77.8384,45.469 C78.5364,44.446 79.4134,43.943 80.6954,43.943 C82.7414,43.943 83.4884,45.063 83.4884,46.979 L83.4884,52.547 L82.1084,52.547 L82.1084,47.612 C82.1084,46.281 82.0434,45.144 80.3064,45.144 C78.5044,45.144 77.9194,46.508 77.9194,48.163 L77.9194,52.547 L76.5394,52.547 L76.5394,44.17 L77.8384,44.17 L77.8384,45.469 Z" id="Fill-37" fill="#000000" sketch:type="MSShapeGroup" mask="url(#mask-2)"></path>
                <path d="M90.4019,46.6048 C90.3049,45.5008 89.5419,45.0788 88.3559,45.0788 C87.3009,45.0788 86.6519,45.5168 86.6519,46.2148 C86.6519,47.1568 87.7399,47.3028 88.8759,47.5628 C90.2889,47.8878 92.1239,48.2928 92.1239,50.1118 C92.1239,51.7358 90.7429,52.8068 88.6489,52.8068 C86.3759,52.8068 85.1259,51.7848 85.0449,49.9008 L86.4089,49.9008 C86.4899,51.1668 87.3499,51.6698 88.6809,51.6698 C89.9149,51.6698 90.7269,51.1188 90.7269,50.2738 C90.7269,49.3488 89.7859,49.1538 88.6159,48.8618 C87.1719,48.5038 85.2389,48.3268 85.2389,46.3938 C85.2389,44.8838 86.4899,43.9258 88.4379,43.9258 C90.3209,43.9258 91.7819,44.8348 91.7819,46.6048 L90.4019,46.6048 Z" id="Fill-38" fill="#000000" sketch:type="MSShapeGroup" mask="url(#mask-2)"></path>
                <path d="M97.2681,45.306 L95.5961,45.306 L95.5961,50.193 C95.5961,50.956 95.5471,51.427 96.5211,51.427 C96.7971,51.427 96.9761,51.41 97.2681,51.378 L97.2681,52.564 C96.8301,52.612 96.6511,52.628 96.2131,52.628 C94.1191,52.628 94.2161,51.589 94.2161,49.754 L94.2161,45.306 L92.8031,45.306 L92.8031,44.17 L94.2161,44.17 L94.2161,41.686 L95.5961,41.686 L95.5961,44.17 L97.2681,44.17 L97.2681,45.306 Z" id="Fill-39" fill="#000000" sketch:type="MSShapeGroup" mask="url(#mask-2)"></path>
                <path d="M100.254,52.547 L98.858,52.547 L98.858,44.17 L100.254,44.17 L100.254,52.547 Z M100.254,42.676 L98.858,42.676 L98.858,40.988 L100.254,40.988 L100.254,42.676 Z" id="Fill-40" fill="#000000" sketch:type="MSShapeGroup" mask="url(#mask-2)"></path>
                <path d="M105.9849,45.306 L104.3129,45.306 L104.3129,50.193 C104.3129,50.956 104.2639,51.427 105.2379,51.427 C105.5139,51.427 105.6929,51.41 105.9849,51.378 L105.9849,52.564 C105.5469,52.612 105.3679,52.628 104.9299,52.628 C102.8359,52.628 102.9329,51.589 102.9329,49.754 L102.9329,45.306 L101.5199,45.306 L101.5199,44.17 L102.9329,44.17 L102.9329,41.686 L104.3129,41.686 L104.3129,44.17 L105.9849,44.17 L105.9849,45.306 Z" id="Fill-41" fill="#000000" sketch:type="MSShapeGroup" mask="url(#mask-2)"></path>
                <path d="M114.4576,52.5472 L113.1756,52.5472 L113.1756,51.2322 C112.4446,52.2872 111.5196,52.7752 110.2856,52.7752 C108.5316,52.7752 107.4926,51.7842 107.4926,49.9332 L107.4926,44.1702 L108.8736,44.1702 L108.8736,49.5602 C108.8736,50.7612 109.2146,51.5722 110.6266,51.5722 C112.4446,51.5722 113.0776,50.2742 113.0776,48.5532 L113.0776,44.1702 L114.4576,44.1702 L114.4576,52.5472 Z" id="Fill-42" fill="#000000" sketch:type="MSShapeGroup" mask="url(#mask-2)"></path>
                <path d="M120.1226,45.306 L118.4506,45.306 L118.4506,50.193 C118.4506,50.956 118.4016,51.427 119.3756,51.427 C119.6516,51.427 119.8306,51.41 120.1226,51.378 L120.1226,52.564 C119.6846,52.612 119.5056,52.628 119.0666,52.628 C116.9736,52.628 117.0706,51.589 117.0706,49.754 L117.0706,45.306 L115.6576,45.306 L115.6576,44.17 L117.0706,44.17 L117.0706,41.686 L118.4506,41.686 L118.4506,44.17 L120.1226,44.17 L120.1226,45.306 Z" id="Fill-43" fill="#000000" sketch:type="MSShapeGroup" mask="url(#mask-2)"></path>
                <path d="M125.0728,45.0628 C123.7248,45.0628 122.7838,46.0368 122.6048,47.6118 L127.4748,47.6118 C127.3448,46.0208 126.4528,45.0628 125.0728,45.0628 M125.1538,52.8238 C122.6858,52.8238 121.2088,51.1998 121.2088,48.4718 C121.2088,45.7608 122.7838,43.9258 125.1048,43.9258 C127.8648,43.9258 128.9038,46.1178 128.9038,48.5378 L128.9038,48.7318 L122.6048,48.7318 L122.5888,48.8298 C122.5888,50.6158 123.5788,51.6868 125.2028,51.6868 C126.4038,51.6868 127.0698,51.1668 127.4598,49.9008 L128.8068,49.9008 C128.3848,51.8328 127.1348,52.8238 125.1538,52.8238" id="Fill-44" fill="#000000" sketch:type="MSShapeGroup" mask="url(#mask-2)"></path>
                <path d="M77.3687,72.302 C74.0727,72.302 72.0107,69.964 72.0107,66.262 C72.0107,62.95 73.9267,60.206 77.4817,60.206 C79.7557,60.206 82.0447,61.473 82.2717,63.941 L80.7457,63.941 C80.4047,62.431 79.1707,61.522 77.4497,61.522 C74.7057,61.522 73.5537,63.811 73.5537,66.246 C73.5537,69.185 75.0307,70.987 77.4327,70.987 C79.3977,70.987 80.5987,69.818 80.8427,67.658 L82.3687,67.658 C82.1087,70.597 80.2257,72.302 77.3687,72.302" id="Fill-45" fill="#000000" sketch:type="MSShapeGroup" mask="url(#mask-2)"></path>
                <path d="M87.481,64.5413 C86.133,64.5413 85.192,65.5153 85.013,67.0903 L89.883,67.0903 C89.753,65.4993 88.861,64.5413 87.481,64.5413 M87.562,72.3023 C85.094,72.3023 83.617,70.6783 83.617,67.9503 C83.617,65.2393 85.192,63.4043 87.513,63.4043 C90.273,63.4043 91.312,65.5963 91.312,68.0163 L91.312,68.2103 L85.013,68.2103 L84.997,68.3083 C84.997,70.0943 85.987,71.1653 87.611,71.1653 C88.812,71.1653 89.478,70.6453 89.868,69.3793 L91.215,69.3793 C90.793,71.3113 89.543,72.3023 87.562,72.3023" id="Fill-46" fill="#000000" sketch:type="MSShapeGroup" mask="url(#mask-2)"></path>
                <path d="M97.1382,64.8821 C96.9922,64.8651 96.9272,64.8651 96.7812,64.8651 C94.5082,64.8651 94.1022,66.6031 94.1022,68.4861 L94.1022,72.0261 L92.7222,72.0261 L92.7222,63.6491 L94.0372,63.6491 L94.0372,65.4501 C94.6212,64.0371 95.6452,63.4531 97.1382,63.4531 L97.1382,64.8821 Z" id="Fill-47" fill="#000000" sketch:type="MSShapeGroup" mask="url(#mask-2)"></path>
                <path d="M101.7642,64.7845 L100.0922,64.7845 L100.0922,69.6715 C100.0922,70.4345 100.0432,70.9055 101.0172,70.9055 C101.2932,70.9055 101.4722,70.8885 101.7642,70.8565 L101.7642,72.0425 C101.3262,72.0905 101.1472,72.1065 100.7092,72.1065 C98.6152,72.1065 98.7122,71.0675 98.7122,69.2325 L98.7122,64.7845 L97.2992,64.7845 L97.2992,63.6485 L98.7122,63.6485 L98.7122,61.1645 L100.0922,61.1645 L100.0922,63.6485 L101.7642,63.6485 L101.7642,64.7845 Z" id="Fill-48" fill="#000000" sketch:type="MSShapeGroup" mask="url(#mask-2)"></path>
                <path d="M104.751,72.026 L103.355,72.026 L103.355,63.649 L104.751,63.649 L104.751,72.026 Z M104.751,62.155 L103.355,62.155 L103.355,60.467 L104.751,60.467 L104.751,62.155 Z" id="Fill-49" fill="#000000" sketch:type="MSShapeGroup" mask="url(#mask-2)"></path>
                <path d="M110.6754,61.6351 C110.4964,61.6031 110.1884,61.5711 109.9114,61.5711 C109.0354,61.5711 108.8574,61.7651 108.8574,62.6911 L108.8574,63.6491 L110.4634,63.6491 L110.4634,64.7841 L108.8574,64.7841 L108.8574,72.0261 L107.4604,72.0261 L107.4604,64.7841 L106.0474,64.7841 L106.0474,63.6491 L107.4604,63.6491 L107.4604,62.5281 C107.4604,60.9691 108.3044,60.3681 109.7814,60.3681 C110.1224,60.3681 110.2694,60.3851 110.6754,60.4341 L110.6754,61.6351 Z" id="Fill-50" fill="#000000" sketch:type="MSShapeGroup" mask="url(#mask-2)"></path>
                <path d="M113.158,72.026 L111.762,72.026 L111.762,63.649 L113.158,63.649 L113.158,72.026 Z M113.158,62.155 L111.762,62.155 L111.762,60.467 L113.158,60.467 L113.158,62.155 Z" id="Fill-51" fill="#000000" sketch:type="MSShapeGroup" mask="url(#mask-2)"></path>
                <path d="M118.856,72.2688 C116.258,72.2688 114.878,70.4988 114.878,67.9508 C114.878,65.1588 116.437,63.4048 118.905,63.4048 C120.95,63.4048 122.233,64.4758 122.46,66.3748 L121.032,66.3748 C120.788,65.1908 120.057,64.5568 118.92,64.5568 C117.33,64.5568 116.323,65.8238 116.323,67.8368 C116.323,69.8828 117.265,71.1168 118.824,71.1168 C120.074,71.1168 120.902,70.3538 121.113,68.9728 L122.508,68.9728 C122.265,70.9698 120.934,72.2688 118.856,72.2688" id="Fill-52" fill="#000000" sketch:type="MSShapeGroup" mask="url(#mask-2)"></path>
                <path d="M127.3609,68.178 C126.3539,68.308 124.9909,68.421 124.9909,69.769 C124.9909,70.629 125.6239,71.165 126.6629,71.165 C127.9619,71.165 129.2119,70.272 129.2119,69.2 L129.2119,67.674 C128.6919,68.065 127.9769,68.097 127.3609,68.178 L127.3609,68.178 Z M131.4359,71.993 C131.1429,72.107 130.8019,72.156 130.4939,72.156 C129.7149,72.156 129.2929,71.717 129.2759,70.922 C128.4489,71.847 127.5399,72.253 126.2409,72.253 C124.5849,72.253 123.5609,71.344 123.5609,69.883 C123.5609,68.389 124.5519,67.512 126.5329,67.269 C128.5299,67.026 129.2119,67.074 129.2119,65.938 C129.2119,65.044 128.5459,64.557 127.3119,64.557 C126.0299,64.557 125.3639,65.029 125.2339,66.262 L123.8859,66.262 C123.9349,64.476 125.2339,63.421 127.3929,63.421 C128.5129,63.421 129.4709,63.713 130.0229,64.233 C130.6079,64.801 130.5909,65.661 130.5909,66.408 C130.5909,67.658 130.5269,68.892 130.5269,70.143 C130.5269,70.759 130.6729,70.97 131.0939,70.97 C131.2249,70.97 131.2899,70.954 131.4359,70.922 L131.4359,71.993 Z" id="Fill-53" fill="#000000" sketch:type="MSShapeGroup" mask="url(#mask-2)"></path>
                <path d="M136.3209,64.7845 L134.6489,64.7845 L134.6489,69.6715 C134.6489,70.4345 134.5999,70.9055 135.5739,70.9055 C135.8499,70.9055 136.0289,70.8885 136.3209,70.8565 L136.3209,72.0425 C135.8829,72.0905 135.7039,72.1065 135.2659,72.1065 C133.1719,72.1065 133.2689,71.0675 133.2689,69.2325 L133.2689,64.7845 L131.8559,64.7845 L131.8559,63.6485 L133.2689,63.6485 L133.2689,61.1645 L134.6489,61.1645 L134.6489,63.6485 L136.3209,63.6485 L136.3209,64.7845 Z" id="Fill-54" fill="#000000" sketch:type="MSShapeGroup" mask="url(#mask-2)"></path>
                <path d="M139.307,72.026 L137.911,72.026 L137.911,63.649 L139.307,63.649 L139.307,72.026 Z M139.307,62.155 L137.911,62.155 L137.911,60.467 L139.307,60.467 L139.307,62.155 Z" id="Fill-55" fill="#000000" sketch:type="MSShapeGroup" mask="url(#mask-2)"></path>
                <path d="M142.439,67.8372 C142.439,69.8992 143.429,71.1162 145.118,71.1162 C146.742,71.1162 147.715,69.8832 147.715,67.8202 C147.715,65.8232 146.71,64.5572 145.085,64.5572 C143.461,64.5572 142.439,65.8402 142.439,67.8372 M149.128,67.7882 C149.128,70.6292 147.651,72.2852 145.102,72.2852 C142.537,72.2852 141.01,70.6292 141.01,67.8692 C141.01,65.1092 142.585,63.4042 145.118,63.4042 C147.651,63.4042 149.128,65.0122 149.128,67.7882" id="Fill-56" fill="#000000" sketch:type="MSShapeGroup" mask="url(#mask-2)"></path>
                <path d="M152.065,64.9476 C152.763,63.9246 153.64,63.4216 154.922,63.4216 C156.968,63.4216 157.715,64.5416 157.715,66.4576 L157.715,72.0256 L156.335,72.0256 L156.335,67.0906 C156.335,65.7596 156.27,64.6226 154.533,64.6226 C152.731,64.6226 152.146,65.9866 152.146,67.6416 L152.146,72.0256 L150.766,72.0256 L150.766,63.6486 L152.065,63.6486 L152.065,64.9476 Z" id="Fill-57" fill="#000000" sketch:type="MSShapeGroup" mask="url(#mask-2)"></path>
                <path d="M60.398,74 L59.099,74 L59.099,0.965 L60.398,0.965 L60.398,74 Z" id="Fill-58" fill="#000000" sketch:type="MSShapeGroup" mask="url(#mask-2)"></path>
            </g>
        </g>
    </g>
</svg>