<?xml version="1.0" encoding="UTF-8" standalone="no"?>
<svg width="199px" height="198px" viewBox="0 0 199 198" version="1.1" xmlns="http://www.w3.org/2000/svg" xmlns:xlink="http://www.w3.org/1999/xlink" xmlns:sketch="http://www.bohemiancoding.com/sketch/ns">
    <!-- Generator: Sketch 3.5.1 (25234) - http://www.bohemiancoding.com/sketch -->
    <title>cert-3</title>
    <desc>Created with Sketch.</desc>
    <defs>
        <path id="path-1" d="M0,0.992 L198.216,0.992 L198.216,199 L0,199 L0,0.992 Z"></path>
    </defs>
    <g id="Page-1" stroke="none" stroke-width="1" fill="none" fill-rule="evenodd" sketch:type="MSPage">
        <g id="cert-3" sketch:type="MSLayerGroup" transform="translate(0.000000, -1.000000)">
            <path d="M23.7597,169.5517 L25.3437,170.8477 C24.4077,171.9277 23.3277,172.5757 22.1047,172.7207 C20.8797,172.9357 19.6547,172.6487 18.5037,171.8557 C17.0637,170.9917 16.2727,169.7677 15.9837,168.2557 C15.6957,166.7437 16.1277,165.1597 17.2797,163.3607 C17.9997,162.2807 18.8637,161.4157 19.7997,160.7677 C20.6637,160.1927 21.6717,159.9037 22.6797,159.9767 C23.7597,160.0477 24.6957,160.4077 25.6317,160.9847 C26.7837,161.7037 27.5037,162.6407 27.8637,163.6487 C28.2237,164.7287 28.1517,165.8087 27.6477,166.9597 L25.7757,166.1677 C26.0637,165.3047 26.0637,164.5837 25.9197,164.0077 C25.7037,163.3607 25.3437,162.8557 24.7677,162.4957 C23.8317,161.9197 22.8967,161.7767 21.9597,162.0647 C20.9517,162.2807 20.0167,163.1447 19.1517,164.5117 C18.2157,165.9517 17.8567,167.1037 17.9997,168.1117 C18.0707,169.1197 18.5757,169.8397 19.4407,170.4157 C20.1597,170.8477 20.8797,171.0647 21.6007,170.9197 C22.3197,170.7767 23.0397,170.3437 23.7597,169.5517" id="Fill-1" fill="#221F20" sketch:type="MSShapeGroup"></path>
            <path d="M35.0634,179.6318 C33.9834,179.7758 32.8324,179.5608 31.6084,178.9848 C30.0244,178.1928 28.9444,177.0398 28.5114,175.5998 C28.0074,174.0878 28.2234,172.4318 29.0874,170.6318 C30.0244,168.7598 31.2484,167.5358 32.6874,166.9598 C33.4794,166.6718 34.2724,166.5278 35.0634,166.5998 L35.0634,168.4008 C34.6314,168.4008 34.2724,168.4728 33.8394,168.6158 C32.9754,168.9038 32.2554,169.5518 31.7524,170.4878 L35.0634,172.0718 L35.0634,174.0158 L30.8874,171.9998 C30.3834,173.2248 30.2394,174.3758 30.5284,175.3128 C30.8874,176.2478 31.4634,176.9688 32.4004,177.4008 C33.1204,177.7598 33.7674,177.8318 34.4874,177.7598 C34.6314,177.6878 34.8484,177.6158 35.0634,177.5438 L35.0634,179.6318 Z M35.0634,166.5998 C35.7844,166.6718 36.5044,166.8888 37.2234,167.2478 C38.7354,167.9688 39.6714,169.0478 40.1754,170.5608 C40.6084,171.9998 40.3914,173.7288 39.4564,175.5278 C39.4564,175.6718 39.3124,175.8168 39.2394,176.0318 L35.0634,174.0158 L35.0634,172.0718 L38.0164,173.5118 C38.3764,172.5038 38.4474,171.7118 38.3034,171.0648 C38.0874,169.9848 37.4404,169.2638 36.5044,168.8318 C36.0004,168.5438 35.5674,168.4728 35.0634,168.4008 L35.0634,166.5998 Z M36.5044,176.5358 L38.3034,177.7598 C37.4404,178.7678 36.4324,179.3438 35.2794,179.5608 C35.2084,179.6318 35.1354,179.6318 35.0634,179.6318 L35.0634,177.5438 C35.4964,177.3278 36.0004,177.0398 36.5044,176.5358 L36.5044,176.5358 Z" id="Fill-3" fill="#221F20" sketch:type="MSShapeGroup"></path>
            <path d="M39.9599,187.4804 L46.1509,171.4234 L47.9519,172.0724 L47.3759,173.5844 C47.8799,173.2964 48.3129,173.0804 48.8159,172.9354 L48.8159,174.5194 C48.5279,174.5914 48.2389,174.7364 47.9519,174.9524 C47.0169,175.4564 46.2239,176.4644 45.6469,177.9764 C45.0709,179.4884 44.9999,180.7124 45.2879,181.6484 C45.6469,182.5844 46.2239,183.2324 47.0879,183.5194 C47.6639,183.7364 48.2389,183.8084 48.8159,183.6644 L48.8159,185.5364 C48.0239,185.6074 47.3039,185.4634 46.5839,185.2484 C45.9369,184.9604 45.4329,184.5994 44.9999,184.0954 C44.5669,183.6644 44.2789,183.1604 44.1359,182.5844 L41.9759,188.2004 L39.9599,187.4804 Z M48.8159,172.9354 C48.9599,172.8644 49.1759,172.8644 49.3189,172.8644 C49.9679,172.7204 50.6159,172.8644 51.4079,173.1524 C52.4159,173.5114 53.1359,174.0874 53.7119,174.8804 C54.2879,175.6714 54.5759,176.6084 54.6479,177.6874 C54.6479,178.7674 54.4329,179.9194 53.9999,181.0004 C53.5669,182.2244 52.9199,183.1604 52.1279,183.9524 C51.3359,184.7444 50.4719,185.2484 49.4639,185.4634 C49.2479,185.4634 49.0319,185.5364 48.8159,185.5364 L48.8159,183.6644 C49.1759,183.5914 49.4639,183.4484 49.7519,183.3044 C50.6879,182.7994 51.4079,181.7924 51.9829,180.2084 C52.5599,178.7674 52.7039,177.5444 52.4159,176.5364 C52.0559,175.5994 51.4789,174.9524 50.6159,174.5914 C50.0399,174.3764 49.4639,174.3764 48.8159,174.5194 L48.8159,172.9354 Z" id="Fill-5" fill="#221F20" sketch:type="MSShapeGroup"></path>
            <path d="M58.3916,175.8164 L68.1126,178.4804 L67.6796,180.1364 L63.7916,179.1284 L61.0556,189.4234 L59.0396,188.9204 L61.7756,178.5514 L57.8876,177.5444 L58.3916,175.8164 Z" id="Fill-7" fill="#221F20" sketch:type="MSShapeGroup"></path>
            <path d="M71.6396,178.9121 L73.6556,179.2711 L72.0716,188.5601 L79.4156,180.2801 L81.6486,180.6411 L79.4876,192.8801 L77.4716,192.5191 L79.0556,183.2321 L71.7116,191.5121 L69.4796,191.1521 L71.6396,178.9121 Z" id="Fill-9" fill="#221F20" sketch:type="MSShapeGroup"></path>
            <path d="M90.288,194.1757 L89.712,194.1757 C88.416,194.1037 87.264,193.4557 86.4,192.2327 C85.464,191.0077 85.104,189.3517 85.248,187.1917 C85.392,185.3927 85.968,183.9517 86.904,182.7997 C87.84,181.7207 88.92,181.1447 90.288,181.2157 L90.288,182.9447 C89.567,183.0157 88.992,183.3757 88.487,184.0237 C87.84,184.7437 87.552,185.8967 87.408,187.3357 C87.264,189.0647 87.479,190.3597 88.056,191.1527 C88.559,191.9447 89.279,192.4487 90.144,192.4487 L90.288,192.4487 L90.288,194.1757 Z M93.96,176.9687 L96.048,177.1117 L95.616,183.0877 C96.12,182.5837 96.624,182.2247 97.128,182.0077 C97.487,181.9357 97.849,181.8647 98.208,181.7917 L98.208,183.4487 C97.344,183.5197 96.696,183.8087 96.264,184.5287 C95.688,185.3207 95.4,186.4727 95.256,188.1277 C95.112,189.9997 95.328,191.2247 95.76,191.9447 C96.264,192.5917 96.84,192.9517 97.632,193.0237 L98.208,193.0237 L98.208,194.7517 L97.92,194.7517 C97.416,194.7517 96.983,194.6077 96.552,194.4637 C96.048,194.2477 95.544,193.8887 94.896,193.1677 L94.536,198.9997 L92.447,198.8557 L92.809,193.0237 C92.376,193.4557 91.872,193.7437 91.368,193.9597 C91.008,194.1037 90.648,194.1757 90.288,194.1757 L90.288,192.4487 C91.151,192.5197 91.8,192.1597 92.304,191.4397 C92.809,190.7207 93.096,189.5687 93.168,188.0567 C93.313,186.4007 93.168,185.1757 92.735,184.3127 C92.304,183.4487 91.655,183.0157 90.648,182.9447 L90.288,182.9447 L90.288,181.2157 L90.576,181.2157 C91.224,181.2877 91.8,181.4317 92.232,181.7207 C92.735,182.0077 93.168,182.3677 93.528,182.8717 L93.96,176.9687 Z M98.208,181.7917 L98.856,181.7917 C100.368,181.8647 101.447,182.5837 102.239,183.8797 C103.032,185.1757 103.319,186.7597 103.176,188.6317 C103.032,190.5037 102.528,192.0877 101.447,193.1677 C100.512,194.2477 99.433,194.7517 98.208,194.7517 L98.208,193.0237 C98.784,192.9517 99.433,192.5917 99.937,192.0157 C100.584,191.2247 100.944,189.9997 101.088,188.3437 C101.16,186.7597 101.017,185.6077 100.512,184.8167 C100.008,183.9517 99.288,183.5197 98.424,183.4487 L98.208,183.4487 L98.208,181.7917 Z" id="Fill-11" fill="#221F20" sketch:type="MSShapeGroup"></path>
            <path d="M107.0634,181.9355 L109.1514,181.8645 L109.6554,191.2955 L114.9834,181.5035 L117.2884,181.4315 L117.9364,193.8165 L115.7754,193.9595 L115.3434,184.5285 L109.9444,194.2475 L107.7124,194.3925 L107.0634,181.9355 Z" id="Fill-13" fill="#221F20" sketch:type="MSShapeGroup"></path>
            <path d="M122.04,180.9277 L124.128,180.6407 L124.849,185.9687 C125.496,185.8967 125.928,185.6797 126.216,185.3927 C126.433,185.1037 126.72,184.3127 127.08,183.0157 C127.296,182.0077 127.584,181.2877 127.8,180.9277 C128.017,180.6407 128.232,180.3517 128.592,180.2077 C128.88,180.0647 129.384,179.9197 130.176,179.7757 L130.608,179.7757 L130.823,181.5037 L130.248,181.5757 C129.672,181.6487 129.313,181.7917 129.239,181.9357 C129.096,182.1527 128.88,182.6567 128.664,183.5917 C128.447,184.3837 128.232,185.0327 128.017,185.3927 C127.8,185.6797 127.44,186.0397 126.937,186.4007 C127.872,186.4727 128.88,187.1917 129.96,188.4887 L132.768,192.0157 L130.464,192.3047 L127.727,188.8477 C127.151,188.1277 126.648,187.6967 126.288,187.4807 C125.928,187.2637 125.496,187.1917 125.063,187.2637 L125.856,192.9517 L123.768,193.3127 L122.04,180.9277 Z" id="Fill-15" fill="#221F20" sketch:type="MSShapeGroup"></path>
            <path d="M140.9043,179.1279 L140.9043,177.1839 C140.4003,177.2559 139.8233,177.3279 139.1753,177.5439 C138.1683,177.7599 137.3033,178.1919 136.5843,178.6959 C135.8633,179.1999 135.3593,179.7039 135.0713,180.3519 C134.8563,180.9999 134.7123,181.7919 134.7843,182.6559 L136.7993,182.4389 C136.7993,181.5039 137.0163,180.7839 137.3763,180.3519 C137.7353,179.9199 138.3833,179.5609 139.3193,179.2709 C139.9673,179.1279 140.4713,179.0569 140.9043,179.1279 L140.9043,179.1279 Z M140.9043,190.5039 L140.9043,190.5039 C139.5363,190.8639 138.4563,190.7919 137.5913,190.3589 C136.7273,189.9279 136.1513,189.2079 135.8633,188.1999 C135.7193,187.6239 135.7193,187.0479 135.8633,186.4729 C135.9363,185.8959 136.2233,185.3929 136.5843,185.0319 C136.9443,184.5999 137.3763,184.2399 137.8793,183.9519 C138.2393,183.7359 138.8163,183.4479 139.6083,183.1599 C140.0403,182.9439 140.5443,182.7999 140.9043,182.5839 L140.9043,184.4559 C140.7593,184.5999 140.5443,184.6719 140.3283,184.7439 C139.5363,185.1039 138.9603,185.3929 138.6723,185.6069 C138.3833,185.8959 138.1683,186.1839 138.0243,186.4729 C137.9523,186.8319 137.9523,187.1909 138.0243,187.5529 C138.1683,188.0569 138.4563,188.4879 139.0323,188.7039 C139.5363,188.9919 140.1123,188.9919 140.9043,188.7749 L140.9043,190.5039 Z M144.8633,187.5529 C144.2883,188.4159 143.6393,189.0639 143.0633,189.4959 C142.4163,189.9999 141.6963,190.2879 140.9043,190.5039 L140.9043,188.7749 L140.9753,188.7749 C141.6963,188.5609 142.4163,188.1999 142.9203,187.6959 C143.4243,187.1909 143.7123,186.6159 143.8563,185.9689 C144.0003,185.4639 143.9273,184.7439 143.6393,183.8089 L143.4243,183.0879 C142.9203,183.5199 142.0553,183.9519 140.9043,184.4559 L140.9043,182.5839 C141.8403,182.1519 142.5593,181.7919 142.9923,181.5039 C142.9923,181.2159 142.9203,180.9999 142.9203,180.9279 C142.7043,180.1369 142.3433,179.5609 141.8403,179.3439 C141.5513,179.1999 141.2633,179.1279 140.9043,179.1279 L140.9043,177.1839 L141.7673,177.1839 C142.4873,177.2559 143.0633,177.4729 143.4243,177.7599 C143.8563,178.0479 144.1433,178.4079 144.4323,178.9839 C144.5763,179.2709 144.7923,179.9199 145.0803,180.7839 L145.7993,183.5199 C146.3033,185.3929 146.6643,186.6159 146.8793,187.0479 C147.0953,187.5529 147.3833,187.9839 147.7443,188.4159 L145.6553,188.9919 C145.2963,188.5609 145.0803,188.1279 144.8633,187.5529 L144.8633,187.5529 Z" id="Fill-17" fill="#221F20" sketch:type="MSShapeGroup"></path>
            <path d="M148.8964,175.2402 L150.8394,174.5192 L154.3684,184.6722 L159.8394,182.7282 L156.3834,172.6482 L158.4004,171.9272 L161.8564,182.0802 L163.1514,181.6482 L164.8794,186.6162 L163.2234,187.1202 L162.0714,183.8082 L152.9274,186.9762 L148.8964,175.2402 Z" id="Fill-19" fill="#221F20" sketch:type="MSShapeGroup"></path>
            <path d="M162.7919,170.1279 L164.7349,169.1919 L168.8399,177.6879 L169.9199,166.5999 L172.0079,165.5919 L177.4799,176.8239 L175.5359,177.6879 L171.4329,169.2639 L170.2789,180.2799 L168.2639,181.2879 L162.7919,170.1279 Z" id="Fill-21" fill="#221F20" sketch:type="MSShapeGroup"></path>
            <path d="M182.1601,168.3281 L182.1601,166.4561 C181.6551,166.6721 181.1511,166.8161 180.7921,166.8161 C180.1431,166.8161 179.6401,166.5281 179.2081,165.8811 C178.9201,165.4481 178.8491,164.9431 178.9201,164.4391 C179.0631,163.9351 179.6401,163.2881 180.6471,162.6411 L182.1601,161.6321 L182.1601,159.5441 L179.1361,161.5601 C177.9121,162.2801 177.1911,163.2161 176.9031,164.1521 C176.6881,165.1601 176.8321,166.0961 177.4081,167.0321 C177.9121,167.7521 178.5591,168.2561 179.4241,168.5441 C180.2881,168.8321 181.1511,168.6871 182.1601,168.3281 L182.1601,168.3281 Z M182.1601,174.3761 L181.5121,174.8081 L181.5841,170.7761 C181.6551,169.7671 181.8001,168.9761 182.1601,168.4731 L182.1601,174.3761 Z M183.9601,158.3921 L190.8001,168.8321 L189.0001,169.9841 L186.3361,165.8811 L185.3281,166.5281 C184.7521,166.9601 184.3191,167.3201 184.1041,167.6801 C183.8881,168.0401 183.8161,168.8321 183.8161,170.1281 L183.7441,173.3681 L182.1601,174.3761 L182.1601,168.4731 C182.2321,168.4001 182.3041,168.2561 182.3761,168.1831 C182.3041,168.2561 182.2321,168.2561 182.1601,168.3281 L182.1601,166.4561 C182.5201,166.2401 182.9521,166.0231 183.4561,165.7361 L185.4001,164.4391 L183.1681,160.9841 L182.1601,161.6321 L182.1601,159.5441 L183.9601,158.3921 Z" id="Fill-23" fill="#221F20" sketch:type="MSShapeGroup"></path>
            <g id="Group-27">
                <mask id="mask-2" sketch:name="Clip 26" fill="white">
                    <use xlink:href="#path-1"></use>
                </mask>
                <g id="Clip-26"></g>
                <path d="M156.2392,78.5439 L198.2162,78.5439 L198.2162,93.3759 L188.7122,93.3759 L188.7122,111.0159 L167.1122,111.0159 L167.1122,93.3759 L156.2392,93.3759 L156.2392,78.5439 Z" id="Fill-25" fill="#221F20" sketch:type="MSShapeGroup" mask="url(#mask-2)"></path>
            </g>
            <path d="M58.0322,107.416 C55.2962,107.416 53.9282,107.416 51.2632,106.12 L51.2632,90.352 C51.8402,90.712 52.5592,91.216 58.0322,91.216 C63.4322,91.216 70.2002,87.112 70.2002,78.976 C70.2002,70.912 63.6482,66.808 58.0322,66.808 C52.4162,66.808 45.7922,72.208 45.7922,78.976 L46.1512,141.473 C39.0242,141.184 31.1042,136.864 29.7352,129.232 L29.7352,76.96 C29.8082,63.136 42.2632,50.608 57.3842,50.608 C72.6482,50.608 86.4712,62.776 86.4712,79.264 C86.4712,95.824 71.5672,107.416 58.0322,107.416 M175.8962,69.112 L175.8962,40.384 C102.8162,-0.728 0.0002,27.784 0.0002,95.968 C0.0002,172 102.8162,191.008 175.8962,154 L175.8962,123.904 C148.8232,133.48 102.8162,130.744 102.8162,96.544 C102.8162,62.272 142.9922,57.52 175.8962,69.112" id="Fill-28" fill="#221F20" sketch:type="MSShapeGroup"></path>
            <path d="M10.2236,24.5439 L18.8636,18.7119 L19.2956,19.3599 L19.2956,23.3919 L18.1436,21.6639 L13.1756,24.9759 L13.6796,25.7679 C14.4716,26.9199 15.4796,28.6479 16.7036,30.9519 C17.8566,33.1839 18.6476,35.1999 18.9366,36.9999 L19.2956,36.7119 L19.2956,39.1599 L18.6476,39.5919 L19.2956,40.5279 L19.2956,43.9839 L19.2236,44.0559 L15.8396,39.0159 L16.9916,38.2959 C16.9196,35.7759 15.1916,31.8879 11.5916,26.6319 L10.2236,24.5439 Z M19.2956,40.5279 L20.9526,42.9039 L19.2956,43.9839 L19.2956,40.5279 Z M19.2956,19.3599 L27.3596,31.2399 L28.6556,30.3759 L32.0396,35.4159 L30.3126,36.5679 L28.0796,33.2559 L19.2956,39.1599 L19.2956,36.7119 L25.4876,32.5359 L19.2956,23.3919 L19.2956,19.3599 Z" id="Fill-30" fill="#221F20" sketch:type="MSShapeGroup"></path>
            <path d="M30.6718,24.6162 C29.6638,22.5282 29.5208,20.7282 30.2388,19.2162 C30.8168,17.9202 31.8228,16.9122 33.1918,16.2642 C34.1278,15.8322 34.9918,15.6162 35.9278,15.6882 L35.9278,17.5602 C35.2788,17.4882 34.5598,17.5602 33.9118,17.8482 C32.9758,18.2802 32.3278,19.0722 32.0398,20.0802 C31.7518,21.0882 31.9678,22.3122 32.6158,23.7522 C33.2638,25.1922 34.1278,26.1282 35.0638,26.5602 C35.3518,26.6322 35.6398,26.7762 35.9278,26.7762 L35.9278,28.7202 C35.3518,28.7202 34.7038,28.5762 34.1278,28.3602 C32.6878,27.7842 31.5358,26.5602 30.6718,24.6162 L30.6718,24.6162 Z M35.9278,15.6882 C36.5038,15.6882 37.0798,15.8322 37.7278,16.0482 C39.1678,16.6242 40.3198,17.7762 41.1128,19.5762 C41.8318,21.0162 42.1198,22.2402 42.0478,23.3202 C42.0478,24.3282 41.6878,25.2642 41.1128,26.1282 C40.4638,26.9922 39.6718,27.6402 38.6638,28.0722 C37.7278,28.5042 36.7918,28.7202 35.9278,28.7202 L35.9278,26.7762 C36.5758,26.9202 37.2958,26.8482 37.9448,26.4882 C38.8798,26.0562 39.5288,25.3362 39.8168,24.3282 C40.1048,23.3202 39.8878,22.0242 39.2388,20.5842 C38.5918,19.1442 37.7278,18.2802 36.7918,17.8482 C36.5038,17.7042 36.2158,17.6322 35.9278,17.5602 L35.9278,15.6882 Z" id="Fill-32" fill="#221F20" sketch:type="MSShapeGroup"></path>
            <path d="M50.9043,3.8803 L50.9043,3.8803 L50.9043,6.4723 C50.4713,6.6883 49.9673,6.8323 49.3193,7.0483 C47.6643,7.5513 46.5843,8.1283 46.0803,8.6323 C45.5763,9.1353 45.3593,9.7843 45.2883,10.5763 C45.2883,11.3683 45.4323,12.3043 45.7193,13.4563 C46.0083,12.5203 46.4403,11.8003 46.9443,11.1523 C47.5203,10.5763 48.2393,10.1443 49.1043,9.8563 C49.6793,9.6403 50.3283,9.5683 50.9043,9.5683 L50.9043,11.3683 C50.4713,11.2963 50.0403,11.3683 49.5363,11.5123 C48.4563,11.8723 47.7353,12.5913 47.3763,13.6003 C47.0883,14.6803 47.1603,15.8323 47.5913,17.2723 C48.0243,18.6403 48.6723,19.5763 49.6083,20.0803 C50.0403,20.2963 50.4713,20.4403 50.9043,20.5123 L50.9043,22.3833 C50.3283,22.3833 49.8233,22.3123 49.3193,22.0963 C48.3833,21.7353 47.5203,21.0883 46.7273,20.2243 C46.0083,19.3603 45.2163,17.6323 44.4243,15.1843 C43.4163,12.0163 43.2723,9.7843 43.9203,8.3433 C44.6393,6.9033 46.0803,5.8243 48.3123,5.1043 C49.6793,4.6723 50.4713,4.3833 50.6163,4.3123 C50.7593,4.1683 50.9043,4.0243 50.9043,3.8803 L50.9043,3.8803 Z M50.9043,9.5683 C51.7673,9.5683 52.6323,9.7843 53.4243,10.2163 C54.7923,10.9363 55.8003,12.2323 56.3763,14.0323 C56.8083,15.4003 56.9523,16.6243 56.7353,17.7043 C56.5203,18.7123 56.0883,19.6483 55.5843,20.3683 C55.0083,21.0163 54.1433,21.5913 52.9203,22.0243 C52.2003,22.2403 51.5513,22.3123 50.9043,22.3833 L50.9043,20.5123 C51.4083,20.5843 51.9123,20.5123 52.4163,20.3683 C53.4243,20.0803 54.0713,19.3603 54.4323,18.3523 C54.7923,17.2723 54.7193,16.0483 54.2883,14.6803 C53.8563,13.4563 53.2793,12.5203 52.4163,11.9443 C51.9123,11.5843 51.4793,11.4403 50.9043,11.3683 L50.9043,9.5683 Z M50.9043,3.8803 L52.6323,3.3043 C52.8483,4.1683 52.8483,4.7443 52.6323,5.1753 C52.4873,5.5363 52.2003,5.8963 51.8403,6.1123 C51.6243,6.1843 51.3363,6.3283 50.9043,6.4723 L50.9043,3.8803 Z" id="Fill-34" fill="#221F20" sketch:type="MSShapeGroup"></path>
            <path d="M63.7197,23.1757 L59.8317,6.4007 L61.7037,5.9677 L62.0637,7.5517 C62.3517,6.8317 62.7117,6.2567 63.2157,5.8237 C63.7197,5.3917 64.3677,5.0317 65.1597,4.8877 C65.5917,4.7437 65.9517,4.7437 66.3837,4.7437 L66.3837,6.4717 C66.0247,6.4007 65.6637,6.4717 65.3037,6.5437 C64.4407,6.6877 63.7917,7.3357 63.2877,8.2717 C62.7837,9.2797 62.7117,10.5037 63.0717,12.0887 C63.4327,13.6727 64.0077,14.7517 64.8717,15.3277 C65.3037,15.6877 65.8087,15.9037 66.3837,15.9757 L66.3837,17.6317 C66.2397,17.6317 66.0957,17.5597 65.9517,17.5597 C65.3757,17.4157 64.7997,17.1277 64.3677,16.7677 L65.7357,22.6727 L63.7197,23.1757 Z M66.3837,4.7437 C66.9597,4.7437 67.5357,4.8157 68.0397,5.0317 C68.9757,5.3917 69.7677,5.9677 70.3437,6.9037 C70.9917,7.7677 71.4237,8.7767 71.7117,9.9277 C71.9997,11.1527 72.0717,12.3037 71.8567,13.4557 C71.6397,14.5357 71.1357,15.4007 70.4157,16.1927 C69.6967,16.9117 68.8317,17.3437 67.8967,17.5597 C67.3917,17.7037 66.8877,17.7037 66.3837,17.6317 L66.3837,15.9757 C66.6717,16.0477 67.0327,15.9757 67.3917,15.9037 C68.3277,15.6877 68.9757,15.1117 69.4797,14.2477 C69.9117,13.3117 69.9837,12.0157 69.6237,10.4317 C69.2637,8.8477 68.6877,7.7677 67.8967,7.1197 C67.3917,6.7597 66.8877,6.5437 66.3837,6.4717 L66.3837,4.7437 Z" id="Fill-36" fill="#221F20" sketch:type="MSShapeGroup"></path>
            <path d="M76.1044,9.208 C75.8164,6.976 76.2484,5.176 77.4004,3.88 C78.3364,2.872 79.6314,2.224 81.1434,2.08 C81.3594,2.008 81.6484,2.008 81.9364,2.008 L81.9364,3.736 C81.7194,3.736 81.5044,3.808 81.3594,3.808 C80.2794,3.952 79.4874,4.456 78.9124,5.32 C78.2634,6.184 78.0474,7.408 78.2634,8.992 C78.4794,10.576 78.9834,11.656 79.7754,12.376 C80.3514,12.952 81.0714,13.24 81.9364,13.312 L81.9364,15.04 C80.4964,15.04 79.3434,14.68 78.3364,13.816 C77.1124,12.88 76.3914,11.296 76.1044,9.208 L76.1044,9.208 Z M81.9364,2.008 C83.3034,2.008 84.4564,2.368 85.4634,3.232 C86.6874,4.24 87.4084,5.68 87.6964,7.624 C87.8394,9.208 87.7674,10.504 87.4084,11.44 C87.0474,12.448 86.4714,13.24 85.6084,13.816 C84.7444,14.464 83.8084,14.824 82.7274,14.968 C82.4404,15.04 82.1514,15.04 81.9364,15.04 L81.9364,13.312 C82.0804,13.312 82.2964,13.312 82.5114,13.24 C83.5204,13.096 84.3834,12.592 84.9604,11.728 C85.5364,10.864 85.7524,9.64 85.5364,7.984 C85.3194,6.472 84.8874,5.392 84.0954,4.672 C83.4474,4.096 82.7274,3.808 81.9364,3.736 L81.9364,2.008 Z" id="Fill-38" fill="#221F20" sketch:type="MSShapeGroup"></path>
            <path d="M92.5205,1.144 L97.3435,1 L97.3435,2.8 L96.9835,2.8 L94.6085,2.8 L94.6795,6.328 L96.9125,6.256 L97.3435,6.256 L97.3435,7.984 L97.2725,7.984 L94.7515,8.056 L94.8235,11.8 L97.3435,11.728 L97.3435,13.456 L92.7355,13.528 L92.5205,1.144 Z M97.3435,1 L97.3435,1 C98.5675,1 99.4325,1.072 100.0075,1.288 C100.5835,1.504 101.0875,1.792 101.5205,2.368 C101.9525,2.872 102.1675,3.52 102.1675,4.24 C102.2395,4.816 102.0955,5.392 101.8795,5.824 C101.5915,6.256 101.2325,6.616 100.7995,6.904 C101.3755,7.12 101.8795,7.48 102.2395,7.984 C102.6715,8.56 102.8165,9.136 102.8875,9.928 C102.8165,11.08 102.3835,11.944 101.6635,12.52 C100.8715,13.096 99.7915,13.456 98.3515,13.456 L97.3435,13.456 L97.3435,11.728 L97.5595,11.728 C98.7845,11.728 99.5765,11.584 100.0075,11.296 C100.4405,11.008 100.6555,10.504 100.7275,9.856 C100.6555,9.424 100.5835,9.064 100.2955,8.704 C100.0075,8.416 99.7195,8.2 99.2875,8.128 C98.8565,8.056 98.2075,7.984 97.3435,7.984 L97.3435,6.256 C98.0635,6.256 98.4955,6.184 98.7845,6.112 C99.1435,5.968 99.4325,5.824 99.6485,5.536 C99.9365,5.248 100.0795,4.888 100.0795,4.456 C100.0795,3.808 99.7915,3.376 99.3595,3.16 C98.9275,2.872 98.2795,2.8 97.3435,2.8 L97.3435,1 Z" id="Fill-40" fill="#221F20" sketch:type="MSShapeGroup"></path>
            <path d="M106.6318,7.1923 C106.7748,4.8883 107.4958,3.2323 108.7918,2.1523 C109.8718,1.3603 111.0958,0.9273 112.4638,1.0003 L112.4638,2.7283 C111.5278,2.7283 110.7358,3.0883 110.0168,3.7353 C109.2958,4.5283 108.8628,5.6803 108.7918,7.2643 C108.7198,8.8483 109.0078,10.0723 109.6548,10.9363 C110.3038,11.7283 111.1678,12.1603 112.2478,12.2323 L112.4638,12.2323 L112.4638,13.9603 L112.1048,13.9603 C110.3758,13.8883 109.0078,13.2403 107.9998,12.0883 C106.9918,10.9363 106.5598,9.2803 106.6318,7.1923 L106.6318,7.1923 Z M112.4638,1.0003 L112.8228,1.0003 C114.4798,1.0723 115.8488,1.7203 116.9278,2.8723 C117.9368,4.0243 118.3678,5.6083 118.2958,7.6243 C118.2238,9.2083 117.8628,10.4323 117.3588,11.3683 C116.8568,12.2323 116.1358,12.8803 115.1278,13.3833 C114.3358,13.7443 113.3998,13.9603 112.4638,13.9603 L112.4638,12.2323 C113.3998,12.2323 114.1918,11.8723 114.9118,11.1523 C115.6318,10.4323 116.0638,9.2083 116.1358,7.6243 C116.2078,6.0403 115.9198,4.8883 115.2728,4.0243 C114.6238,3.2323 113.7598,2.7993 112.6798,2.7283 L112.4638,2.7283 L112.4638,1.0003 Z" id="Fill-42" fill="#221F20" sketch:type="MSShapeGroup"></path>
            <path d="M124.7753,2.4399 L134.4233,3.9519 L132.4793,16.2639 L130.4633,15.9039 L132.1203,5.3199 L126.5763,4.4559 L125.6393,10.5759 C125.4233,12.0159 125.2083,12.9519 125.0633,13.3839 C124.8483,13.8159 124.5593,14.1759 124.0553,14.4639 C123.6243,14.7519 122.9753,14.8239 122.1833,14.6799 C121.6793,14.6089 121.1753,14.4639 120.5283,14.3199 L120.8163,12.5919 L121.7523,12.7359 C122.1833,12.8079 122.4713,12.8079 122.6873,12.7359 C122.8323,12.6639 122.9753,12.5919 123.1203,12.3759 C123.1913,12.2319 123.3363,11.5839 123.4793,10.5039 L124.7753,2.4399 Z" id="Fill-44" fill="#221F20" sketch:type="MSShapeGroup"></path>
            <path d="M140.2558,5.392 L142.2728,5.896 L141.1918,10.648 L142.9918,11.008 L142.9918,12.808 L140.8318,12.304 L139.8968,16.336 L142.0558,16.84 C142.4158,16.912 142.7038,16.984 142.9918,16.984 L142.9918,18.784 C142.8488,18.784 142.7038,18.784 142.5598,18.712 L137.4468,17.56 L140.2558,5.392 Z M142.9918,11.008 L143.7838,11.224 C145.5118,11.584 146.7348,12.232 147.4558,13.096 C148.2478,13.96 148.5358,14.968 148.2478,16.12 C148.0318,17.2 147.3838,17.92 146.5208,18.496 C145.6548,19 144.5038,19.072 142.9918,18.784 L142.9918,16.984 C143.8568,17.128 144.5038,17.128 144.9368,16.984 C145.5838,16.768 145.9438,16.336 146.0878,15.688 C146.2328,15.184 146.1598,14.608 145.7998,14.104 C145.5118,13.6 144.6488,13.24 143.2078,12.88 L142.9918,12.808 L142.9918,11.008 Z" id="Fill-46" fill="#221F20" sketch:type="MSShapeGroup"></path>
            <path d="M155.5918,9.6401 L157.6088,10.3601 L155.8088,15.2561 L161.3528,17.2001 L163.0798,12.3761 L165.0958,13.0961 L160.8488,24.7601 L158.8318,24.0401 L160.7038,18.8561 L155.2328,16.8401 L153.3598,22.0241 L151.3438,21.3041 L155.5918,9.6401 Z" id="Fill-48" fill="#221F20" sketch:type="MSShapeGroup"></path>
            <path d="M171.7919,19.3603 C171.5039,19.5043 171.2159,19.7923 170.9279,20.1523 L169.1999,18.9273 C169.7749,18.2083 170.3529,17.7763 170.9999,17.4883 C171.2159,17.3433 171.5039,17.2723 171.7919,17.2003 L171.7919,19.3603 Z M171.7919,29.5843 L170.7839,29.5843 C169.9919,29.5123 169.2719,29.2243 168.4789,28.8643 C167.2559,28.2883 166.5359,27.4963 166.1759,26.5603 C165.8159,25.6243 165.8879,24.6883 166.3189,23.7523 C166.6079,23.2483 166.9679,22.8163 167.4719,22.4563 C167.9029,22.1683 168.4079,21.9523 168.9829,21.8803 C169.4869,21.8083 170.0629,21.8803 170.6399,21.9523 C170.9279,22.0243 171.2879,22.1683 171.7919,22.3123 L171.7919,24.1113 C170.9999,23.8963 170.4959,23.7523 170.1359,23.7523 C169.7039,23.7523 169.4159,23.8243 169.0559,23.9683 C168.7679,24.1843 168.5519,24.4003 168.3359,24.7593 C168.1199,25.2643 168.0479,25.7683 168.2639,26.2723 C168.4789,26.7763 168.9829,27.2803 169.7039,27.6403 C170.4239,28.0003 171.0709,28.1443 171.7919,28.1443 L171.7919,29.5843 Z M173.3759,29.3683 C172.7999,29.4403 172.2959,29.5843 171.7919,29.5843 L171.7919,28.1443 L171.8629,28.1443 C172.5839,28.1443 173.2319,27.8563 173.8079,27.4963 C174.1679,27.1353 174.6009,26.5603 175.0319,25.7683 L175.3919,25.0473 C174.6009,24.9763 173.4479,24.6883 171.9369,24.1843 L171.7919,24.1113 L171.7919,22.3123 C172.0079,22.3833 172.2239,22.4563 172.4399,22.5283 C174.0959,23.1043 175.3189,23.4643 176.1119,23.6083 C176.2559,23.3193 176.3999,23.1753 176.3999,23.1043 C176.7599,22.3123 176.9029,21.7353 176.6879,21.2323 C176.3999,20.5123 175.8229,19.9363 174.8879,19.5043 C174.0239,19.0723 173.2319,18.8563 172.6549,18.9273 C172.3679,19.0003 172.0799,19.1443 171.7919,19.3603 L171.7919,17.2003 C172.2239,17.1283 172.7279,17.1283 173.2319,17.2003 C174.0959,17.2723 174.9599,17.5603 175.9679,18.0643 C176.9029,18.5683 177.6239,19.0723 178.0559,19.5763 C178.5599,20.0803 178.8489,20.5843 178.9199,21.0883 C179.0629,21.5913 179.0629,22.0963 178.9199,22.6723 C178.7749,23.0323 178.4869,23.6083 178.1279,24.4723 L176.8319,26.9203 C175.8959,28.7203 175.3919,29.7993 175.2479,30.3043 C175.1049,30.8083 175.0319,31.3833 175.0319,31.8883 L173.0879,30.8803 C173.0879,30.3763 173.2319,29.8723 173.3759,29.3683 L173.3759,29.3683 Z" id="Fill-50" fill="#221F20" sketch:type="MSShapeGroup"></path>
            <path d="M187.8486,38.3681 L186.8396,39.8801 L185.1126,38.6561 L187.8486,34.6961 L186.8396,33.9761 C186.1916,33.5441 185.6886,33.3281 185.2556,33.3281 C184.8966,33.2561 184.1046,33.4721 182.9526,33.9761 L179.8566,35.2001 L177.6966,33.6881 L181.4406,32.1761 C182.5916,31.7441 183.5286,31.6721 184.1756,31.8881 C183.2396,31.0961 182.7356,30.2321 182.6636,29.3681 C182.5916,28.4321 182.8076,27.6401 183.3116,26.8481 C183.8876,25.9841 184.6796,25.4081 185.6886,25.3361 C186.4086,25.1921 187.1276,25.3361 187.8486,25.6961 L187.8486,27.7121 C187.2006,27.3521 186.6236,27.2081 186.2636,27.2801 C185.7596,27.4241 185.3276,27.6401 185.0396,28.0721 C184.6086,28.7201 184.5356,29.2961 184.7516,29.8721 C185.0396,30.5201 185.7596,31.1681 186.8396,31.9601 L187.8486,32.6081 L187.8486,38.3681 Z M193.8236,29.5841 L187.8486,38.3681 L187.8486,32.6081 L188.7836,33.2561 L191.0876,29.8001 L188.5676,28.1441 C188.3526,28.0001 188.0636,27.7841 187.8486,27.7121 L187.8486,25.6961 C188.2076,25.8401 188.6396,26.0561 188.9996,26.3441 L193.8236,29.5841 Z" id="Fill-52" fill="#221F20" sketch:type="MSShapeGroup"></path>
        </g>
    </g>
</svg>