<?xml version="1.0" encoding="UTF-8" standalone="no"?>
<svg width="152px" height="71px" viewBox="0 0 152 71" version="1.1" xmlns="http://www.w3.org/2000/svg" xmlns:xlink="http://www.w3.org/1999/xlink" xmlns:sketch="http://www.bohemiancoding.com/sketch/ns">
    <!-- Generator: Sketch 3.3.3 (12072) - http://www.bohemiancoding.com/sketch -->
    <title>veritas</title>
    <desc>Created with Sketch.</desc>
    <defs></defs>
    <g id="Page-1" stroke="none" stroke-width="1" fill="none" fill-rule="evenodd" sketch:type="MSPage">
        <g id="veritas" sketch:type="MSLayerGroup" fill="#575C65">
            <path d="M151.792364,61.3643636 L130.953091,61.3643636 L130.953091,60.2734545 L150.701455,60.2734545 L150.701455,9.82545455 L130.953091,9.82545455 L130.953091,8.73454545 L151.792364,8.73454545 L151.792364,61.3643636" id="Fill-1" sketch:type="MSShapeGroup"></path>
            <path d="M90.4207273,61.3643636 L0.207636364,61.3643636 L0.207636364,8.73454545 L90.4203636,8.73454545 L90.4203636,9.82545455 L1.29854545,9.82545455 L1.29854545,60.2734545 L90.4207273,60.2734545 L90.4207273,61.3643636" id="Fill-2" sketch:type="MSShapeGroup"></path>
            <path d="M6.50509091,18.2978182 L7.85054545,18.2978182 L7.85054545,24.7301818 L6.50509091,24.7301818 L6.50509091,18.2978182 Z" id="Fill-3" sketch:type="MSShapeGroup"></path>
            <path d="M10.7276364,24.8370909 C9.06181818,24.8370909 8.75018182,23.8570909 8.82145455,22.7436364 L10.1665455,22.7436364 C10.1665455,23.3581818 10.1934545,23.8749091 10.9327273,23.8749091 C11.3872727,23.8749091 11.6098182,23.5810909 11.6098182,23.1447273 C11.6098182,21.9861818 8.90145455,21.9149091 8.90145455,19.9996364 C8.90145455,18.9930909 9.38254545,18.1909091 11.0218182,18.1909091 C12.3316364,18.1909091 12.9818182,18.7792727 12.8927273,20.1243636 L11.5832727,20.1243636 C11.5832727,19.6432727 11.5029091,19.1530909 10.9596364,19.1530909 C10.5229091,19.1530909 10.2643636,19.3938182 10.2643636,19.8392727 C10.2643636,21.06 12.9730909,20.9527273 12.9730909,22.9752727 C12.9730909,24.6410909 11.7523636,24.8370909 10.7276364,24.8370909" id="Fill-4" sketch:type="MSShapeGroup"></path>
            <path d="M13.8727273,21.5141818 C13.8727273,19.8123636 13.8727273,18.1909091 16.0912727,18.1909091 C18.3094545,18.1909091 18.3094545,19.8123636 18.3094545,21.5141818 C18.3094545,23.1978182 18.3094545,24.8370909 16.0912727,24.8370909 C13.8727273,24.8370909 13.8727273,23.1978182 13.8727273,21.5141818 L13.8727273,21.5141818 Z M16.9461818,21.5141818 C16.9461818,19.8658182 16.8483636,19.1530909 16.0912727,19.1530909 C15.3338182,19.1530909 15.2356364,19.8658182 15.2356364,21.5141818 C15.2356364,23.1621818 15.3338182,23.8749091 16.0912727,23.8749091 C16.8483636,23.8749091 16.9461818,23.1621818 16.9461818,21.5141818 L16.9461818,21.5141818 Z" id="Fill-5" sketch:type="MSShapeGroup"></path>
            <path d="M22.3007273,23.2690909 C22.3007273,23.4294545 22.3185455,23.5898182 22.3898182,23.7058182 C22.4610909,23.8214545 22.5767273,23.9018182 22.764,23.9018182 C23.3872727,23.9018182 23.3163636,23.3938182 23.3163636,21.9149091 C23.0309091,22.2 22.6836364,22.3250909 22.2829091,22.3250909 C21.3294545,22.3250909 20.9643636,21.4698182 20.9643636,20.6410909 C20.9643636,19.4203636 21.3385455,18.4316364 22.7370909,18.4316364 C24.5814545,18.4316364 24.5723636,19.9018182 24.5723636,21.6476364 C24.5723636,23.18 24.5458182,24.8105455 22.728,24.8105455 C21.6501818,24.8105455 21.0265455,24.4450909 21.0530909,23.2690909 L22.3007273,23.2690909 L22.3007273,23.2690909 Z M22.7549091,21.4698182 C23.2894545,21.4698182 23.3163636,20.748 23.3163636,20.3647273 C23.3163636,19.9727273 23.2985455,19.2869091 22.764,19.2869091 C22.2203636,19.2869091 22.2203636,20.0083636 22.2203636,20.3916364 C22.2203636,20.7745455 22.2203636,21.4698182 22.7549091,21.4698182 L22.7549091,21.4698182 Z" id="Fill-6" sketch:type="MSShapeGroup"></path>
            <path d="M28.528,21.6032727 C28.528,23.5541818 28.4032727,24.8105455 26.7283636,24.8105455 C25.0534545,24.8105455 24.9287273,23.5541818 24.9287273,21.6032727 C24.9287273,19.2243636 25.196,18.4316364 26.7283636,18.4316364 C28.2607273,18.4316364 28.528,19.2243636 28.528,21.6032727 L28.528,21.6032727 Z M26.1847273,21.6210909 C26.1847273,23.5007273 26.2294545,23.9018182 26.7283636,23.9018182 C27.2269091,23.9018182 27.2716364,23.5007273 27.2716364,21.6210909 C27.2716364,19.7054545 27.2629091,19.3403636 26.7283636,19.3403636 C26.1938182,19.3403636 26.1847273,19.7054545 26.1847273,21.6210909 L26.1847273,21.6210909 Z" id="Fill-7" sketch:type="MSShapeGroup"></path>
            <path d="M32.4836364,21.6032727 C32.4836364,23.5541818 32.3585455,24.8105455 30.6836364,24.8105455 C29.0087273,24.8105455 28.8843636,23.5541818 28.8843636,21.6032727 C28.8843636,19.2243636 29.1516364,18.4316364 30.6836364,18.4316364 C32.216,18.4316364 32.4836364,19.2243636 32.4836364,21.6032727 L32.4836364,21.6032727 Z M30.1403636,21.6210909 C30.1403636,23.5007273 30.1847273,23.9018182 30.6836364,23.9018182 C31.1825455,23.9018182 31.2272727,23.5007273 31.2272727,21.6210909 C31.2272727,19.7054545 31.2185455,19.3403636 30.6836364,19.3403636 C30.1490909,19.3403636 30.1403636,19.7054545 30.1403636,21.6210909 L30.1403636,21.6210909 Z" id="Fill-8" sketch:type="MSShapeGroup"></path>
            <path d="M33.0981818,19.4738182 C33.5436364,19.2243636 33.98,18.9305455 34.3007273,18.5116364 L35.4945455,18.5116364 L35.4945455,24.7301818 L34.1494545,24.7301818 L34.1494545,19.9461818 C33.8283636,20.2134545 33.4632727,20.4450909 33.0981818,20.6410909 L33.0981818,19.4738182" id="Fill-9" sketch:type="MSShapeGroup"></path>
            <path d="M6.58181818,42.1847273 L6.58181818,35.096 L9.21309091,35.096 C10.3421818,35.096 11.2749091,35.42 11.2749091,36.9323636 C11.2749091,37.7469091 10.8723636,38.336 10.0672727,38.4930909 L10.0672727,38.5127273 C11.1178182,38.66 11.3927273,39.3374545 11.3927273,40.3094545 C11.3927273,42.1065455 9.83163636,42.1847273 9.20327273,42.1847273 L6.58181818,42.1847273 L6.58181818,42.1847273 Z M8.06436364,37.9923636 L9.056,37.9923636 C9.38,37.9923636 9.83163636,37.7763636 9.83163636,37.0890909 C9.83163636,36.5690909 9.47818182,36.1858182 8.97745455,36.1858182 L8.06436364,36.1858182 L8.06436364,37.9923636 L8.06436364,37.9923636 Z M8.06436364,41.0949091 L8.88909091,41.0949091 C9.20327273,41.0949091 9.91018182,41.0850909 9.91018182,40.0934545 C9.91018182,39.4650909 9.67454545,39.0821818 8.92836364,39.0821818 L8.06436364,39.0821818 L8.06436364,41.0949091 L8.06436364,41.0949091 Z" id="Fill-10" sketch:type="MSShapeGroup"></path>
            <path d="M17.3523636,35.096 L17.3523636,40.1229091 C17.3523636,41.1832727 16.7534545,42.3025455 14.9469091,42.3025455 C13.3170909,42.3025455 12.5316364,41.4581818 12.5316364,40.1229091 L12.5316364,35.096 L14.0141818,35.096 L14.0141818,40.0247273 C14.0141818,40.8985455 14.3872727,41.2425455 14.9272727,41.2425455 C15.5752727,41.2425455 15.8698182,40.8101818 15.8698182,40.0247273 L15.8698182,35.096 L17.3523636,35.096" id="Fill-11" sketch:type="MSShapeGroup"></path>
            <path d="M20.0130909,42.1847273 L18.5305455,42.1847273 L18.5305455,35.096 L21.2698182,35.096 C22.2810909,35.096 22.9290909,35.744 22.9290909,36.9516364 C22.9290909,37.8552727 22.5756364,38.5323636 21.6134545,38.6898182 L21.6134545,38.7090909 C21.9374545,38.7483636 22.8996364,38.8269091 22.8996364,40.1032727 C22.8996364,40.5549091 22.9290909,41.8901818 23.0665455,42.1847273 L21.6134545,42.1847273 C21.4170909,41.7527273 21.4563636,41.2716364 21.4563636,40.8101818 C21.4563636,39.9658182 21.5349091,39.2490909 20.396,39.2490909 L20.0130909,39.2490909 L20.0130909,42.1847273 L20.0130909,42.1847273 Z M20.0130909,38.1596364 L20.6709091,38.1596364 C21.26,38.1596364 21.4269091,37.5701818 21.4269091,37.1185455 C21.4269091,36.4410909 21.1421818,36.1858182 20.6709091,36.1858182 L20.0130909,36.1858182 L20.0130909,38.1596364 L20.0130909,38.1596364 Z" id="Fill-12" sketch:type="MSShapeGroup"></path>
            <path d="M24.0189091,42.1847273 L24.0189091,35.096 L27.8872727,35.096 L27.8872727,36.1858182 L25.5014545,36.1858182 L25.5014545,37.9334545 L27.7007273,37.9334545 L27.7007273,39.0236364 L25.5014545,39.0236364 L25.5014545,41.0949091 L27.9658182,41.0949091 L27.9658182,42.1847273 L24.0189091,42.1847273" id="Fill-13" sketch:type="MSShapeGroup"></path>
            <path d="M28.388,42.1847273 L30.3516364,35.096 L32.3054545,35.096 L34.2298182,42.1847273 L32.6687273,42.1847273 L32.276,40.6141818 L30.2534545,40.6141818 L29.8509091,42.1847273 L28.388,42.1847273 L28.388,42.1847273 Z M31.2450909,36.4607273 L31.2254545,36.4607273 L30.548,39.524 L31.9618182,39.524 L31.2450909,36.4607273 L31.2450909,36.4607273 Z" id="Fill-14" sketch:type="MSShapeGroup"></path>
            <path d="M39.7181818,35.096 L39.7181818,40.1229091 C39.7181818,41.1832727 39.1192727,42.3025455 37.3123636,42.3025455 C35.6825455,42.3025455 34.8974545,41.4581818 34.8974545,40.1229091 L34.8974545,35.096 L36.3796364,35.096 L36.3796364,40.0247273 C36.3796364,40.8985455 36.7530909,41.2425455 37.2930909,41.2425455 C37.9407273,41.2425455 38.2352727,40.8101818 38.2352727,40.0247273 L38.2352727,35.096 L39.7181818,35.096" id="Fill-15" sketch:type="MSShapeGroup"></path>
            <path d="M42.5356364,35.096 L44.0770909,35.096 L45.1767273,40.2509091 L45.1963636,40.2509091 L46.4334545,35.096 L47.8963636,35.096 L46.0210909,42.1847273 L44.2832727,42.1847273 L42.5356364,35.096" id="Fill-16" sketch:type="MSShapeGroup"></path>
            <path d="M48.564,42.1847273 L48.564,35.096 L52.4323636,35.096 L52.4323636,36.1858182 L50.0465455,36.1858182 L50.0465455,37.9334545 L52.2458182,37.9334545 L52.2458182,39.0236364 L50.0465455,39.0236364 L50.0465455,41.0949091 L52.5109091,41.0949091 L52.5109091,42.1847273 L48.564,42.1847273" id="Fill-17" sketch:type="MSShapeGroup"></path>
            <path d="M54.9261818,42.1847273 L53.4436364,42.1847273 L53.4436364,35.096 L56.1829091,35.096 C57.1941818,35.096 57.8421818,35.744 57.8421818,36.9516364 C57.8421818,37.8552727 57.4887273,38.5323636 56.5265455,38.6898182 L56.5265455,38.7090909 C56.8505455,38.7483636 57.8127273,38.8269091 57.8127273,40.1032727 C57.8127273,40.5549091 57.8421818,41.8901818 57.9796364,42.1847273 L56.5265455,42.1847273 C56.3301818,41.7527273 56.3694545,41.2716364 56.3694545,40.8101818 C56.3694545,39.9658182 56.448,39.2490909 55.3090909,39.2490909 L54.9261818,39.2490909 L54.9261818,42.1847273 L54.9261818,42.1847273 Z M54.9261818,38.1596364 L55.584,38.1596364 C56.1730909,38.1596364 56.34,37.5701818 56.34,37.1185455 C56.34,36.4410909 56.0552727,36.1858182 55.584,36.1858182 L54.9261818,36.1858182 L54.9261818,38.1596364 L54.9261818,38.1596364 Z" id="Fill-18" sketch:type="MSShapeGroup"></path>
            <path d="M58.932,35.096 L60.4145455,35.096 L60.4145455,42.1847273 L58.932,42.1847273 L58.932,35.096 Z" id="Fill-19" sketch:type="MSShapeGroup"></path>
            <path d="M65.8832727,35.096 L65.8832727,36.2741818 L64.2338182,36.2741818 L64.2338182,42.1847273 L62.7512727,42.1847273 L62.7512727,36.2741818 L61.1018182,36.2741818 L61.1018182,35.096 L65.8832727,35.096" id="Fill-20" sketch:type="MSShapeGroup"></path>
            <path d="M65.4432727,42.1847273 L67.4069091,35.096 L69.3607273,35.096 L71.2850909,42.1847273 L69.724,42.1847273 L69.3312727,40.6141818 L67.3087273,40.6141818 L66.9061818,42.1847273 L65.4432727,42.1847273 L65.4432727,42.1847273 Z M68.3003636,36.4607273 L68.2807273,36.4607273 L67.6032727,39.524 L69.0170909,39.524 L68.3003636,36.4607273 L68.3003636,36.4607273 Z" id="Fill-21" sketch:type="MSShapeGroup"></path>
            <path d="M73.9065455,42.3025455 C72.0705455,42.3025455 71.7269091,41.2225455 71.8054545,39.9952727 L73.288,39.9952727 C73.288,40.6727273 73.3174545,41.2425455 74.1323636,41.2425455 C74.6330909,41.2425455 74.8785455,40.9181818 74.8785455,40.4370909 C74.8785455,39.1607273 71.8938182,39.0821818 71.8938182,36.9712727 C71.8938182,35.8618182 72.424,34.9781818 74.2305455,34.9781818 C75.6738182,34.9781818 76.3905455,35.6261818 76.2923636,37.1087273 L74.8490909,37.1087273 C74.8490909,36.5785455 74.7607273,36.0385455 74.1618182,36.0385455 C73.6807273,36.0385455 73.396,36.3036364 73.396,36.7945455 C73.396,38.1396364 76.3807273,38.0218182 76.3807273,40.2509091 C76.3807273,42.0865455 75.0356364,42.3025455 73.9065455,42.3025455" id="Fill-22" sketch:type="MSShapeGroup"></path>
            <path d="M6.43236364,48.8523636 C6.43236364,47.1854545 6.43236364,45.5974545 8.60545455,45.5974545 C9.94945455,45.5974545 10.4905455,46.3392727 10.4381818,47.6916364 L9.14654545,47.6916364 C9.14654545,46.8541818 8.99818182,46.5396364 8.60545455,46.5396364 C7.86363636,46.5396364 7.76763636,47.2378182 7.76763636,48.8523636 C7.76763636,50.4669091 7.86363636,51.1650909 8.60545455,51.1650909 C9.21636364,51.1650909 9.19018182,50.3796364 9.20763636,49.8821818 L10.5083636,49.8821818 C10.5083636,51.5669091 9.836,52.1076364 8.60545455,52.1076364 C6.43236364,52.1076364 6.43236364,50.5018182 6.43236364,48.8523636" id="Fill-23" sketch:type="MSShapeGroup"></path>
            <path d="M12.4192727,49.9956364 C12.4192727,50.5196364 12.4367273,51.3047273 12.9778182,51.3047273 C13.4141818,51.3047273 13.5014545,50.8858182 13.5014545,50.5196364 L14.7494545,50.5196364 C14.732,50.9992727 14.5749091,51.392 14.2781818,51.6625455 C13.9901818,51.9330909 13.5538182,52.0901818 12.9778182,52.0901818 C11.3894545,52.0901818 11.18,51.1214545 11.18,49.7425455 C11.18,48.5385455 11.3545455,47.5083636 12.9778182,47.5083636 C14.636,47.5083636 14.8192727,48.5821818 14.7756364,49.9956364 L12.4192727,49.9956364 L12.4192727,49.9956364 Z M13.5450909,49.3061818 C13.5450909,48.8785455 13.5625455,48.2676364 12.9778182,48.2676364 C12.4105455,48.2676364 12.4192727,48.9309091 12.4192727,49.3061818 L13.5450909,49.3061818 L13.5450909,49.3061818 Z" id="Fill-24" sketch:type="MSShapeGroup"></path>
            <path d="M16.8178182,47.596 L16.8178182,48.1629091 L16.8352727,48.1629091 C17.0621818,47.6570909 17.4810909,47.5083636 17.9785455,47.5083636 L17.9785455,48.608 C16.8963636,48.5385455 16.8789091,49.1665455 16.8789091,49.6029091 L16.8789091,52.0029091 L15.6483636,52.0029091 L15.6483636,47.596 L16.8178182,47.596" id="Fill-25" sketch:type="MSShapeGroup"></path>
            <path d="M18.0570909,47.596 L18.5545455,47.596 L18.5545455,46.8974545 L19.7850909,46.3476364 L19.7850909,47.596 L20.4221818,47.596 L20.4221818,48.3552727 L19.7850909,48.3552727 L19.7850909,50.7112727 C19.7850909,51.0429091 19.7763636,51.2614545 20.1778182,51.2614545 C20.2563636,51.2614545 20.3349091,51.2614545 20.396,51.2436364 L20.396,52.0029091 C20.2301818,52.0207273 20.0556364,52.0465455 19.7589091,52.0465455 C18.6941818,52.0465455 18.5545455,51.34 18.5545455,51.0690909 L18.5545455,48.3552727 L18.0570909,48.3552727 L18.0570909,47.596" id="Fill-26" sketch:type="MSShapeGroup"></path>
            <path d="M21.0854545,45.7018182 L22.316,45.7018182 L22.316,46.6705455 L21.0854545,46.6705455 L21.0854545,45.7018182 Z M21.0854545,47.596 L22.316,47.596 L22.316,52.0029091 L21.0854545,52.0029091 L21.0854545,47.596 Z" id="Fill-27" sketch:type="MSShapeGroup"></path>
            <path d="M25.3007273,46.4614545 C24.8032727,46.4261818 24.6985455,46.6181818 24.6985455,47.0632727 L24.6985455,47.596 L25.2745455,47.596 L25.2745455,48.3552727 L24.6985455,48.3552727 L24.6985455,52.0029091 L23.468,52.0029091 L23.468,48.3552727 L22.9181818,48.3552727 L22.9181818,47.596 L23.4767273,47.596 C23.468,46.3301818 23.3632727,45.6581818 24.8643636,45.6581818 C25.0127273,45.6581818 25.1523636,45.6669091 25.3007273,45.6756364 L25.3007273,46.4614545" id="Fill-28" sketch:type="MSShapeGroup"></path>
            <path d="M25.9378182,45.7018182 L27.1683636,45.7018182 L27.1683636,46.6705455 L25.9378182,46.6705455 L25.9378182,45.7018182 Z M25.9378182,47.596 L27.1683636,47.596 L27.1683636,52.0029091 L25.9378182,52.0029091 L25.9378182,47.596 Z" id="Fill-29" sketch:type="MSShapeGroup"></path>
            <path d="M30.5021818,49.1665455 C30.5021818,48.512 30.3363636,48.2941818 29.9523636,48.2941818 C29.4287273,48.2941818 29.3850909,48.7563636 29.3850909,49.6730909 C29.3850909,51.0167273 29.4985455,51.3047273 29.9523636,51.3047273 C30.3363636,51.3047273 30.5196364,50.9556364 30.5196364,50.3796364 L31.7501818,50.3796364 C31.7501818,51.5752727 31.1043636,52.0901818 29.9523636,52.0901818 C28.364,52.0901818 28.1545455,51.1214545 28.1545455,49.7425455 C28.1545455,48.5385455 28.3290909,47.5083636 29.9523636,47.5083636 C31.0869091,47.5083636 31.7327273,48.0145455 31.7327273,49.1665455 L30.5021818,49.1665455" id="Fill-30" sketch:type="MSShapeGroup"></path>
            <path d="M35.9654545,51.1825455 C35.9654545,51.4530909 36.0003636,51.7327273 36.0265455,52.0029091 L34.8832727,52.0029091 L34.8309091,51.4181818 L34.8134545,51.4181818 C34.5516364,51.872 34.1938182,52.0901818 33.6614545,52.0901818 C32.8061818,52.0901818 32.492,51.4530909 32.492,50.6850909 C32.492,49.2276364 33.6178182,49.1665455 34.7610909,49.184 L34.7610909,48.8436364 C34.7610909,48.4683636 34.7087273,48.1978182 34.2636364,48.1978182 C33.836,48.1978182 33.8010909,48.5210909 33.8010909,48.8701818 L32.5967273,48.8701818 C32.5967273,48.3374545 32.7625455,47.9970909 33.0505455,47.7963636 C33.3298182,47.5869091 33.7312727,47.5083636 34.2025455,47.5083636 C35.7647273,47.5083636 35.9654545,48.1803636 35.9654545,48.9832727 L35.9654545,51.1825455 L35.9654545,51.1825455 Z M33.6963636,50.6327273 C33.6963636,50.9472727 33.7487273,51.3309091 34.1501818,51.3309091 C34.8745455,51.3309091 34.7610909,50.3538182 34.7610909,49.8734545 C34.1501818,49.9 33.6963636,49.8472727 33.6963636,50.6327273 L33.6963636,50.6327273 Z" id="Fill-31" sketch:type="MSShapeGroup"></path>
            <path d="M36.4890909,47.596 L36.9865455,47.596 L36.9865455,46.8974545 L38.2170909,46.3476364 L38.2170909,47.596 L38.8541818,47.596 L38.8541818,48.3552727 L38.2170909,48.3552727 L38.2170909,50.7112727 C38.2170909,51.0429091 38.2083636,51.2614545 38.6098182,51.2614545 C38.6883636,51.2614545 38.7669091,51.2614545 38.828,51.2436364 L38.828,52.0029091 C38.6621818,52.0207273 38.4876364,52.0465455 38.1909091,52.0465455 C37.1261818,52.0465455 36.9865455,51.34 36.9865455,51.0690909 L36.9865455,48.3552727 L36.4890909,48.3552727 L36.4890909,47.596" id="Fill-32" sketch:type="MSShapeGroup"></path>
            <path d="M39.5174545,45.7018182 L40.748,45.7018182 L40.748,46.6705455 L39.5174545,46.6705455 L39.5174545,45.7018182 Z M39.5174545,47.596 L40.748,47.596 L40.748,52.0029091 L39.5174545,52.0029091 L39.5174545,47.596 Z" id="Fill-33" sketch:type="MSShapeGroup"></path>
            <path d="M41.7341818,49.7425455 C41.7341818,48.5385455 41.9087273,47.5083636 43.532,47.5083636 C45.1552727,47.5083636 45.3298182,48.5385455 45.3298182,49.7425455 C45.3298182,51.1214545 45.1203636,52.0901818 43.532,52.0901818 C41.9436364,52.0901818 41.7341818,51.1214545 41.7341818,49.7425455 L41.7341818,49.7425455 Z M44.0992727,49.6730909 C44.0992727,48.7563636 44.0556364,48.2941818 43.532,48.2941818 C43.0083636,48.2941818 42.9647273,48.7563636 42.9647273,49.6730909 C42.9647273,51.0167273 43.0781818,51.3047273 43.532,51.3047273 C43.9858182,51.3047273 44.0992727,51.0167273 44.0992727,49.6730909 L44.0992727,49.6730909 Z" id="Fill-34" sketch:type="MSShapeGroup"></path>
            <path d="M47.4330909,48.0407273 L47.4505455,48.0407273 C47.5727273,47.84 47.7210909,47.7090909 47.8869091,47.6305455 C48.0614545,47.5432727 48.2621818,47.5083636 48.4890909,47.5083636 C49.0738182,47.5083636 49.5887273,47.8574545 49.5887273,48.4683636 L49.5887273,52.0029091 L48.3581818,52.0029091 L48.3581818,48.9658182 C48.3581818,48.5730909 48.2883636,48.2676364 47.8956364,48.2676364 C47.5029091,48.2676364 47.4330909,48.5730909 47.4330909,48.9658182 L47.4330909,52.0029091 L46.2025455,52.0029091 L46.2025455,47.596 L47.4330909,47.596 L47.4330909,48.0407273" id="Fill-35" sketch:type="MSShapeGroup"></path>
            <path d="M131.514909,9.19890909 C129.312727,5.86109091 125.749455,3.17890909 121.906545,1.84072727 C118.333455,0.763636364 114.469091,0.189090909 110.544364,0.189090909 C106.621091,0.189090909 102.755636,0.763636364 99.1836364,1.84072727 C95.3407273,3.17890909 91.7781818,5.86109091 89.5752727,9.19890909 C85.9392727,14.5174545 82.6396364,24.7970909 82.4963636,35.0345455 L82.4963636,35.0625455 C82.6396364,45.3003636 85.9392727,55.5810909 89.5752727,60.8978182 C91.7781818,64.2363636 95.3407273,66.9069091 99.1836364,68.2450909 C102.755636,69.324 106.537455,69.9098182 110.462182,69.9098182 L110.628364,69.9098182 C114.551636,69.9098182 118.250909,69.336 121.822909,68.2556364 C125.666545,66.9174545 129.312727,64.2363636 131.514909,60.8978182 C135.150182,55.5810909 138.449455,45.3003636 138.593455,35.0625455 L138.593455,35.0345455 C138.449455,24.7970909 135.150182,14.5174545 131.514909,9.19890909 L131.514909,9.19890909 Z M131.936364,57.0978182 C129.431273,62.7876364 125.601091,66.2509091 119.974909,67.7876364 C116.943636,68.5654545 113.765091,68.9636364 110.498909,68.9636364 C107.231273,68.9636364 104.034545,68.5654545 101.004727,67.7876364 C95.3781818,66.2509091 91.5472727,62.7876364 89.0414545,57.0978182 C86.7745455,52.1156364 84.428,42.7585455 84.5530909,35.0483636 C84.428,27.3392727 86.7745455,17.9814545 89.0414545,12.9996364 C91.5472727,7.31127273 95.3781818,3.84727273 101.004727,2.30836364 C104.034545,1.53236364 107.231273,1.13236364 110.498909,1.13236364 C113.765091,1.13236364 116.943636,1.53236364 119.974909,2.30836364 C125.601091,3.84727273 129.431273,7.31127273 131.936364,12.9996364 C134.205091,17.9814545 136.551636,27.3392727 136.426545,35.0483636 C136.551636,42.7585455 134.205091,52.1156364 131.936364,57.0978182 L131.936364,57.0978182 Z" id="Fill-36" sketch:type="MSShapeGroup"></path>
            <path id="Fill-37" sketch:type="MSShapeGroup" d="M114.398545,19.1796364 C114.023636,18.5461818 114.330545,19.112 113.941091,18.3767273"></path>
            <path d="M124.294909,16.7996364 C123.205455,14.3189091 121.035636,12.4989091 118.394545,11.7447273 C115.914909,11.0752727 113.224727,10.6989091 110.533455,10.6989091 L110.445455,10.6989091 C107.753091,10.6989091 105.064,11.0752727 102.584,11.7447273 C99.9436364,12.4989091 97.7727273,14.3189091 96.6832727,16.7996364 C94.3163636,21.8807273 92.76,29.192 92.76,36.3789091 C92.76,43.5665455 94.3163636,50.8774545 96.6832727,55.9581818 C97.7727273,58.4392727 99.9436364,60.2578182 102.584,61.0130909 C105.064,61.6832727 107.753091,62.0592727 110.445455,62.0592727 L110.533455,62.0592727 C113.224727,62.0592727 115.914909,61.6832727 118.394545,61.0130909 C121.035636,60.2578182 123.205455,58.4392727 124.294909,55.9581818 C126.661818,50.8774545 128.219273,43.5665455 128.219273,36.3789091 C128.219273,29.192 126.661818,21.8807273 124.294909,16.7996364 L124.294909,16.7996364 Z M119.731636,31.3625455 C119.804727,31.3658182 120.152727,31.2923636 120.161455,31.0727273 L120.161455,26.536 C120.786909,26.3912727 121.412364,26.1789091 122.005455,26.0549091 L122.005455,28.7923636 C122.359636,28.7512727 122.538545,28.7036364 122.973818,28.6389091 L122.977818,32.2458182 L121.849091,32.4134545 L121.502545,33.8661818 L117.499636,33.8661818 L116.904364,32.5690909 C115.936364,32.4792727 115.864727,32.4792727 114.892364,32.4134545 C115.809818,31.2294545 116.747273,30.0552727 117.385091,28.76 L117.385091,26.9152727 L119.188364,26.6832727 L119.188364,31.0552727 C119.188364,31.2094545 119.412364,31.3625455 119.636364,31.3625455 L119.731636,31.3625455 L119.731636,31.3625455 Z M117.381455,14.6792727 C117.830545,14.5538182 118.441818,14.6127273 118.822182,14.9476364 C119.336,15.3163636 119.482545,15.9421818 119.358909,16.5225455 C119.004,17.78 117.602545,18.016 116.462545,18.3181818 L115.832727,17.4650909 C116.069091,16.3814545 116.189091,15.1334545 117.381455,14.6792727 L117.381455,14.6792727 Z M113.885455,19.7069091 L114.342909,20.5098182 L113.199636,21.7607273 C112.894182,21.4676364 112.865818,21.4345455 112.557818,21.1130909 C113.144,20.4981818 113.203273,20.4312727 113.885455,19.7069091 L113.885455,19.7069091 Z M99.7225455,17.9963636 L99.7269091,17.9901818 C99.9290909,18.5894545 100.305818,19.016 100.901455,19.2956364 C100.834182,18.9821818 100.554909,18.692 100.465455,18.3563636 C100.208364,17.7090909 100.230182,16.7814545 100.654909,16.2112727 C100.957455,15.7643636 101.388,15.5803636 101.862545,15.4294545 C101.683273,15.9654545 101.628,16.6112727 101.848364,17.1556364 C102.157091,16.9141818 102.173818,16.8981818 102.414182,16.6690909 C102.505818,16.5807273 102.546909,16.5509091 102.624364,16.4952727 C103.063273,17.4330909 103.564727,18.7309091 103.274182,19.8258182 L103.090909,20.3010909 C103.023636,19.5250909 102.897091,19.1552727 102.376727,18.8709091 C102.310909,19.3229091 102.596727,19.6443636 102.666545,20.2334545 C102.876,21.1447273 102.708727,22.0414545 102.147273,22.5694545 L100.694182,22.5694545 C99.5909091,21.3850909 99.5101818,19.6047273 99.7225455,17.9963636 L99.7225455,17.9963636 Z M103.063273,23.9883636 L102.294182,23.9883636 L101.957455,26.7570909 C101.622182,26.4556364 101.242182,26.2436364 100.829818,26.1098182 C100.631636,24.9345455 100.617455,24.8472727 100.506182,23.9883636 L99.7567273,23.9883636 L99.7567273,23.1610909 C101.051273,23.1574545 101.767273,23.1632727 103.061818,23.1632727 L103.063273,23.9883636 L103.063273,23.9883636 Z M97.444,35.0043636 L106.335273,35.0018182 L106.335273,37.5861818 L97.444,37.5890909 L97.444,35.0043636 L97.444,35.0043636 Z M100.884727,29.8174545 C101.253091,29.7167273 101.610909,29.9512727 101.901091,30.1636364 C101.853818,31.6632727 101.853818,31.6487273 101.823273,33.2174545 L100.996364,33.2174545 L100.989455,32.968 C100.961818,31.7741818 100.910909,30.9934545 100.884727,29.8174545 L100.884727,29.8174545 Z M101.829818,47.68 C101.312727,48.0429091 100.832364,48.0774545 100.326182,48.0741818 C100.157818,48.0727273 99.8625455,48.0483636 99.6949091,47.9981818 C99.312,47.9029091 98.7672727,47.6941818 98.4461818,47.1770909 L98.376,47.0512727 L98.32,46.8970909 L98.2509091,46.7294545 L98.2203636,46.4738182 L98.2247273,41.6403636 C98.184,41.032 97.9534545,41.0214545 97.4578182,40.6549091 L97.6370909,40.5901818 L99.5916364,39.9527273 C99.8716364,40.2549091 99.9392727,40.6458182 99.9614545,41.0476364 L99.9614545,44.8254545 C99.9581818,45.0683636 100.166545,45.2069091 100.446182,45.2218182 C100.782182,45.2218182 100.922182,45.096 100.949818,44.8305455 C100.977818,43.1403636 100.922182,42.6658182 100.949818,41.1265455 C100.992364,40.6127273 101.452727,40.096 101.888727,39.9752727 C102.429455,39.7178182 103.086545,39.8167273 103.575636,40.056 C104.441091,40.4730909 104.399636,42.1763636 104.391636,43.5592727 C104.049818,43.3356364 103.994545,43.3076364 103.653455,43.2156364 C103.352364,43.1490909 103.028364,43.2047273 102.793455,43.3829091 C102.513818,43.6403636 102.484,43.8941818 102.478182,44.344 C102.457455,45.9476364 102.634545,47.0505455 101.829818,47.68 L101.829818,47.68 Z M102.929091,53.3069091 C102.502909,53.0258182 102.405818,52.7530909 102.258909,52.3687273 C101.901091,50.7265455 103.879273,50.1345455 104.348727,48.7709091 C104.717455,46.4916364 104.829091,44.0901818 106.414909,42.3130909 C106.572,38.9603636 107.655636,35.9992727 110.034909,33.5643636 C109.923636,32.8149091 109.611273,32.1563636 109.388727,31.4516364 C109.075636,31.4392727 108.864364,31.3832727 108.583273,31.128 C108.376727,30.8389091 108.292364,30.6225455 108.238182,30.268 C107.410182,31.2956364 106.381455,32.4465455 105.253091,33.1392727 C105.045091,33.2552727 104.779636,33.0109091 104.404364,32.6585455 C103.018909,31.564 102.784364,29.0825455 100.672364,29.1952727 C99.7112727,28.8712727 99.7567273,27.7418182 99.6,26.8930909 C99.9574545,26.6363636 100.533455,26.6483636 100.963273,26.8149091 C102.281455,27.5192727 103.159273,29.0047273 104.404364,29.9992727 C104.738182,30.2658182 105.038182,30.6149091 105.345455,30.7418182 C106.162182,30.0392727 106.819636,29.4352727 107.370182,28.3461818 C107.755636,27.7309091 108.393091,27.4625455 109.097455,27.452 L109.599273,26.8596364 L109.330909,25.384 C108.818909,24.7258182 108.393091,24.0338182 108.046909,23.2956364 C108.226182,22.4461818 108.338182,21.4629091 109.198182,20.9938182 C109.757455,20.648 110.216,21.4403636 110.672727,20.9374545 C111.008,20.8661818 111.295636,20.96 111.530182,21.1501818 C111.876727,21.7534545 112.291636,22.3563636 112.314545,23.06 C112.100364,23.7425455 111.778182,24.3789091 111.454182,25.0170909 C111.379273,25.1618182 111.183273,25.2065455 111.052,25.3069091 C111.130182,25.5967273 111.195636,25.9210909 111.397818,26.1443636 C111.653818,26.2003636 111.893091,26.244 112.202909,26.1898182 C112.447636,25.4403636 113.252364,25.1065455 113.923273,24.9043636 L115.397091,23.944 C115.164,22.8261818 115.878182,21.8429091 115.476727,20.7247273 C114.637818,20.3352727 114.395636,19.3792727 114.214545,18.6363636 C114.346545,18.1672727 114.576727,17.6756364 114.911636,17.2843636 L114.962909,17.34 C115.766545,18.2785455 116.504364,19.2392727 116.760364,20.4014545 C116.906182,21.8869091 117.052,23.4076364 116.950545,24.96 C116.157818,25.7534545 115.197455,26.2229091 114.291273,26.8149091 L113.621455,28.0996364 C113.543273,29.4294545 113.151636,30.6254545 112.951273,31.9101818 C113.520727,33.4632727 114.199636,35.5312727 113.699636,36.9723636 C113.320364,37.8298182 112.510909,38.2967273 111.910182,38.7705455 L110.404,39.9774545 C111.915636,41.648 111.551273,43.5410909 111.617818,45.9610909 C111.603273,46.5447273 112.649091,47.0334545 112.089818,47.6989091 C111.624,48.4432727 110.894909,49.0498182 111.017818,50.0341818 C110.555273,50.812 109.443636,50.9796364 108.922182,50.9730909 C108.810182,50.9796364 108.718182,50.8949091 108.718182,50.7821818 C108.830545,50.3796364 109.141818,50.0676364 109.309818,49.6876364 C109.846182,48.8618182 109.599273,47.7210909 110.269091,46.9498182 C109.716727,45.1534545 108.884364,43.4858182 108.660727,41.5647273 L108.641455,41.448 C108.194909,42.3265455 108.438909,43.192 108.675273,43.8858182 C107.188364,45.7629091 105.577455,47.564 105.577455,50.0341818 C104.940364,51.1621818 104.035636,52.1905455 103.566909,53.3865455 C103.404727,53.5847273 103.110909,53.4098182 102.929091,53.3069091 L102.929091,53.3069091 Z M112.794545,47.3745455 C113.666909,47.4076364 114.548727,48.1345455 114.883273,48.9498182 C115.229818,49.7770909 115.095273,50.8610909 114.559636,51.5527273 C113.890182,52.3687273 112.961818,52.7934545 111.876727,52.6032727 C111.195636,52.4476364 110.526909,52.0334545 110.134545,51.3963636 C110.695273,51.2105455 111.484,50.8887273 111.642909,50.3461818 C111.603273,49.5058182 112.18,48.8283636 112.614545,48.1585455 C112.829818,47.8643636 112.858909,47.6905455 112.794545,47.3745455 L112.794545,47.3745455 Z M113.620727,46.6236364 L113.630909,38.9970909 C114.718909,38.9803636 115.071273,39.0101818 116.204,38.9901818 L116.204,46.6236364 L113.620727,46.6236364 L113.620727,46.6236364 Z M108.077818,58.2672727 C107.373818,58.7807273 106.200727,58.8934545 105.419273,58.4567273 C104.972,58.2443636 104.570545,57.8076364 104.324,57.3836364 C104.134182,56.9745455 104.064,56.8283636 104.043636,56.4098182 C105.908,56.4098182 107.157818,56.4098182 109.128364,56.4112727 C109.117455,57.116 108.716,57.8076364 108.077818,58.2672727 L108.077818,58.2672727 Z M111.563636,58.4567273 L109.810545,58.4567273 L109.810545,55.3163636 L107.084,55.3203636 L107.084,54.0556364 L109.820364,54.0541818 L110.681818,53.0370909 C111.102545,53.5258182 111.130909,53.5607273 111.566909,54.0541818 L114.3,54.0541818 L114.3,55.3203636 L111.563636,55.3163636 L111.563636,58.4567273 L111.563636,58.4567273 Z M117.044364,57.3836364 C116.798182,57.8076364 116.396,58.2443636 115.949818,58.4567273 C115.167636,58.8934545 113.993818,58.7807273 113.289818,58.2672727 C112.653091,57.8076364 112.249818,57.116 112.238182,56.4112727 C114.210545,56.4098182 115.459273,56.4098182 117.324,56.4098182 C117.303273,56.8283636 117.234909,56.9745455 117.044364,57.3836364 L117.044364,57.3836364 Z M120.890909,50.6883636 C120.618182,50.9901818 120.518545,51.1010909 120.197455,51.4134545 L119.549818,50.6323636 L119.549818,48.4618182 C118.633091,48.9090909 118.857455,50.2076364 118.857455,51.3352727 C118.312727,50.8923636 118.037818,50.6407273 117.515636,50.1516364 C117.224,48.8530909 118.004364,48.1123636 118.588727,47.2018182 L120.890909,49.4029091 L120.890909,50.6883636 L120.890909,50.6883636 Z M117.457455,40.0545455 C117.869818,39.7290909 118.212364,39.448 118.710182,39.0592727 C118.673455,40.0483636 118.533455,41.0530909 119.010182,41.6403636 C120.174909,42.8025455 121.234545,43.8530909 122.285091,44.8807273 C122.676,45.3054545 122.988364,45.9083636 122.730909,46.4683636 C122.608727,46.7352727 122.441091,47.0378182 122.262909,47.2829091 C122.262909,46.7381818 122.024727,46.4269091 121.714545,46.1203636 C120.286909,44.7152727 117.814909,42.7596364 117.615273,41.9309091 C117.402182,41.3723636 117.468727,40.7018182 117.457455,40.0545455 L117.457455,40.0545455 Z M122.837455,50.3389091 C122.424727,50.6629091 122.083273,50.9454545 121.586182,51.3334545 C121.621455,50.3447273 121.762182,49.3389091 121.284364,48.7523636 C120.118182,47.5901818 119.060727,46.5407273 118.010545,45.5116364 C117.620364,45.0883636 117.306182,44.484 117.564,43.9254545 C117.686545,43.6570909 117.853091,43.3556364 118.032727,43.1090909 C118.032727,43.6541818 118.268727,43.9654545 118.580727,44.272 C120.008727,45.6763636 122.478909,47.6330909 122.681455,48.4618182 C122.893091,49.0207273 122.826909,49.6905455 122.837455,50.3389091 L122.837455,50.3389091 Z M121.706545,43.1901818 L119.404364,40.9894545 L119.404364,39.7047273 C119.678545,39.4029091 119.776364,39.2912727 120.096727,38.9781818 L120.745818,39.7596364 L120.745818,41.9309091 C121.661818,41.4843636 121.437818,40.1847273 121.437818,39.0567273 C121.982909,39.5007273 122.257091,39.7512727 122.778545,40.2407273 C123.072364,41.54 122.290545,42.28 121.706545,43.1901818 L121.706545,43.1901818 Z M123.730182,37.6025455 L114.838182,37.5890909 L114.838182,35.0043636 L123.730182,35.0018182 L123.730182,37.6025455 L123.730182,37.6025455 Z" id="Fill-38" sketch:type="MSShapeGroup"></path>
            <path d="M111.441455,67.1461818 C111.416727,65.7352727 112.796364,65.0218182 113.665091,64.0858182 C113.901091,63.86 113.989818,63.4134545 113.819273,63.0418182 C113.717455,62.8090909 113.562909,62.6967273 113.376727,62.6498182 C113.072,62.5789091 112.812727,62.6258182 112.621091,62.7941818 C112.350182,63.0454545 112.276,63.3701818 112.288,63.7221818 L111.326182,63.7792727 C111.241455,63.2450909 111.371273,62.7258182 111.697818,62.3218182 C112.148,61.8403636 112.826182,61.7043636 113.485455,61.7487273 C114.010909,61.8330909 114.625455,62.1541818 114.842909,62.7047273 C115.121091,63.3010909 115.028,64.0661818 114.584727,64.5694545 C114.015273,65.1774545 113.269818,65.5065455 112.797818,66.1916364 L115.238182,66.0483636 C115.255636,66.3509091 115.273091,66.6414545 115.289455,66.9181818 L111.441455,67.1461818" id="Fill-39" sketch:type="MSShapeGroup"></path>
            <path d="M102.784364,61.0490909 L102.770182,61.096 L101.179636,65.9665455 L100.165818,65.6341818 L101.256,62.2974545 L101.274182,62.2407273 C100.870545,62.1 100.381818,61.9603636 99.9869091,61.8196364 L100.194182,61.1909091 C100.707636,61.324 101.236727,61.4112727 101.683636,61.0410909 C101.845455,60.9141818 101.873455,60.8785455 101.961455,60.7807273 L102.784364,61.0490909" id="Fill-40" sketch:type="MSShapeGroup"></path>
            <path d="M122.089455,63.748 C121.962182,63.2690909 121.696364,62.8829091 121.16,62.7294545 L120.850545,62.6610909 C121.167273,62.4367273 121.46,61.9850909 121.352727,61.5447273 C121.280364,61.0425455 120.916364,60.7221818 120.462182,60.5483636 C120.064364,60.4290909 119.596364,60.4476364 119.153818,60.5647273 C118.706909,60.6669091 118.284364,60.8665455 117.988,61.1585455 C117.666909,61.5247273 117.493091,61.9767273 117.662182,62.456 C117.772364,62.8956364 118.242545,63.1581818 118.626182,63.2101818 L118.384727,63.4141818 C117.978909,63.7996364 117.925091,64.2650909 118.035273,64.7487273 C118.156727,65.2883636 118.589091,65.7087273 119.114545,65.8643636 C119.511636,65.9672727 119.993818,65.9625455 120.457818,65.8487273 C120.92,65.7338182 121.349818,65.5141818 121.652364,65.2385455 C122.046182,64.8552727 122.232727,64.2832727 122.089455,63.748 L122.089455,63.748 Z M118.736,62.3578182 C118.616,62.1461818 118.614182,61.7898182 118.830182,61.5781818 C118.955636,61.4461818 119.139273,61.3501818 119.336364,61.3032727 C119.531636,61.2527273 119.740364,61.252 119.911636,61.3109091 C120.200364,61.3985455 120.364727,61.7145455 120.356727,61.9574545 C120.354545,62.1469091 120.267636,62.2963636 120.146545,62.412 C120.021818,62.5214545 119.849818,62.6014545 119.666545,62.6429091 C119.484364,62.6923636 119.295273,62.7010909 119.131636,62.6625455 C118.972,62.6149091 118.826545,62.5247273 118.736,62.3578182 L118.736,62.3578182 Z M120.867636,64.7054545 C120.736,64.8563636 120.505455,64.9723636 120.255636,65.0334545 C120.006909,65.0967273 119.748364,65.1007273 119.562909,65.0276364 C119.311273,64.9345455 119.138909,64.7352727 119.075636,64.5127273 C118.978545,64.1796364 119.075636,63.8272727 119.362545,63.6272727 C119.483273,63.5418182 119.661091,63.4581818 119.854909,63.4069091 C120.049455,63.3621818 120.246545,63.3538182 120.392364,63.3727273 C120.739636,63.4163636 120.990909,63.684 121.059273,64.0236364 C121.106182,64.2487273 121.046545,64.5058182 120.867636,64.7054545 L120.867636,64.7054545 Z" id="Fill-41" sketch:type="MSShapeGroup"></path>
            <path d="M108.919636,65.5789091 C108.94,65.0832727 108.802545,64.6363636 108.336,64.328 L108.061455,64.172 C108.429455,64.0523636 108.843273,63.7072727 108.873818,63.2563636 C108.953455,62.7549091 108.700727,62.3410909 108.319636,62.0389091 C107.974545,61.8061818 107.522545,61.6854545 107.065818,61.6654545 C106.609091,61.6298182 106.145818,61.696 105.775273,61.8850909 C105.359636,62.1385455 105.059273,62.5192727 105.077818,63.0254545 C105.052727,63.4781818 105.422909,63.8709091 105.774545,64.0341818 L105.481818,64.1556364 C104.980727,64.404 104.791636,64.8323636 104.751636,65.3261818 C104.707273,65.8785455 104.993818,66.4083636 105.449818,66.7130909 C105.798182,66.9298182 106.259636,67.068 106.736,67.0967273 C107.212,67.1250909 107.688,67.0447273 108.060727,66.8709091 C108.548727,66.6214545 108.897455,66.1327273 108.919636,65.5789091 L108.919636,65.5789091 Z M106.132364,63.252 C106.08,63.0134545 106.185091,62.6745455 106.454909,62.5363636 C106.613455,62.4465455 106.818545,62.4105455 107.02,62.424 C107.220364,62.4352727 107.42,62.4956364 107.565818,62.6036364 C107.817091,62.7734545 107.879636,63.1229091 107.798909,63.3538182 C107.741091,63.5341818 107.613091,63.6498182 107.464,63.7250909 C107.310909,63.7927273 107.123636,63.8174545 106.935636,63.8025455 C106.747636,63.7945455 106.563636,63.7465455 106.42,63.6610909 C106.280727,63.5690909 106.168727,63.4381818 106.132364,63.252 L106.132364,63.252 Z M107.467636,66.1283636 C107.298545,66.2330909 107.043636,66.2763636 106.787273,66.2592727 C106.530182,66.2458182 106.281455,66.172 106.126909,66.0469091 C105.915273,65.8843636 105.809455,65.6414545 105.815636,65.4098182 C105.822182,65.0661818 106.018909,64.7556364 106.352364,64.6505455 C106.493818,64.6058182 106.688364,64.5789091 106.888,64.588 C107.088364,64.6029091 107.277455,64.6527273 107.412,64.7152727 C107.730545,64.86 107.888727,65.1909091 107.854909,65.5341818 C107.832727,65.7643636 107.697818,65.9916364 107.467636,66.1283636 L107.467636,66.1283636 Z" id="Fill-42" sketch:type="MSShapeGroup"></path>
            <path d="M131.859636,16.1370909 L127.118182,18.1821818 L126.691273,17.1934545 L131.432727,15.1483636 L131.859636,16.1370909" id="Fill-43" sketch:type="MSShapeGroup"></path>
            <path d="M113.992364,7.93709091 L112.773091,2.624 L113.896727,2.73709091 C114.123273,4.052 114.354182,5.54618182 114.619636,6.65236364 C115.101091,5.62072727 115.629091,4.20472727 116.114545,2.96290909 L117.221091,3.07418182 L114.974909,8.03672727 L113.992364,7.93709091" id="Fill-44" sketch:type="MSShapeGroup"></path>
            <path d="M93.8185455,10.9825455 L92.6665455,13.0425455 L91.6956364,12.4996364 L93.0145455,10.1341818 L92.2687273,9.71527273 L90.4207273,13.028 L94.9294545,15.5454545 L96.7781818,12.2330909 L96.0294545,11.8167273 L94.7058182,14.1876364 L93.4454545,13.48 L94.6010909,11.4152727 L93.8185455,10.9825455" id="Fill-45" sketch:type="MSShapeGroup"></path>
            <path d="M91.0836364,32.9236364 C90.8414545,32.3694545 90.2436364,32.1490909 89.6261818,32.18 C89.1032727,32.2385455 88.7083636,32.5934545 88.4890909,33.1327273 C88.4087273,32.816 88.1167273,32.42 87.6210909,32.3621818 C87.1029091,32.2985455 86.6090909,32.4381818 86.3585455,32.8770909 C86.0174545,33.3145455 86.1643636,35.2352727 86.1290909,36.3418182 L91.2581818,36.3370909 L91.2603636,35.9618182 C91.2330909,33.9214545 91.3490909,33.6785455 91.0836364,32.9236364 L91.0836364,32.9236364 Z M88.1730909,35.2629091 L86.9065455,35.264 C86.9429091,34.0781818 86.748,33.4465455 87.4727273,33.3672727 C87.9014545,33.336 88.0203636,33.4330909 88.1167273,33.6898182 C88.1985455,33.9567273 88.1738182,34.2345455 88.1730909,35.2629091 L88.1730909,35.2629091 Z M90.4010909,35.2596364 L88.9607273,35.2625455 L88.9512727,35.2625455 C88.9756364,34.1138182 88.7978182,33.4403636 89.4796364,33.3076364 C89.7185455,33.244 90.0141818,33.2661818 90.1887273,33.4465455 C90.4796364,33.7272727 90.3894545,34.1974545 90.4010909,35.2596364 L90.4010909,35.2596364 Z" id="Fill-46" sketch:type="MSShapeGroup"></path>
            <path d="M131.903273,19.0087273 L132.724727,18.7970909 L133.762545,22.836 L132.942909,23.0465455 L132.558545,21.5530909 L128.411636,22.62 L128.144,21.5785455 L132.288727,20.5098182 L131.903273,19.0087273" id="Fill-47" sketch:type="MSShapeGroup"></path>
            <path d="M105.833818,8.23672727 C105.260364,8.33272727 104.669455,8.27745455 104.192727,7.98545455 C103.783273,7.74690909 103.636727,7.43963636 103.560727,7.06181818 L102.968,3.37309091 L104.018909,3.20436364 L104.614182,6.89272727 C104.674182,7.19563636 104.94,7.38181818 105.219636,7.43818182 C105.375273,7.47745455 105.547273,7.47527273 105.714182,7.444" id="Fill-48" sketch:type="MSShapeGroup"></path>
            <path d="M105.847273,8.23418182 C106.421455,8.14545455 106.965818,7.90763636 107.326909,7.48290909 C107.64,7.128 107.684727,6.78945455 107.638909,6.40690909 L107.046909,2.71890909 L105.995273,2.88618182 L106.584727,6.57672727 C106.626182,6.85454545 106.428,7.14218182 106.180727,7.28363636 C106.045091,7.37018182 105.881818,7.42181818 105.714182,7.444" id="Fill-49" sketch:type="MSShapeGroup"></path>
            <path d="M134.287273,26.3247273 L128.925091,25.2472727 L129.071273,26.2945455 L130.238909,26.5087273 L130.496727,28.3567273 L129.433455,28.8821818 L129.579273,29.9290909 L134.441455,27.4236364 L134.287273,26.3247273 L134.287273,26.3247273 Z M131.305091,27.9509091 L131.126182,26.6767273 L133.354182,27.0134545 L133.362545,27.0127273 L133.358182,27.0145455 L133.363273,27.0156364 L133.354182,27.0163636 L131.305091,27.9509091 L131.305091,27.9509091 Z" id="Fill-50" sketch:type="MSShapeGroup"></path>
            <path d="M133.510909,35.1956364 L133.607636,35.1789091 L133.725455,35.1476364 L133.810909,35.1192727 C134.150909,34.9338182 134.231273,34.4803636 134.213091,34.1101818 C134.199636,33.736 134.084727,33.3570909 133.734182,33.2229091 C133.553818,33.1723636 133.321455,33.1570909 133.201818,33.3443636 C132.621091,34.2058182 133.024364,36.0349091 131.521818,36.3563636 C130.866909,36.4643636 130.293455,36.1803636 129.954182,35.6563636 C129.486182,34.824 129.449091,33.5232727 129.981818,32.7178182 C130.304,32.2970909 130.741091,32.0403636 131.264364,32.0367273 L131.325818,33.0247273 C131.004,33.0672727 130.686545,33.2323636 130.539273,33.5476364 C130.321455,34.0658182 130.374182,34.8887273 130.753091,35.1934545 C130.892,35.3490909 131.213455,35.3305455 131.388727,35.2367273 C131.984364,34.8076364 131.864727,33.7407273 132.161818,33.0247273 C132.264727,32.7214545 132.542909,32.4112727 132.828,32.2592727 C133.355636,32.0327273 134.036,32.1130909 134.46,32.5345455 C135.146182,33.1821818 135.18,34.4530909 134.86,35.2247273 C134.681091,35.7603636 134.101091,36.152 133.497091,36.1890909 L133.434909,35.1974545 L133.510909,35.1956364" id="Fill-51" sketch:type="MSShapeGroup"></path>
            <path d="M91.9570909,27.4090909 C91.872,27.9832727 91.6356364,28.5287273 91.2101818,28.8916364 C90.8567273,29.2061818 90.5196364,29.2512727 90.1367273,29.2076364 L86.4461818,28.628 L86.6112727,27.576 L90.3018182,28.1523636 C90.6098182,28.1894545 90.8672727,27.9934545 91.0076364,27.7454545 C91.0934545,27.6090909 91.1447273,27.4465455 91.1665455,27.2778182" id="Fill-52" sketch:type="MSShapeGroup"></path>
            <path d="M91.9592727,27.396 C92.0538182,26.8218182 91.9956364,26.2312727 91.7032727,25.7549091 C91.4629091,25.3472727 91.1552727,25.2010909 90.7774545,25.1258182 L87.0869091,24.5461818 L86.9214545,25.5985455 L90.6123636,26.1810909 C90.8887273,26.2283636 91.1010909,26.5043636 91.1589091,26.784 C91.1989091,26.9392727 91.1963636,27.1109091 91.1665455,27.2778182" id="Fill-53" sketch:type="MSShapeGroup"></path>
            <path d="M97.6861818,5.33054545 L96.7374545,5.90654545 L97.8723636,11.2570909 L98.776,10.7087273 L98.5109091,9.55272727 L100.105091,8.58363636 L101.009455,9.35163636 L101.911636,8.80327273 L97.6861818,5.33054545 L97.6861818,5.33054545 Z M98.3134545,8.67090909 L97.7414545,6.49236364 L97.7367273,6.484 L97.74,6.48727273 L97.7385455,6.48218182 L97.7443636,6.49090909 L99.4134545,8.00254545 L98.3134545,8.67090909 L98.3134545,8.67090909 Z" id="Fill-54" sketch:type="MSShapeGroup"></path>
            <path d="M122.743636,7.01018182 L120.566182,6.09818182 L120.996,5.07272727 L123.494545,6.11563636 L123.826909,5.32727273 L120.326182,3.86472727 L118.334182,8.62945455 L121.834545,10.0916364 L122.163636,9.30181818 L119.658909,8.25454545 L120.218182,6.92218182 L122.401818,7.83709091 L122.743636,7.01018182" id="Fill-55" sketch:type="MSShapeGroup"></path>
            <path d="M91.312,18.4523636 C91.3090909,18.0978182 91.2887273,17.8021818 90.9945455,17.5192727 C90.7112727,17.2258182 90.2610909,17.0890909 89.8167273,17.1229091 C88.668,17.3007273 88.5152727,18.6210909 87.88,20.7076364 L92.8250909,22.1818182 L93.1316364,21.1512727 L91.1792727,20.5690909 L91.0978182,20.5436364 C91.2323636,20.0690909 91.4225455,19.4658182 91.5174545,19.336 C91.8730909,18.5170909 93.1843636,19.3218182 93.7018182,19.2429091 L94.0061818,18.22 C93.1210909,18.2690909 91.9378182,17.4789091 91.312,18.4523636 L91.312,18.4523636 Z M90.2821818,20.3003636 L88.9890909,19.9149091 C89.2705455,19.0327273 89.396,18.1443636 90.0181818,18.1992727 C90.2672727,18.24 90.44,18.3061818 90.5847273,18.4861818 C90.8265455,18.7872727 90.516,19.4469091 90.2821818,20.3003636 L90.2821818,20.3003636 Z" id="Fill-56" sketch:type="MSShapeGroup"></path>
            <path d="M127.390909,8.17454545 L123.291636,11.3050909 L123.942909,12.1596364 L125.562909,10.9236364 L125.631636,10.8734545 C125.936364,11.2610909 126.311273,11.7701818 126.360364,11.9229091 C126.814909,12.6912727 125.392364,13.2792727 125.152364,13.7429091 L125.799273,14.5916364 C126.279636,13.8469091 127.614545,13.3556364 127.197455,12.2756364 C127.485455,12.4818182 127.737818,12.6407273 128.137455,12.5687273 C128.541455,12.512 128.917455,12.2287273 129.151636,11.8494545 C129.683636,10.8163636 128.705455,9.91672727 127.390909,8.17454545 L127.390909,8.17454545 Z M128.162182,11.3789091 C127.983273,11.556 127.826909,11.6567273 127.596727,11.6690909 C127.209818,11.6872727 126.860364,11.0465455 126.307636,10.356 L127.381091,9.53745455 C127.928364,10.2836364 128.573455,10.9087273 128.162182,11.3789091 L128.162182,11.3789091 Z" id="Fill-57" sketch:type="MSShapeGroup"></path>
            <path d="M6.95963636,69.8134545 L6.95963636,64.6872727 L7.79890909,64.6872727 L9.45272727,68.072 L9.45272727,64.6872727 L10.2607273,64.6872727 L10.2607273,69.8134545 L9.38436364,69.8134545 L7.77090909,66.5192727 L7.77090909,69.8134545 L6.95963636,69.8134545 L6.95963636,69.8134545 Z M11.6803636,68.4741818 C11.3327273,68.4741818 11.0538182,68.3418182 10.8429091,68.0770909 C10.6316364,67.8127273 10.5265455,67.4669091 10.5265455,67.0403636 C10.5265455,66.6069091 10.6323636,66.2603636 10.8447273,66 C11.0567273,65.74 11.3283636,65.6101818 11.6592727,65.6101818 C11.9858182,65.6101818 12.2567273,65.7465455 12.4723636,66.0192727 C12.688,66.292 12.796,66.6403636 12.796,67.0650909 C12.796,67.4774545 12.6930909,67.8152727 12.488,68.0789091 C12.2829091,68.3425455 12.0138182,68.4741818 11.6803636,68.4741818 L11.6803636,68.4741818 Z M10.628,68.8098182 L12.6807273,68.8098182 L12.6807273,69.5825455 L10.628,69.5825455 L10.628,68.8098182 Z M11.6941818,66.2818182 C11.44,66.2818182 11.3130909,66.5636364 11.3130909,67.128 C11.3130909,67.5705455 11.4287273,67.7923636 11.6592727,67.7923636 C11.9061818,67.7923636 12.0301818,67.5181818 12.0301818,66.9705455 C12.0301818,66.5112727 11.9181818,66.2818182 11.6941818,66.2818182 L11.6941818,66.2818182 Z" id="Fill-58" sketch:type="MSShapeGroup"></path>
            <path d="M15.1036364,69.8134545 L15.1036364,64.6872727 L16.8905455,64.6872727 C17.3472727,64.6872727 17.6738182,64.7330909 17.8694545,64.8250909 C18.0654545,64.9174545 18.2261818,65.0770909 18.3523636,65.3043636 C18.4781818,65.5316364 18.5410909,65.804 18.5410909,66.1207273 C18.5410909,66.5214545 18.4447273,66.8447273 18.2527273,67.0894545 C18.0603636,67.3341818 17.7869091,67.488 17.4327273,67.5509091 C17.6145455,67.6818182 17.7647273,67.824 17.8836364,67.9792727 C18.0025455,68.1345455 18.1643636,68.4123636 18.3698182,68.8134545 L18.8803636,69.8134545 L17.8676364,69.8134545 L17.2534545,68.6978182 C17.0327273,68.2945455 16.8821818,68.0421818 16.8032727,67.9407273 C16.7236364,67.8396364 16.64,67.7694545 16.5512727,67.7309091 C16.4625455,67.6927273 16.3207273,67.6734545 16.1247273,67.6734545 L15.9498182,67.6734545 L15.9498182,69.8134545 L15.1036364,69.8134545 L15.1036364,69.8134545 Z M15.9498182,66.8552727 L16.5792727,66.8552727 C16.964,66.8552727 17.2087273,66.8381818 17.3138182,66.8043636 C17.4185455,66.7709091 17.5036364,66.7025455 17.5690909,66.6 C17.6341818,66.4970909 17.6669091,66.3607273 17.6669091,66.1909091 C17.6669091,66.0276364 17.6341818,65.8967273 17.5690909,65.7974545 C17.5036364,65.6981818 17.4149091,65.6298182 17.3032727,65.5927273 C17.224,65.5669091 16.9941818,65.5541818 16.6141818,65.5541818 L15.9498182,65.5541818 L15.9498182,66.8552727 L15.9498182,66.8552727 Z" id="Fill-59" sketch:type="MSShapeGroup"></path>
            <path d="M19.3312727,64.6872727 L20.1774545,64.6872727 L20.1774545,67.4636364 C20.1774545,67.8949091 20.188,68.1756364 20.2090909,68.3061818 C20.2465455,68.5323636 20.3356364,68.7072727 20.4770909,68.8309091 C20.6185455,68.9545455 20.8047273,69.016 21.036,69.016 C21.2323636,69.016 21.3923636,68.9723636 21.516,68.8850909 C21.64,68.7974545 21.7247273,68.6763636 21.7701818,68.5214545 C21.8156364,68.3661818 21.8385455,68.0334545 21.8385455,67.5229091 L21.8385455,64.6872727 L22.6847273,64.6872727 L22.6847273,67.3796364 C22.6847273,68.0672727 22.648,68.5647273 22.5745455,68.8709091 C22.5010909,69.1774545 22.3356364,69.4258182 22.0778182,69.616 C21.8203636,69.8058182 21.4803636,69.9007273 21.0585455,69.9007273 C20.6203636,69.9007273 20.2781818,69.8221818 20.0323636,69.6647273 C19.7861818,69.5072727 19.608,69.2858182 19.4974545,69.0003636 C19.3865455,68.7149091 19.3312727,68.1887273 19.3312727,67.4214545 L19.3312727,64.6872727" id="Fill-60" sketch:type="MSShapeGroup"></path>
            <path d="M26.1221818,68.9007273 L26.1221818,69.8134545 L23.2967273,69.8134545 C23.3269091,69.4683636 23.4196364,69.1407273 23.5745455,68.8298182 C23.7294545,68.5185455 24.0309091,68.1105455 24.4785455,67.6050909 C24.8327273,67.2021818 25.0505455,66.9298182 25.1323636,66.7876364 C25.2534545,66.58 25.3141818,66.3716364 25.3141818,66.1621818 C25.3141818,65.9385455 25.264,65.7698182 25.164,65.6556364 C25.0636364,65.5414545 24.932,65.4843636 24.7687273,65.4843636 C24.412,65.4843636 24.2196364,65.7512727 24.1916364,66.2850909 L23.3909091,66.1872727 C23.44,65.6647273 23.5850909,65.2814545 23.8265455,65.0367273 C24.0676364,64.792 24.3887273,64.6694545 24.7898182,64.6694545 C25.2301818,64.6694545 25.5625455,64.8130909 25.7865455,65.0992727 C26.0101818,65.3861818 26.1221818,65.7141818 26.1221818,66.0843636 C26.1221818,66.2941818 26.0934545,66.4974545 26.0363636,66.6941818 C25.9792727,66.8909091 25.8912727,67.0894545 25.7723636,67.2883636 C25.6534545,67.4876364 25.4552727,67.7418182 25.1778182,68.052 C24.9192727,68.3429091 24.7552727,68.5349091 24.6865455,68.628 C24.6178182,68.7214545 24.5625455,68.8123636 24.5203636,68.9007273 L26.1221818,68.9007273" id="Fill-61" sketch:type="MSShapeGroup"></path>
            <path d="M29.388,68.9007273 L29.388,69.8134545 L26.5625455,69.8134545 C26.5927273,69.4683636 26.6854545,69.1407273 26.8407273,68.8298182 C26.9956364,68.5185455 27.2970909,68.1105455 27.7447273,67.6050909 C28.0989091,67.2021818 28.3167273,66.9298182 28.3985455,66.7876364 C28.5196364,66.58 28.5803636,66.3716364 28.5803636,66.1621818 C28.5803636,65.9385455 28.5301818,65.7698182 28.4298182,65.6556364 C28.3294545,65.5414545 28.1978182,65.4843636 28.0349091,65.4843636 C27.6781818,65.4843636 27.4858182,65.7512727 27.4578182,66.2850909 L26.6570909,66.1872727 C26.7058182,65.6647273 26.8512727,65.2814545 27.0923636,65.0367273 C27.3338182,64.792 27.6549091,64.6694545 28.0556364,64.6694545 C28.4963636,64.6694545 28.8287273,64.8130909 29.0523636,65.0992727 C29.276,65.3861818 29.388,65.7141818 29.388,66.0843636 C29.388,66.2941818 29.3592727,66.4974545 29.3021818,66.6941818 C29.2450909,66.8909091 29.1570909,67.0894545 29.0385455,67.2883636 C28.9196364,67.4876364 28.7210909,67.7418182 28.444,68.052 C28.1850909,68.3429091 28.0210909,68.5349091 27.9527273,68.628 C27.8836364,68.7214545 27.8283636,68.8123636 27.7865455,68.9007273 L29.388,68.9007273" id="Fill-62" sketch:type="MSShapeGroup"></path>
            <path d="M30.6229091,67.0458182 C30.4258182,66.9432727 30.2770909,66.8036364 30.1774545,66.6269091 C30.0778182,66.4501818 30.028,66.2374545 30.028,65.9883636 C30.028,65.5861818 30.1421818,65.2658182 30.3705455,65.0272727 C30.5989091,64.7890909 30.9069091,64.6694545 31.2938182,64.6694545 C31.704,64.6694545 32.0163636,64.7967273 32.2309091,65.0516364 C32.4454545,65.3065455 32.5527273,65.6163636 32.5527273,65.9814545 C32.5527273,66.2305455 32.5007273,66.4461818 32.3970909,66.6287273 C32.2930909,66.8112727 32.1516364,66.9505455 31.972,67.0458182 C32.212,67.1618182 32.3916364,67.3258182 32.5105455,67.5367273 C32.6294545,67.7476364 32.6890909,68.0069091 32.6890909,68.3141818 C32.6890909,68.6309091 32.6298182,68.9109091 32.5123636,69.1530909 C32.3945455,69.3949091 32.232,69.5803636 32.0247273,69.7083636 C31.8170909,69.8363636 31.584,69.9007273 31.3250909,69.9007273 C30.9196364,69.9007273 30.5843636,69.7603636 30.32,69.48 C30.0552727,69.1989091 29.9229091,68.8210909 29.9229091,68.3454545 C29.9229091,68.0378182 29.9832727,67.7738182 30.104,67.5523636 C30.2247273,67.3309091 30.3978182,67.1618182 30.6229091,67.0458182 L30.6229091,67.0458182 Z M30.7134545,68.252 C30.7134545,68.5265455 30.7716364,68.7381818 30.8887273,68.8872727 C31.0054545,69.0363636 31.1458182,69.1105455 31.3094545,69.1105455 C31.4730909,69.1105455 31.6105455,69.0396364 31.7218182,68.8978182 C31.8327273,68.7556364 31.8883636,68.5432727 31.8883636,68.2589091 C31.8883636,68.0145455 31.8312727,67.8218182 31.7181818,67.68 C31.6047273,67.5378182 31.4650909,67.4669091 31.2989091,67.4669091 C31.1352727,67.4669091 30.9967273,67.5389091 30.8832727,67.6818182 C30.7698182,67.8247273 30.7134545,68.0145455 30.7134545,68.252 L30.7134545,68.252 Z M30.7901818,66.0578182 C30.7901818,66.2570909 30.8374545,66.4101818 30.932,66.5167273 C31.0261818,66.6236364 31.1454545,66.6767273 31.2901818,66.6767273 C31.4370909,66.6767273 31.5581818,66.6236364 31.6538182,66.5167273 C31.7494545,66.4101818 31.7974545,66.2570909 31.7974545,66.0578182 C31.7974545,65.8654545 31.7501818,65.716 31.6556364,65.6094545 C31.5614545,65.5025455 31.4429091,65.4494545 31.3007273,65.4494545 C31.1516364,65.4494545 31.0290909,65.5032727 30.9334545,65.6112727 C30.8378182,65.7185455 30.7901818,65.8676364 30.7901818,66.0578182 L30.7901818,66.0578182 Z" id="Fill-63" sketch:type="MSShapeGroup"></path>
            <path d="M33.168,68.4567273 L33.948,68.3410909 C33.9687273,68.5825455 34.0356364,68.7669091 34.1476364,68.8945455 C34.26,69.0221818 34.392,69.0861818 34.544,69.0861818 C34.7101818,69.0861818 34.8501818,69.0105455 34.9650909,68.8589091 C35.0796364,68.7072727 35.1367273,68.4974545 35.1367273,68.2294545 C35.1367273,67.9796364 35.0818182,67.784 34.9716364,67.6418182 C34.8618182,67.5 34.7283636,67.4287273 34.5716364,67.4287273 C34.4687273,67.4287273 34.3458182,67.4530909 34.2032727,67.5021818 L34.2905455,66.7010909 C34.4989091,66.7061818 34.6643636,66.6501818 34.7861818,66.5338182 C34.9054545,66.4174545 34.9654545,66.2538182 34.9654545,66.0421818 C34.9654545,65.8654545 34.9221818,65.7272727 34.8356364,65.6272727 C34.7490909,65.5272727 34.6378182,65.4774545 34.5021818,65.4774545 C34.3665455,65.4774545 34.2490909,65.5352727 34.1494545,65.6505455 C34.0501818,65.7658182 33.9912727,65.9367273 33.9723636,66.1629091 L33.2276364,66.0087273 C33.3043636,65.5403636 33.4549091,65.2 33.6792727,64.9876364 C33.9032727,64.776 34.1858182,64.6694545 34.5265455,64.6694545 C34.9094545,64.6694545 35.2134545,64.8058182 35.4389091,65.0781818 C35.664,65.3505455 35.7767273,65.6516364 35.7767273,65.9825455 C35.7767273,66.2061818 35.7258182,66.4076364 35.6243636,66.5865455 C35.5232727,66.7658182 35.3709091,66.9229091 35.1683636,67.0578182 C35.4036364,67.1207273 35.5952727,67.2592727 35.7432727,67.4741818 C35.8912727,67.6887273 35.9654545,67.9567273 35.9654545,68.2781818 C35.9654545,68.7469091 35.8261818,69.1345455 35.5472727,69.4410909 C35.268,69.7472727 34.936,69.9007273 34.5509091,69.9007273 C34.1821818,69.9007273 33.8701818,69.772 33.6141818,69.5134545 C33.3589091,69.2556364 33.2101818,68.9032727 33.168,68.4567273" id="Fill-64" sketch:type="MSShapeGroup"></path>
            <path d="M38.5250909,69.8134545 L37.7207273,69.8134545 L37.7207273,66.1101818 C37.42,66.4483636 37.0727273,66.6963636 36.6789091,66.8552727 L36.6789091,65.9632727 C36.9025455,65.8730909 37.1345455,65.7109091 37.3745455,65.4770909 C37.6145455,65.2432727 37.7814545,64.9741818 37.8745455,64.6694545 L38.5250909,64.6694545 L38.5250909,69.8134545" id="Fill-65" sketch:type="MSShapeGroup"></path>
            <path d="M39.728,65.6698182 L39.728,64.7570909 L42.4836364,64.7570909 L42.4836364,65.4705455 C42.2570909,65.7432727 42.0283636,66.1309091 41.7963636,66.6330909 C41.5643636,67.1352727 41.3847273,67.6738182 41.2578182,68.2487273 C41.1305455,68.8232727 41.0672727,69.3447273 41.0672727,69.8134545 L40.2909091,69.8134545 C40.3094545,69.0861818 40.4309091,68.36 40.6545455,67.6349091 C40.8785455,66.9098182 41.1803636,66.2549091 41.5603636,65.6698182 L39.728,65.6698182" id="Fill-66" sketch:type="MSShapeGroup"></path>
            <path d="M46.5570909,69.1629091 C46.7647273,69.3425455 46.9909091,69.4869091 47.2356364,69.5967273 L46.9243636,70.3272727 C46.7985455,70.2807273 46.6749091,70.2178182 46.5538182,70.1385455 C46.5258182,70.1225455 46.3356364,69.9694545 45.9836364,69.6803636 C45.7061818,69.8272727 45.3894545,69.9007273 45.0327273,69.9007273 C44.4261818,69.9007273 43.9363636,69.6738182 43.5621818,69.2207273 C43.188,68.7672727 43.0010909,68.1105455 43.0010909,67.2501818 C43.0010909,66.388 43.1894545,65.7305455 43.5661818,65.2781818 C43.9429091,64.8258182 44.4370909,64.5996364 45.0483636,64.5996364 C45.6527273,64.5996364 46.1418182,64.8265455 46.5167273,65.2796364 C46.8909091,65.7330909 47.0781818,66.3901818 47.0781818,67.2501818 C47.0781818,67.6676364 47.0363636,68.0265455 46.9530909,68.3272727 C46.8698182,68.628 46.7378182,68.9065455 46.5570909,69.1629091 L46.5570909,69.1629091 Z M45.8752727,68.5789091 C46.0941818,68.276 46.204,67.8341818 46.204,67.2538182 C46.204,66.6523636 46.0952727,66.2069091 45.8785455,65.9178182 C45.6610909,65.6290909 45.3821818,65.4843636 45.0414545,65.4843636 C44.7003636,65.4843636 44.4207273,65.6290909 44.2025455,65.9178182 C43.9843636,66.2069091 43.8752727,66.6509091 43.8752727,67.2501818 C43.8752727,67.8585455 43.984,68.3094545 44.2021818,68.6018182 C44.42,68.8941818 44.6909091,69.0407273 45.0149091,69.0407273 C45.1363636,69.0407273 45.2516364,69.016 45.3614545,68.9672727 C45.184,68.8272727 45.0090909,68.7203636 44.8367273,68.6454545 L45.0745455,68.0545455 C45.3541818,68.1712727 45.6210909,68.3461818 45.8752727,68.5789091 L45.8752727,68.5789091 Z" id="Fill-67" sketch:type="MSShapeGroup"></path>
            <path d="M47.5014545,67.4636364 L49.0854545,67.4636364 L49.0854545,68.4461818 L47.5014545,68.4461818 L47.5014545,67.4636364 Z" id="Fill-68" sketch:type="MSShapeGroup"></path>
            <path d="M53.4912727,69.8134545 L52.5712727,69.8134545 L52.2032727,68.6523636 L50.5203636,68.6523636 L50.1727273,69.8134545 L49.2705455,69.8134545 L50.9076364,64.6872727 L51.8061818,64.6872727 L53.4912727,69.8134545 L53.4912727,69.8134545 Z M51.9298182,67.7850909 L51.3494545,65.8829091 L50.78,67.7850909 L51.9298182,67.7850909 L51.9298182,67.7850909 Z" id="Fill-69" sketch:type="MSShapeGroup"></path>
        </g>
    </g>
</svg>