<?xml version="1.0" encoding="UTF-8" standalone="no"?>
<svg width="22px" height="30px" viewBox="0 0 22 30" version="1.1" xmlns="http://www.w3.org/2000/svg" xmlns:xlink="http://www.w3.org/1999/xlink">
    <!-- Generator: Sketch 3.7.2 (28276) - http://www.bohemiancoding.com/sketch -->
    <title>file</title>
    <desc>Created with Sketch.</desc>
    <defs></defs>
    <g id="Page-1" stroke="none" stroke-width="1" fill="none" fill-rule="evenodd">
        <g id="file" fill="#000000">
            <path d="M16.5,17.5 L5.5,17.5 C4.82594444,17.5 4.27777778,18.060625 4.27777778,18.75 C4.27777778,19.439375 4.82594444,20 5.5,20 L16.5,20 C17.1740556,20 17.7222222,19.439375 17.7222222,18.75 C17.7222222,18.060625 17.1740556,17.5 16.5,17.5" id="Fill-1"></path>
            <path d="M16.5,22.5 L5.5,22.5 C4.82594444,22.5 4.27777778,23.060625 4.27777778,23.75 C4.27777778,24.439375 4.82594444,25 5.5,25 L16.5,25 C17.1740556,25 17.7222222,24.439375 17.7222222,23.75 C17.7222222,23.060625 17.1740556,22.5 16.5,22.5" id="Fill-3"></path>
            <path d="M4.27777778,13.75 C4.27777778,14.439375 4.82594444,15 5.5,15 L16.5,15 C17.1740556,15 17.7222222,14.439375 17.7222222,13.75 C17.7222222,13.060625 17.1740556,12.5 16.5,12.5 L5.5,12.5 C4.82594444,12.5 4.27777778,13.060625 4.27777778,13.75" id="Fill-5"></path>
            <path d="M14.6666667,8.75 L19.5555556,8.75 L19.5555556,26.875 C19.5555556,27.22 19.2817778,27.5 18.9444444,27.5 L3.05555556,27.5 C2.71883333,27.5 2.44444444,27.22 2.44444444,26.875 L2.44444444,3.125 C2.44444444,2.780625 2.71883333,2.5 3.05555556,2.5 L13.4444444,2.5 L13.4444444,7.5 C13.4444444,8.189375 13.9926111,8.75 14.6666667,8.75 M21.5575556,6.55 L15.5955556,0.4525 C15.3590556,0.164375 15.0223333,0 14.6501667,0 L3.05555556,0 C1.37072222,0 0,1.401875 0,3.125 L0,26.875 C0,28.598125 1.37072222,30 3.05555556,30 L18.9444444,30 C20.6292778,30 22,28.598125 22,26.875 L22,7.5 C22,7.135 21.8392778,6.79125 21.5575556,6.55" id="Fill-7"></path>
        </g>
    </g>
</svg>