<?xml version="1.0" encoding="UTF-8" standalone="no"?>
<svg width="258px" height="157px" viewBox="0 0 258 157" version="1.1" xmlns="http://www.w3.org/2000/svg" xmlns:xlink="http://www.w3.org/1999/xlink" xmlns:sketch="http://www.bohemiancoding.com/sketch/ns">
    <!-- Generator: Sketch 3.5.1 (25234) - http://www.bohemiancoding.com/sketch -->
    <title>logo</title>
    <desc>Created with Sketch.</desc>
    <defs>
        <path id="path-1" d="M0,0.284 L257.547,0.284 L257.547,157 L0,157 L0,0.284 Z"></path>
        <path id="path-3" d="M0,0.284 L257.547,0.284 L257.547,157 L0,157 L0,0.284 Z"></path>
    </defs>
    <g id="Page-1" stroke="none" stroke-width="1" fill="none" fill-rule="evenodd" sketch:type="MSPage">
        <g id="logo" sketch:type="MSLayerGroup">
            <path d="M112.834,63.6815 C115.67,71.4525 124.094,94.3735 128.707,106.3955 L128.92,106.3955 C134.169,92.3255 142.475,72.1315 145.154,63.6815 L152.463,63.6815 C149.79,70.6665 135.703,109.2965 128.143,129.6125 L123.629,129.6125 C117.067,111.5535 102.184,75.3845 97.566,63.6815 L112.834,63.6815 Z" id="Fill-1" fill="#1D1C1B" sketch:type="MSShapeGroup"></path>
            <path d="M197.2835,96.9328 L210.1155,96.9328 L210.1155,121.9868 C204.2685,126.3718 192.4955,131.4058 184.6155,131.4058 C162.5655,131.4058 148.5615,117.2058 148.5615,97.6258 C148.5615,74.7378 166.1355,61.1748 185.9175,61.6318 C202.6465,62.0188 208.6535,76.0258 208.6535,76.0258 L202.5285,79.2078 C199.4195,70.2308 193.0355,67.2958 185.4345,67.2958 C172.7285,67.2958 162.3405,77.9518 162.3405,95.9068 C162.3405,110.7648 169.9535,126.2478 186.6445,126.2478 C189.1075,126.2478 195.8715,123.5278 197.4475,122.6358 L197.2835,96.9328 Z" id="Fill-3" fill="#1D1C1B" sketch:type="MSShapeGroup"></path>
            <g id="Group-7">
                <mask id="mask-2" sketch:name="Clip 6" fill="white">
                    <use xlink:href="#path-1"></use>
                </mask>
                <g id="Clip-6"></g>
                <path d="M252.1383,78.1364 C248.4233,66.5654 238.3743,67.9044 238.3743,67.9044 C232.0213,67.9044 228.3863,71.2674 228.3863,76.6744 C228.3863,82.8144 232.1883,86.3034 240.3803,90.3964 C249.5153,94.9114 257.5473,100.1624 257.5473,110.6074 C257.5473,121.5794 248.3923,130.8724 234.5373,130.6954 C219.9543,130.5094 215.7793,122.1694 215.7793,122.1694 L221.2753,116.6674 C223.9093,122.6734 231.2903,125.3344 236.6613,125.3364 C243.1173,125.3364 245.9263,120.3254 245.9263,113.7654 C245.9263,107.4104 238.9453,103.3424 231.6483,99.5134 C223.0343,95.2044 215.4133,91.6114 215.4133,81.4254 C215.4133,71.0834 225.9883,61.6324 239.5313,61.6324 C253.6723,61.6324 256.5383,72.4914 257.1933,74.0564 L252.1383,78.1364 Z" id="Fill-5" fill="#1D1C1B" sketch:type="MSShapeGroup" mask="url(#mask-2)"></path>
            </g>
            <path d="M92.325,63.6815 L47.325,156.9995 L47.325,137.9925 L90.189,63.6815 L92.325,63.6815 Z" id="Fill-8" fill="#1D1C1B" sketch:type="MSShapeGroup"></path>
            <path d="M0,63.6815 L45,156.9995 L45,137.9925 L2.135,63.6815 L0,63.6815 Z" id="Fill-10" fill="#1D1C1B" sketch:type="MSShapeGroup"></path>
            <path d="M32.7788,109.0923 L46.5508,130.6973 L60.1258,109.0923 L32.7788,109.0923 Z" id="Fill-12" fill="#1D1C1B" sketch:type="MSShapeGroup"></path>
            <g id="Group-16">
                <mask id="mask-4" sketch:name="Clip 15" fill="white">
                    <use xlink:href="#path-3"></use>
                </mask>
                <g id="Clip-15"></g>
                <path d="M47.3254,85.4296 L47.3254,0.2836 C47.3254,0.2836 5.2394,0.4776 3.8804,47.8026 C3.8804,65.1606 32.7784,109.0926 32.7784,109.0926 C32.7784,109.0926 70.4114,98.1816 84.7614,63.6816 L81.6554,63.6816 C81.6554,63.6816 73.1234,91.0556 46.4534,91.0556 C19.7834,91.0556 10.8614,69.7206 10.8614,58.8586 C10.8614,47.9976 16.6794,37.1356 32.0024,37.1356 C47.3254,37.1356 44.2284,56.9196 44.3214,67.3926 C44.4154,77.8666 44.3214,85.4296 44.3214,85.4296 L47.3254,85.4296 Z" id="Fill-14" fill="#1D1C1B" sketch:type="MSShapeGroup" mask="url(#mask-4)"></path>
            </g>
        </g>
    </g>
</svg>