<?xml version="1.0" encoding="UTF-8" standalone="no"?>
<svg width="22px" height="28px" viewBox="0 0 22 28" version="1.1" xmlns="http://www.w3.org/2000/svg" xmlns:xlink="http://www.w3.org/1999/xlink" xmlns:sketch="http://www.bohemiancoding.com/sketch/ns">
    <!-- Generator: Sketch 3.3 (11970) - http://www.bohemiancoding.com/sketch -->
    <title>pdf</title>
    <desc>Created with Sketch.</desc>
    <defs></defs>
    <g id="Page-1" stroke="none" stroke-width="1" fill="none" fill-rule="evenodd" sketch:type="MSPage">
        <g id="pdf" sketch:type="MSLayerGroup" fill="#1A1918">
            <path d="M1.7275806,0 C0.774900021,0 0,0.774900021 0,1.72797921 L0,26.3131174 C0,27.2657979 0.774900021,28.0410966 1.7275806,28 L19.9636408,28 C20.9163214,28.0410966 21.69162,27.2657979 22,26.3131174 L22,7.12995713 L14.5620615,0 L1.7275806,0 L1.7275806,0 Z M15,2 L21,7 L15,7 L15,2 Z M20.4366043,27.0000009 L1.5625,27.0000012 C1.26952082,27.0000012 1.03075276,26.7612331 1.03075276,26.4678553 L1.03075277,1.53214613 C1.03075277,1.23876834 1.26952084,1.00000028 1.56250001,1.00000028 L13.9687501,0.999999995 L13.9687501,7.97541205 L20.9687502,7.9754121 L20.9687501,26.4678551 C20.9687501,26.7612329 20.7299821,27.0000009 20.4366043,27.0000009 Z" id="Imported-Layers" sketch:type="MSShapeGroup"></path>
            <path d="M15.1902726,19.3823998 L16.8967268,19.3823998 L16.8967268,18.4597383 L15.1902726,18.4597383 L15.1902726,16.9222461 L16.9768477,16.9222461 L16.9768477,16 L13.986467,16 L13.986467,22 L15.1902726,22 L15.1902726,19.3823998 L15.1902726,19.3823998 Z" id="Path" sketch:type="MSShapeGroup"></path>
            <path d="M11.1726711,16 L9.16327247,16 L9.16327247,22 L11.1248378,22 C13.1820698,22 13.046542,19.8892197 13.046542,18.9665582 C13.046542,17.0967251 12.7515698,16 11.1726711,16 Z M10.9494489,21.0773385 L10.3674767,21.0773385 L10.3674767,16.9222461 L10.98931,16.9222461 C11.826792,16.9222461 11.826792,17.8947587 11.826792,18.9997923 C11.826792,20.5040504 11.6828934,21.0773385 10.9494489,21.0773385 Z" id="Path" sketch:type="MSShapeGroup"></path>
            <path d="M6.88361546,16 L4.71477235,16 L4.71477235,22 L5.91857794,22 L5.91857794,19.5568788 L6.81186546,19.5568788 C8.22334744,19.5568788 8.41468078,18.4763553 8.41468078,17.7950564 C8.41468078,16.6979159 7.98418077,16 6.88361546,16 Z M6.58864323,18.6342173 L5.91857794,18.6342173 L5.91857794,16.9222461 L6.52486545,16.9222461 C7.06697658,16.9222461 7.19493075,17.3380877 7.19493075,17.8282905 C7.19493075,18.2270996 6.94739324,18.6342173 6.58864323,18.6342173 Z" id="Path" sketch:type="MSShapeGroup"></path>
        </g>
    </g>
</svg>