<svg width="107" height="108" viewBox="0 0 107 108" xmlns="http://www.w3.org/2000/svg"><g id="Page-1" fill="none" fill-rule="evenodd"><g id="Landscape-Retina" transform="translate(-1140 -622)" fill="#fff"><g id="radia" transform="translate(1140 622)"><path d="M96.25 92.925c-4.47-6.435-25.285-36.877-25.285-36.877 6.12-2.36 10.922-5.878 14.412-10.548 3.488-4.67 5.234-9.85 5.234-15.54 0-4.292-.833-8.213-2.495-11.755-1.666-3.543-4.082-6.603-7.246-9.18-3.17-2.576-7.006-4.562-11.516-5.958C54.33-1.586 32.944 1.09 17.32 1.027 12.198 1.007 8.556.902 3.713.23c-.762-.106-2.2-.57-3 .23-.99.99-.865 1.93-.134 3.023 1.99 2.987 3.41 5.08 5.378 8.047 2.02 3.05 5.59 3.56 8.92 3.792 4.52.313 9.04.31 13.57.222 2.67-.053 5.336-.157 8.003-.277 6.075-.276 12.23-.623 18.27.3 8.01 1.228 14.663 6.41 13.96 15.147-.438 5.418-2.494 10.398-7.05 13.495-5.76 3.91-12.785 4.07-19.49 4.07-3.84 0-4.062-.148-8.164-.57-.95-.097-1.855.127-2.185 1.05-.404 1.13-.087 1.46.708 2.62.676.984 4.136 6.18 5.18 7.704.937 1.364 2.638 1.965 4.144 2.41C51.16 64.26 56.69 70.45 61.89 78.354c2.65 4.027 5.16 8.142 7.9 12.107 1.516 2.196 3.102 4.345 4.81 6.394 3.967 4.753 9.185 6.884 15.025 8.455 4.668 1.255 9.81 1.66 13.926 1.75 4.323.094 3.69-2.655 2.05-3.895-3.734-2.825-6.25-5.77-9.35-10.24" id="Imported-Layers"/></g></g></g></svg>