<svg width="66" height="66" viewBox="0 0 66 66" xmlns="http://www.w3.org/2000/svg"><path d="M30.802 2.863c0 1.105.896 2 2 2 7.48 0 14.51 2.912 19.8 8.2 5.288 5.29 8.2 12.322 8.2 19.8 0 7.38-2.842 14.324-8 19.587v-5.587c0-1.104-.895-2-2-2-1.104 0-2 .896-2 2v12h12c1.105 0 2-.895 2-2 0-1.104-.895-2-2-2h-4.776c5.66-5.968 8.776-13.742 8.776-22 0-8.547-3.328-16.583-9.373-22.627C49.384 4.19 41.35.863 32.8.863c-1.104 0-2 .896-2 2zM8.176 53.49c6.044 6.045 14.08 9.373 22.626 9.373 1.105 0 2-.895 2-2 0-1.104-.895-2-2-2-7.48 0-14.51-2.912-19.797-8.2-5.29-5.29-8.203-12.32-8.203-19.8 0-7.38 2.842-14.323 8-19.587v5.587c0 1.105.896 2 2 2 1.105 0 2-.895 2-2v-12h-12c-1.104 0-2 .896-2 2 0 1.105.896 2 2 2H8.58c-5.664 6.97-8.78 14.742-8.78 23 0 8.547 3.33 16.583 9.374 22.627z" id="refresh" fill="#0B4ACE" fill-rule="evenodd"/></svg>