<?xml version="1.0" encoding="UTF-8" standalone="no"?>
<svg width="19px" height="19px" viewBox="0 0 19 19" version="1.1" xmlns="http://www.w3.org/2000/svg" xmlns:xlink="http://www.w3.org/1999/xlink" xmlns:sketch="http://www.bohemiancoding.com/sketch/ns">
    <!-- Generator: Sketch 3.3.3 (12072) - http://www.bohemiancoding.com/sketch -->
    <title>zoom</title>
    <desc>Created with Sketch.</desc>
    <defs></defs>
    <g id="Page-1" stroke="none" stroke-width="1" fill="none" fill-rule="evenodd" sketch:type="MSPage">
        <g id="zoom" sketch:type="MSLayerGroup" fill="#FFFFFF">
            <path d="M4.96404082,9.253 L7.67832653,9.253 L7.67832653,11.9672857 C7.67832653,12.3957551 8.02536735,12.7427959 8.45383673,12.7427959 C8.88191837,12.7427959 9.22934694,12.3957551 9.22934694,11.9672857 L9.22934694,9.253 L11.9436327,9.253 C12.3717143,9.253 12.7191429,8.90595918 12.7191429,8.4774898 C12.7191429,8.04940816 12.3717143,7.70197959 11.9436327,7.70197959 L9.22934694,7.70197959 L9.22934694,4.98769388 C9.22934694,4.55961224 8.88191837,4.21218367 8.45383673,4.21218367 C8.02536735,4.21218367 7.67832653,4.55961224 7.67832653,4.98769388 L7.67832653,7.70197959 L4.96404082,7.70197959 C4.53557143,7.70197959 4.18853061,8.04940816 4.18853061,8.4774898 C4.18853061,8.90595918 4.53557143,9.253 4.96404082,9.253" id="Fill-1" sketch:type="MSShapeGroup"></path>
            <path d="M18.9701429,17.8972245 L14.7312041,13.6586735 C15.8956327,12.2495714 16.5966939,10.4441837 16.5966939,8.4774898 C16.5966939,3.98728571 12.9436531,0.334632653 8.45383673,0.334632653 C3.96402041,0.334632653 0.310979592,3.98728571 0.310979592,8.4774898 C0.310979592,12.9676939 3.96402041,16.6203469 8.45383673,16.6203469 C10.4201429,16.6203469 12.2255306,15.9196735 13.6346327,14.7552449 L17.8735714,18.9937959 L18.9701429,17.8972245 L18.9701429,17.8972245 Z M8.45383673,15.0693265 C4.81902041,15.0693265 1.862,12.1123061 1.862,8.4774898 C1.862,4.84267347 4.81902041,1.88565306 8.45383673,1.88565306 C12.0886531,1.88565306 15.0456735,4.84267347 15.0456735,8.4774898 C15.0456735,12.1123061 12.0886531,15.0693265 8.45383673,15.0693265 L8.45383673,15.0693265 Z" id="Fill-2" sketch:type="MSShapeGroup"></path>
        </g>
    </g>
</svg>