<svg width="158" height="74" viewBox="0 0 158 74" xmlns="http://www.w3.org/2000/svg" xmlns:xlink="http://www.w3.org/1999/xlink"><defs><path id="path-1" d="M0 .965h157.715V74H0V.965z"/></defs><g id="Page-1" fill="none" fill-rule="evenodd"><g id="cert-1"><path d="M24.743 1.095L0 37.662 24.743 74l24.094-36.338-24.094-36.57v.003zM1.57 37.66L24.73 3.436 47.28 37.66 24.73 71.67 1.57 37.66z" id="Fill-1" fill="#000"/><g id="Group-59"><path d="M24.37 53.557c1.357 0 2.33 1.632 2.33 3.646 0 2.014-.973 3.647-2.33 3.647-1.36 0-2.334-1.633-2.334-3.647s.972-3.647 2.332-3.647zm2.157 9.07c-.3-.168-.94-.842-1.208-1.132-.03-.03-.016-.077.023-.088 1.744-.502 2.96-2.234 2.96-4.293 0-2.454-1.723-4.442-4.008-4.442s-4.008 1.988-4.008 4.44c0 1.836.965 3.41 2.41 4.088.116.055.217.137.3.236.316.37 1.01 1.16 1.753 1.655 1.105.738 3.813.65 3.813.65v-.52s-1.007-.02-2.036-.594z" id="Fill-2" fill="#000"/><path d="M25.935 16.822c0-1.22.974-2.21 2.195-2.21h2.094v-.78H18.656v.78h2.065c1.223 0 2.226.99 2.226 2.21v30.625c0 1.606-1.316 2.908-2.922 2.908h-1.367v.78h11.568v-.78H28.83c-1.607 0-2.894-1.302-2.894-2.908V16.822" id="Fill-4" fill="#000"/><path d="M31.744 19.86c-2.337-1.527-4.68-1.642-4.94-1.65l-.09-.003v2.882s6.932.205 6.932 8.827c0 8.13-6.165 8.357-6.867 8.357-.044 0-.066-.008-.066-.008v2.86h.064c.665 0 3.012-.115 5.27-1.604 2.033-1.34 4.456-4.097 4.456-9.617 0-5.732-2.59-8.627-4.762-10.045" id="Fill-6" fill="#000"/><path d="M16.155 21.18c1.575-1.764 3.445-2.815 5.83-3.006v2.888c-1.3.046-1.76.89-1.94 2.07-.57 3.76-1.18 7.514-1.77 11.27-.015.084-.026.19-.003.337h3.862v2.537H18.48c-.58 0-.767.16-.767.722v.52c-.013 1.43.404 1.886 1.82 1.924.3.008.6.028.942.045v.637h-9.26s.004-.566.004-.638c2.246 0 2.965-1.184 3.243-2.737.806-4.514 1.646-9.023 2.518-13.524.23-1.176.153-2.204-.826-3.053" id="Fill-8" fill="#000"/><path d="M30.706 71.405h.54c.155 0 .272-.033.348-.1.077-.064.115-.155.115-.27 0-.106-.04-.19-.115-.257-.075-.065-.18-.098-.315-.098h-.574v.725zm1.442 1.337h-.458l-.374-.99h-.61v.99h-.434v-2.407h1.044c.29 0 .503.065.64.196.136.13.204.3.204.51 0 .31-.144.52-.433.64l.42 1.062z" id="Fill-10" fill="#000"/><path d="M31.144 69.05c-1.36 0-2.47 1.107-2.47 2.47 0 1.36 1.11 2.47 2.47 2.47 1.362 0 2.47-1.11 2.47-2.47 0-1.363-1.108-2.47-2.47-2.47m0 .39c1.15 0 2.08.93 2.08 2.08 0 1.147-.93 2.08-2.08 2.08-1.148 0-2.08-.933-2.08-2.08 0-1.15.932-2.08 2.08-2.08" id="Fill-12" fill="#000"/><path d="M76.54 3.493l-1.996 5.34h3.96l-1.963-5.34zm5.407 10.098h-1.705l-1.282-3.538h-4.855l-1.315 3.54-1.623-.002 4.546-11.559 1.72.002 4.514 11.559z" id="Fill-14" fill="#000"/><path d="M84.153 6.43c.715-.957 1.494-1.428 2.728-1.428 1.12 0 1.9.44 2.322 1.445.715-.958 1.526-1.46 2.776-1.46 1.77 0 2.647 1.038 2.647 2.743v5.86h-1.38V8.315c0-1.185-.18-2.094-1.672-2.094-1.575 0-2.144 1.07-2.144 2.614v4.757h-1.38V8.218c0-1.104-.21-1.98-1.543-1.98-1.85 0-2.273 1.346-2.273 2.922v4.43h-1.38V5.214h1.3V6.43z" id="Fill-16" fill="#000"/><path d="M100.126 6.106c-1.35 0-2.29.974-2.47 2.55h4.87c-.13-1.592-1.02-2.55-2.4-2.55m.08 7.76c-2.468 0-3.945-1.623-3.945-4.35 0-2.712 1.576-4.547 3.897-4.547 2.76 0 3.8 2.19 3.8 4.61v.195h-6.3l-.016.098c0 1.785.992 2.857 2.615 2.857 1.202 0 1.868-.52 2.258-1.786h1.346c-.422 1.932-1.672 2.922-3.653 2.922" id="Fill-18" fill="#000"/><path d="M109.784 6.447c-.146-.016-.21-.016-.357-.016-2.273 0-2.68 1.738-2.68 3.62v3.54h-1.38V5.214h1.316v1.802c.584-1.412 1.608-1.997 3.1-1.997v1.43z" id="Fill-20" fill="#000"/><mask id="mask-2" fill="#fff"><use xlink:href="#path-1"/></mask><path d="M112.282 13.59h-1.396V5.215h1.396v8.377zm0-9.87h-1.396V2.032h1.396V3.72z" id="Fill-22" fill="#000" mask="url(#mask-2)"/><path d="M117.98 13.834c-2.598 0-3.978-1.77-3.978-4.32 0-2.79 1.56-4.545 4.027-4.545 2.045 0 3.327 1.07 3.554 2.97h-1.428c-.244-1.185-.975-1.818-2.112-1.818-1.59 0-2.597 1.267-2.597 3.28 0 2.045.942 3.28 2.5 3.28 1.25 0 2.08-.764 2.29-2.144h1.396c-.244 1.997-1.575 3.296-3.653 3.296" id="Fill-24" fill="#000" mask="url(#mask-2)"/><path d="M126.486 9.743c-1.007.13-2.37.244-2.37 1.59 0 .862.633 1.397 1.672 1.397 1.3 0 2.55-.893 2.55-1.964V9.24c-.52.39-1.236.42-1.852.503zm4.075 3.815c-.292.114-.633.163-.94.163-.78 0-1.202-.438-1.22-1.233-.826.925-1.735 1.33-3.034 1.33-1.656 0-2.68-.908-2.68-2.37 0-1.493.99-2.37 2.972-2.613 1.997-.244 2.68-.195 2.68-1.332 0-.892-.667-1.38-1.9-1.38-1.283 0-1.95.47-2.08 1.705h-1.347c.05-1.786 1.35-2.84 3.508-2.84 1.12 0 2.078.29 2.63.81.585.57.568 1.43.568 2.176 0 1.25-.064 2.484-.064 3.734 0 .618.146.828.567.828.13 0 .195-.016.34-.048v1.07z" id="Fill-25" fill="#000" mask="url(#mask-2)"/><path d="M133.156 6.512c.698-1.023 1.575-1.526 2.857-1.526 2.046 0 2.792 1.12 2.792 3.036v5.57h-1.38V8.654c0-1.33-.064-2.468-1.8-2.468-1.803 0-2.388 1.364-2.388 3.02v4.384h-1.38V5.214h1.3v1.3z" id="Fill-26" fill="#000" mask="url(#mask-2)"/><path d="M74.17 27.046h2.94c1.477 0 2.612-.406 2.612-2.11 0-1.85-1.314-2.11-2.823-2.11h-2.73v4.22zm3.23-5.536c2.21 0 3.85.925 3.85 3.328 0 2.614-1.69 3.49-3.947 3.49H74.17v4.74h-1.526V21.51H77.4z" id="Fill-27" fill="#000" mask="url(#mask-2)"/><path d="M86.28 25.585c-1.348 0-2.29.974-2.468 2.55h4.87c-.13-1.592-1.022-2.55-2.402-2.55m.08 7.76c-2.467 0-3.944-1.623-3.944-4.35 0-2.712 1.575-4.547 3.896-4.547 2.76 0 3.8 2.192 3.8 4.61v.196h-6.3l-.016.098c0 1.785.99 2.857 2.614 2.857 1.2 0 1.867-.52 2.257-1.787h1.347c-.422 1.932-1.672 2.922-3.653 2.922" id="Fill-28" fill="#000" mask="url(#mask-2)"/><path d="M95.158 25.828h-1.672v4.887c0 .762-.05 1.234.925 1.234.277 0 .456-.018.748-.05v1.185c-.438.05-.617.065-1.056.065-2.093 0-1.996-1.04-1.996-2.874v-4.448h-1.413V24.69h1.413v-2.483h1.38v2.484h1.672v1.138z" id="Fill-29" fill="#000" mask="url(#mask-2)"/><path d="M101.05 25.926c-.146-.016-.21-.016-.357-.016-2.273 0-2.68 1.737-2.68 3.62v3.54h-1.38v-8.378h1.316v1.802c.583-1.412 1.607-1.997 3.1-1.997v1.43z" id="Fill-30" fill="#000" mask="url(#mask-2)"/><path d="M102.787 28.88c0 2.062.99 3.28 2.68 3.28 1.623 0 2.596-1.234 2.596-3.296 0-1.997-1.005-3.263-2.63-3.263-1.624 0-2.646 1.283-2.646 3.28m6.69-.048c0 2.84-1.478 4.497-4.027 4.497-2.565 0-4.092-1.657-4.092-4.417s1.575-4.465 4.108-4.465c2.533 0 4.01 1.607 4.01 4.384" id="Fill-31" fill="#000" mask="url(#mask-2)"/><path d="M112.574 33.07h-1.396V21.51h1.396v11.56z" id="Fill-32" fill="#000" mask="url(#mask-2)"/><path d="M118.142 25.585c-1.348 0-2.29.974-2.468 2.55h4.87c-.13-1.592-1.022-2.55-2.402-2.55m.08 7.76c-2.467 0-3.944-1.623-3.944-4.35 0-2.712 1.575-4.547 3.896-4.547 2.76 0 3.8 2.192 3.8 4.61v.196h-6.3l-.016.098c0 1.785.99 2.857 2.614 2.857 1.2 0 1.867-.52 2.257-1.787h1.346c-.422 1.932-1.672 2.922-3.653 2.922" id="Fill-33" fill="#000" mask="url(#mask-2)"/><path d="M130.38 33.07h-1.28v-1.316c-.732 1.055-1.657 1.542-2.89 1.542-1.755 0-2.794-.99-2.794-2.84V24.69h1.38v5.39c0 1.2.342 2.013 1.754 2.013 1.818 0 2.45-1.3 2.45-3.02v-4.383h1.38v8.377z" id="Fill-34" fill="#000" mask="url(#mask-2)"/><path d="M133.756 25.91c.715-.96 1.494-1.43 2.728-1.43 1.12 0 1.9.44 2.32 1.445.716-.957 1.527-1.46 2.777-1.46 1.77 0 2.648 1.038 2.648 2.744v5.86h-1.38v-5.277c0-1.185-.18-2.095-1.672-2.095-1.575 0-2.144 1.072-2.144 2.614v4.757h-1.38v-5.375c0-1.104-.21-1.98-1.542-1.98-1.85 0-2.273 1.346-2.273 2.922v4.432h-1.38V24.69h1.3v1.218z" id="Fill-35" fill="#000" mask="url(#mask-2)"/><path d="M74.17 52.547h-1.526v-11.56h1.526v11.56z" id="Fill-36" fill="#000" mask="url(#mask-2)"/><path d="M77.838 45.47c.698-1.024 1.575-1.527 2.857-1.527 2.046 0 2.793 1.12 2.793 3.036v5.567h-1.38v-4.935c0-1.33-.065-2.468-1.802-2.468-1.802 0-2.387 1.364-2.387 3.02v4.383h-1.38V44.17h1.298v1.3z" id="Fill-37" fill="#000" mask="url(#mask-2)"/><path d="M90.402 46.605c-.097-1.104-.86-1.526-2.046-1.526-1.055 0-1.704.437-1.704 1.135 0 .942 1.088 1.088 2.224 1.348 1.413.325 3.248.73 3.248 2.55 0 1.623-1.38 2.694-3.475 2.694-2.274 0-3.524-1.022-3.605-2.906h1.364c.08 1.267.94 1.77 2.27 1.77 1.235 0 2.047-.55 2.047-1.396 0-.925-.94-1.12-2.11-1.412-1.445-.358-3.378-.535-3.378-2.468 0-1.51 1.25-2.468 3.198-2.468 1.883 0 3.344.91 3.344 2.68h-1.38z" id="Fill-38" fill="#000" mask="url(#mask-2)"/><path d="M97.268 45.306h-1.672v4.887c0 .763-.05 1.234.925 1.234.277 0 .456-.017.748-.05v1.187c-.438.048-.617.064-1.055.064-2.094 0-1.997-1.04-1.997-2.874v-4.448h-1.413V44.17h1.413v-2.484h1.38v2.484h1.672v1.136z" id="Fill-39" fill="#000" mask="url(#mask-2)"/><path d="M100.254 52.547h-1.396V44.17h1.396v8.377zm0-9.87h-1.396v-1.69h1.396v1.69z" id="Fill-40" fill="#000" mask="url(#mask-2)"/><path d="M105.985 45.306h-1.672v4.887c0 .763-.05 1.234.925 1.234.276 0 .455-.017.747-.05v1.187c-.438.048-.617.064-1.055.064-2.094 0-1.997-1.04-1.997-2.874v-4.448h-1.413V44.17h1.413v-2.484h1.38v2.484h1.672v1.136z" id="Fill-41" fill="#000" mask="url(#mask-2)"/><path d="M114.458 52.547h-1.282v-1.315c-.73 1.055-1.656 1.543-2.89 1.543-1.754 0-2.793-.99-2.793-2.842V44.17h1.38v5.39c0 1.2.342 2.012 1.754 2.012 1.818 0 2.45-1.298 2.45-3.02V44.17h1.38v8.377z" id="Fill-42" fill="#000" mask="url(#mask-2)"/><path d="M120.123 45.306h-1.672v4.887c0 .763-.048 1.234.926 1.234.276 0 .455-.017.747-.05v1.187c-.438.048-.617.064-1.056.064-2.093 0-1.996-1.04-1.996-2.874v-4.448h-1.412V44.17h1.413v-2.484h1.38v2.484h1.673v1.136z" id="Fill-43" fill="#000" mask="url(#mask-2)"/><path d="M125.073 45.063c-1.348 0-2.29.974-2.468 2.55h4.87c-.13-1.592-1.022-2.55-2.402-2.55m.08 7.76c-2.467 0-3.944-1.623-3.944-4.35 0-2.712 1.574-4.547 3.895-4.547 2.76 0 3.8 2.192 3.8 4.612v.194h-6.3l-.016.098c0 1.786.99 2.857 2.613 2.857 1.2 0 1.867-.52 2.257-1.786h1.347c-.422 1.933-1.672 2.924-3.653 2.924" id="Fill-44" fill="#000" mask="url(#mask-2)"/><path d="M77.37 72.302c-3.297 0-5.36-2.338-5.36-6.04 0-3.312 1.917-6.056 5.472-6.056 2.274 0 4.563 1.267 4.79 3.735h-1.526c-.34-1.51-1.575-2.418-3.296-2.418-2.744 0-3.896 2.29-3.896 4.724 0 2.94 1.477 4.74 3.88 4.74 1.964 0 3.165-1.168 3.41-3.328h1.525c-.26 2.94-2.144 4.644-5 4.644" id="Fill-45" fill="#000" mask="url(#mask-2)"/><path d="M87.48 64.54c-1.347 0-2.288.975-2.467 2.55h4.87c-.13-1.59-1.022-2.55-2.402-2.55m.082 7.762c-2.468 0-3.945-1.624-3.945-4.352 0-2.71 1.575-4.546 3.896-4.546 2.76 0 3.8 2.192 3.8 4.612v.194h-6.3l-.016.098c0 1.786.99 2.857 2.614 2.857 1.202 0 1.868-.52 2.258-1.786h1.347c-.422 1.93-1.672 2.922-3.653 2.922" id="Fill-46" fill="#000" mask="url(#mask-2)"/><path d="M97.138 64.882c-.146-.017-.21-.017-.357-.017-2.272 0-2.678 1.738-2.678 3.62v3.54h-1.38V63.65h1.315v1.8c.584-1.413 1.608-1.997 3.1-1.997v1.43z" id="Fill-47" fill="#000" mask="url(#mask-2)"/><path d="M101.764 64.784h-1.672v4.887c0 .764-.05 1.236.925 1.236.276 0 .455-.018.747-.05v1.187c-.438.047-.617.063-1.055.063-2.095 0-1.998-1.038-1.998-2.873v-4.45H97.3V63.65h1.412v-2.484h1.38v2.484h1.672v1.136z" id="Fill-48" fill="#000" mask="url(#mask-2)"/><path d="M104.75 72.026h-1.395V63.65h1.396v8.376zm0-9.87h-1.395v-1.69h1.396v1.69z" id="Fill-49" fill="#000" mask="url(#mask-2)"/><path d="M110.675 61.635c-.18-.032-.487-.064-.764-.064-.875 0-1.053.195-1.053 1.12v.96h1.606v1.134h-1.606v7.242h-1.397v-7.242h-1.413V63.65h1.413v-1.122c0-1.56.844-2.16 2.32-2.16.342 0 .49.017.895.066v1.2z" id="Fill-50" fill="#000" mask="url(#mask-2)"/><path d="M113.158 72.026h-1.396V63.65h1.396v8.376zm0-9.87h-1.396v-1.69h1.396v1.69z" id="Fill-51" fill="#000" mask="url(#mask-2)"/><path d="M118.856 72.27c-2.598 0-3.978-1.77-3.978-4.32 0-2.79 1.56-4.545 4.027-4.545 2.045 0 3.328 1.07 3.555 2.97h-1.428c-.244-1.184-.975-1.818-2.112-1.818-1.59 0-2.597 1.267-2.597 3.28 0 2.046.942 3.28 2.5 3.28 1.25 0 2.08-.763 2.29-2.144h1.395c-.243 1.997-1.574 3.296-3.652 3.296" id="Fill-52" fill="#000" mask="url(#mask-2)"/><path d="M127.36 68.178c-1.006.13-2.37.243-2.37 1.59 0 .86.634 1.397 1.673 1.397 1.3 0 2.55-.893 2.55-1.965v-1.526c-.52.39-1.236.423-1.852.504zm4.076 3.815c-.293.114-.634.163-.942.163-.78 0-1.2-.44-1.218-1.234-.827.925-1.736 1.33-3.035 1.33-1.655 0-2.68-.908-2.68-2.37 0-1.493.992-2.37 2.973-2.613 1.997-.244 2.68-.196 2.68-1.332 0-.894-.667-1.38-1.9-1.38-1.283 0-1.95.47-2.08 1.704h-1.347c.05-1.786 1.348-2.84 3.507-2.84 1.12 0 2.078.29 2.63.81.585.57.568 1.43.568 2.176 0 1.25-.063 2.484-.063 3.735 0 .616.146.827.567.827.13 0 .196-.016.342-.048v1.07z" id="Fill-53" fill="#000" mask="url(#mask-2)"/><path d="M136.32 64.784h-1.67v4.887c0 .764-.05 1.236.924 1.236.276 0 .455-.018.747-.05v1.187c-.437.047-.616.063-1.054.063-2.094 0-1.997-1.038-1.997-2.873v-4.45h-1.414V63.65h1.413v-2.484h1.38v2.484h1.67v1.136z" id="Fill-54" fill="#000" mask="url(#mask-2)"/><path d="M139.307 72.026h-1.396V63.65h1.397v8.376zm0-9.87h-1.396v-1.69h1.397v1.69z" id="Fill-55" fill="#000" mask="url(#mask-2)"/><path d="M142.44 67.837c0 2.062.99 3.28 2.678 3.28 1.624 0 2.597-1.234 2.597-3.297 0-1.997-1.005-3.263-2.63-3.263-1.624 0-2.646 1.283-2.646 3.28m6.688-.05c0 2.842-1.477 4.498-4.026 4.498-2.565 0-4.092-1.656-4.092-4.416 0-2.76 1.575-4.466 4.108-4.466 2.533 0 4.01 1.608 4.01 4.384" id="Fill-56" fill="#000" mask="url(#mask-2)"/><path d="M152.065 64.948c.698-1.023 1.575-1.526 2.857-1.526 2.046 0 2.793 1.12 2.793 3.036v5.568h-1.38V67.09c0-1.33-.065-2.467-1.802-2.467-1.802 0-2.387 1.364-2.387 3.02v4.383h-1.38V63.65h1.3v1.298z" id="Fill-57" fill="#000" mask="url(#mask-2)"/><path d="M60.398 74h-1.3V.965h1.3V74z" id="Fill-58" fill="#000" mask="url(#mask-2)"/></g></g></g></svg>